G04 EAGLE Gerber RS-274X export*
G75*
%MOMM*%
%FSLAX34Y34*%
%LPD*%
%INTop Copper*%
%IPPOS*%
%AMOC8*
5,1,8,0,0,1.08239X$1,22.5*%
G01*
%ADD10C,1.524000*%
%ADD11P,1.924489X8X292.500000*%
%ADD12P,1.814519X8X202.500000*%
%ADD13P,1.429621X8X292.500000*%
%ADD14P,1.649562X8X22.500000*%


D10*
X355600Y299720D02*
X355600Y284480D01*
X330200Y284480D02*
X330200Y299720D01*
X304800Y299720D02*
X304800Y284480D01*
X279400Y284480D02*
X279400Y299720D01*
X254000Y299720D02*
X254000Y284480D01*
X228600Y284480D02*
X228600Y299720D01*
X203200Y299720D02*
X203200Y284480D01*
X177800Y284480D02*
X177800Y299720D01*
X152400Y299720D02*
X152400Y284480D01*
X127000Y284480D02*
X127000Y299720D01*
X101600Y299720D02*
X101600Y284480D01*
X76200Y284480D02*
X76200Y299720D01*
X76200Y147320D02*
X76200Y132080D01*
X101600Y132080D02*
X101600Y147320D01*
X127000Y147320D02*
X127000Y132080D01*
X152400Y132080D02*
X152400Y147320D01*
X177800Y147320D02*
X177800Y132080D01*
X203200Y132080D02*
X203200Y147320D01*
X228600Y147320D02*
X228600Y132080D01*
X254000Y132080D02*
X254000Y147320D01*
X279400Y147320D02*
X279400Y132080D01*
X304800Y132080D02*
X304800Y147320D01*
X330200Y147320D02*
X330200Y132080D01*
X355600Y132080D02*
X355600Y147320D01*
D11*
X584200Y279400D03*
X558800Y279400D03*
X533400Y279400D03*
X508000Y279400D03*
X482600Y279400D03*
X457200Y279400D03*
X431800Y279400D03*
X406400Y279400D03*
D12*
X50800Y266700D03*
X25400Y266700D03*
X50800Y165100D03*
X25400Y165100D03*
D13*
X228600Y254000D03*
X228600Y177800D03*
X254000Y254000D03*
X254000Y177800D03*
D10*
X576580Y228600D02*
X591820Y228600D01*
X591820Y203200D02*
X576580Y203200D01*
D14*
X381000Y241300D03*
M02*
