G04 EAGLE Gerber RS-274X export*
G75*
%MOMM*%
%FSLAX34Y34*%
%LPD*%
%IN*%
%IPPOS*%
%AMOC8*
5,1,8,0,0,1.08239X$1,22.5*%
G01*
%ADD10C,0.254000*%


D10*
X0Y88900D02*
X657100Y88900D01*
X657100Y355500D01*
X0Y355500D01*
X0Y88900D01*
X627300Y304519D02*
X627237Y303961D01*
X627112Y303414D01*
X626927Y302884D01*
X626683Y302378D01*
X626384Y301902D01*
X626034Y301463D01*
X625637Y301066D01*
X625198Y300716D01*
X624722Y300417D01*
X624216Y300173D01*
X623686Y299988D01*
X623139Y299863D01*
X622581Y299800D01*
X622019Y299800D01*
X621461Y299863D01*
X620914Y299988D01*
X620384Y300173D01*
X619878Y300417D01*
X619402Y300716D01*
X618963Y301066D01*
X618566Y301463D01*
X618216Y301902D01*
X617917Y302378D01*
X617673Y302884D01*
X617488Y303414D01*
X617363Y303961D01*
X617300Y304519D01*
X617300Y305081D01*
X617363Y305639D01*
X617488Y306186D01*
X617673Y306716D01*
X617917Y307222D01*
X618216Y307698D01*
X618566Y308137D01*
X618963Y308534D01*
X619402Y308884D01*
X619878Y309183D01*
X620384Y309427D01*
X620914Y309612D01*
X621461Y309737D01*
X622019Y309800D01*
X622581Y309800D01*
X623139Y309737D01*
X623686Y309612D01*
X624216Y309427D01*
X624722Y309183D01*
X625198Y308884D01*
X625637Y308534D01*
X626034Y308137D01*
X626384Y307698D01*
X626683Y307222D01*
X626927Y306716D01*
X627112Y306186D01*
X627237Y305639D01*
X627300Y305081D01*
X627300Y304519D01*
X627300Y126719D02*
X627237Y126161D01*
X627112Y125614D01*
X626927Y125084D01*
X626683Y124578D01*
X626384Y124102D01*
X626034Y123663D01*
X625637Y123266D01*
X625198Y122916D01*
X624722Y122617D01*
X624216Y122373D01*
X623686Y122188D01*
X623139Y122063D01*
X622581Y122000D01*
X622019Y122000D01*
X621461Y122063D01*
X620914Y122188D01*
X620384Y122373D01*
X619878Y122617D01*
X619402Y122916D01*
X618963Y123266D01*
X618566Y123663D01*
X618216Y124102D01*
X617917Y124578D01*
X617673Y125084D01*
X617488Y125614D01*
X617363Y126161D01*
X617300Y126719D01*
X617300Y127281D01*
X617363Y127839D01*
X617488Y128386D01*
X617673Y128916D01*
X617917Y129422D01*
X618216Y129898D01*
X618566Y130337D01*
X618963Y130734D01*
X619402Y131084D01*
X619878Y131383D01*
X620384Y131627D01*
X620914Y131812D01*
X621461Y131937D01*
X622019Y132000D01*
X622581Y132000D01*
X623139Y131937D01*
X623686Y131812D01*
X624216Y131627D01*
X624722Y131383D01*
X625198Y131084D01*
X625637Y130734D01*
X626034Y130337D01*
X626384Y129898D01*
X626683Y129422D01*
X626927Y128916D01*
X627112Y128386D01*
X627237Y127839D01*
X627300Y127281D01*
X627300Y126719D01*
X30400Y304519D02*
X30337Y303961D01*
X30212Y303414D01*
X30027Y302884D01*
X29783Y302378D01*
X29484Y301902D01*
X29134Y301463D01*
X28737Y301066D01*
X28298Y300716D01*
X27822Y300417D01*
X27316Y300173D01*
X26786Y299988D01*
X26239Y299863D01*
X25681Y299800D01*
X25119Y299800D01*
X24561Y299863D01*
X24014Y299988D01*
X23484Y300173D01*
X22978Y300417D01*
X22502Y300716D01*
X22063Y301066D01*
X21666Y301463D01*
X21316Y301902D01*
X21017Y302378D01*
X20773Y302884D01*
X20588Y303414D01*
X20463Y303961D01*
X20400Y304519D01*
X20400Y305081D01*
X20463Y305639D01*
X20588Y306186D01*
X20773Y306716D01*
X21017Y307222D01*
X21316Y307698D01*
X21666Y308137D01*
X22063Y308534D01*
X22502Y308884D01*
X22978Y309183D01*
X23484Y309427D01*
X24014Y309612D01*
X24561Y309737D01*
X25119Y309800D01*
X25681Y309800D01*
X26239Y309737D01*
X26786Y309612D01*
X27316Y309427D01*
X27822Y309183D01*
X28298Y308884D01*
X28737Y308534D01*
X29134Y308137D01*
X29484Y307698D01*
X29783Y307222D01*
X30027Y306716D01*
X30212Y306186D01*
X30337Y305639D01*
X30400Y305081D01*
X30400Y304519D01*
X30400Y126719D02*
X30337Y126161D01*
X30212Y125614D01*
X30027Y125084D01*
X29783Y124578D01*
X29484Y124102D01*
X29134Y123663D01*
X28737Y123266D01*
X28298Y122916D01*
X27822Y122617D01*
X27316Y122373D01*
X26786Y122188D01*
X26239Y122063D01*
X25681Y122000D01*
X25119Y122000D01*
X24561Y122063D01*
X24014Y122188D01*
X23484Y122373D01*
X22978Y122617D01*
X22502Y122916D01*
X22063Y123266D01*
X21666Y123663D01*
X21316Y124102D01*
X21017Y124578D01*
X20773Y125084D01*
X20588Y125614D01*
X20463Y126161D01*
X20400Y126719D01*
X20400Y127281D01*
X20463Y127839D01*
X20588Y128386D01*
X20773Y128916D01*
X21017Y129422D01*
X21316Y129898D01*
X21666Y130337D01*
X22063Y130734D01*
X22502Y131084D01*
X22978Y131383D01*
X23484Y131627D01*
X24014Y131812D01*
X24561Y131937D01*
X25119Y132000D01*
X25681Y132000D01*
X26239Y131937D01*
X26786Y131812D01*
X27316Y131627D01*
X27822Y131383D01*
X28298Y131084D01*
X28737Y130734D01*
X29134Y130337D01*
X29484Y129898D01*
X29783Y129422D01*
X30027Y128916D01*
X30212Y128386D01*
X30337Y127839D01*
X30400Y127281D01*
X30400Y126719D01*
M02*
