G04 EAGLE Gerber RS-274X export*
G75*
%MOMM*%
%FSLAX34Y34*%
%LPD*%
%INSilkscreen Top*%
%IPPOS*%
%AMOC8*
5,1,8,0,0,1.08239X$1,22.5*%
G01*
%ADD10C,0.152400*%
%ADD11C,0.127000*%
%ADD12C,0.015238*%
%ADD13C,0.025400*%
%ADD14R,0.508000X0.381000*%
%ADD15C,0.101600*%


D10*
X133350Y279400D02*
X120650Y279400D01*
X114300Y285750D01*
X114300Y298450D01*
X120650Y304800D01*
X114300Y285750D02*
X107950Y279400D01*
X95250Y279400D01*
X88900Y285750D01*
X88900Y298450D01*
X95250Y304800D01*
X107950Y304800D01*
X114300Y298450D01*
X158750Y279400D02*
X165100Y285750D01*
X158750Y279400D02*
X146050Y279400D01*
X139700Y285750D01*
X139700Y298450D01*
X146050Y304800D01*
X158750Y304800D01*
X165100Y298450D01*
X139700Y285750D02*
X133350Y279400D01*
X139700Y298450D02*
X133350Y304800D01*
X120650Y304800D01*
X196850Y279400D02*
X209550Y279400D01*
X196850Y279400D02*
X190500Y285750D01*
X190500Y298450D01*
X196850Y304800D01*
X190500Y285750D02*
X184150Y279400D01*
X171450Y279400D01*
X165100Y285750D01*
X165100Y298450D01*
X171450Y304800D01*
X184150Y304800D01*
X190500Y298450D01*
X234950Y279400D02*
X241300Y285750D01*
X234950Y279400D02*
X222250Y279400D01*
X215900Y285750D01*
X215900Y298450D01*
X222250Y304800D01*
X234950Y304800D01*
X241300Y298450D01*
X215900Y285750D02*
X209550Y279400D01*
X215900Y298450D02*
X209550Y304800D01*
X196850Y304800D01*
X273050Y279400D02*
X285750Y279400D01*
X273050Y279400D02*
X266700Y285750D01*
X266700Y298450D01*
X273050Y304800D01*
X266700Y285750D02*
X260350Y279400D01*
X247650Y279400D01*
X241300Y285750D01*
X241300Y298450D01*
X247650Y304800D01*
X260350Y304800D01*
X266700Y298450D01*
X311150Y279400D02*
X317500Y285750D01*
X311150Y279400D02*
X298450Y279400D01*
X292100Y285750D01*
X292100Y298450D01*
X298450Y304800D01*
X311150Y304800D01*
X317500Y298450D01*
X292100Y285750D02*
X285750Y279400D01*
X292100Y298450D02*
X285750Y304800D01*
X273050Y304800D01*
X349250Y279400D02*
X361950Y279400D01*
X349250Y279400D02*
X342900Y285750D01*
X342900Y298450D01*
X349250Y304800D01*
X342900Y285750D02*
X336550Y279400D01*
X323850Y279400D01*
X317500Y285750D01*
X317500Y298450D01*
X323850Y304800D01*
X336550Y304800D01*
X342900Y298450D01*
X368300Y298450D02*
X368300Y285750D01*
X361950Y279400D01*
X368300Y298450D02*
X361950Y304800D01*
X349250Y304800D01*
X88900Y285750D02*
X82550Y279400D01*
X69850Y279400D01*
X63500Y285750D01*
X63500Y298450D01*
X69850Y304800D01*
X82550Y304800D01*
X88900Y298450D01*
D11*
X345238Y298577D02*
X345238Y289687D01*
X345236Y289587D01*
X345230Y289488D01*
X345220Y289388D01*
X345207Y289290D01*
X345189Y289191D01*
X345168Y289094D01*
X345143Y288998D01*
X345114Y288902D01*
X345081Y288808D01*
X345045Y288715D01*
X345005Y288624D01*
X344961Y288534D01*
X344914Y288446D01*
X344864Y288360D01*
X344810Y288276D01*
X344753Y288194D01*
X344693Y288115D01*
X344629Y288037D01*
X344563Y287963D01*
X344494Y287891D01*
X344422Y287822D01*
X344348Y287756D01*
X344270Y287692D01*
X344191Y287632D01*
X344109Y287575D01*
X344025Y287521D01*
X343939Y287471D01*
X343851Y287424D01*
X343761Y287380D01*
X343670Y287340D01*
X343577Y287304D01*
X343483Y287271D01*
X343387Y287242D01*
X343291Y287217D01*
X343194Y287196D01*
X343095Y287178D01*
X342997Y287165D01*
X342897Y287155D01*
X342798Y287149D01*
X342698Y287147D01*
X341428Y287147D01*
X351219Y287147D02*
X351219Y298577D01*
X354394Y298577D01*
X354505Y298575D01*
X354615Y298569D01*
X354726Y298560D01*
X354836Y298546D01*
X354945Y298529D01*
X355054Y298508D01*
X355162Y298483D01*
X355269Y298454D01*
X355375Y298422D01*
X355480Y298386D01*
X355583Y298346D01*
X355685Y298303D01*
X355786Y298256D01*
X355885Y298205D01*
X355982Y298152D01*
X356076Y298095D01*
X356169Y298034D01*
X356260Y297971D01*
X356349Y297904D01*
X356435Y297834D01*
X356518Y297761D01*
X356600Y297686D01*
X356678Y297608D01*
X356753Y297526D01*
X356826Y297443D01*
X356896Y297357D01*
X356963Y297268D01*
X357026Y297177D01*
X357087Y297084D01*
X357144Y296989D01*
X357197Y296893D01*
X357248Y296794D01*
X357295Y296693D01*
X357338Y296591D01*
X357378Y296488D01*
X357414Y296383D01*
X357446Y296277D01*
X357475Y296170D01*
X357500Y296062D01*
X357521Y295953D01*
X357538Y295844D01*
X357552Y295734D01*
X357561Y295623D01*
X357567Y295513D01*
X357569Y295402D01*
X357567Y295291D01*
X357561Y295181D01*
X357552Y295070D01*
X357538Y294960D01*
X357521Y294851D01*
X357500Y294742D01*
X357475Y294634D01*
X357446Y294527D01*
X357414Y294421D01*
X357378Y294316D01*
X357338Y294213D01*
X357295Y294111D01*
X357248Y294010D01*
X357197Y293911D01*
X357144Y293814D01*
X357087Y293720D01*
X357026Y293627D01*
X356963Y293536D01*
X356896Y293447D01*
X356826Y293361D01*
X356753Y293278D01*
X356678Y293196D01*
X356600Y293118D01*
X356518Y293043D01*
X356435Y292970D01*
X356349Y292900D01*
X356260Y292833D01*
X356169Y292770D01*
X356076Y292709D01*
X355982Y292652D01*
X355885Y292599D01*
X355786Y292548D01*
X355685Y292501D01*
X355583Y292458D01*
X355480Y292418D01*
X355375Y292382D01*
X355269Y292350D01*
X355162Y292321D01*
X355054Y292296D01*
X354945Y292275D01*
X354836Y292258D01*
X354726Y292244D01*
X354615Y292235D01*
X354505Y292229D01*
X354394Y292227D01*
X351219Y292227D01*
X362077Y296037D02*
X365252Y298577D01*
X365252Y287147D01*
X362077Y287147D02*
X368427Y287147D01*
D10*
X311150Y152400D02*
X298450Y152400D01*
X311150Y152400D02*
X317500Y146050D01*
X317500Y133350D01*
X311150Y127000D01*
X317500Y146050D02*
X323850Y152400D01*
X336550Y152400D01*
X342900Y146050D01*
X342900Y133350D01*
X336550Y127000D01*
X323850Y127000D01*
X317500Y133350D01*
X273050Y152400D02*
X266700Y146050D01*
X273050Y152400D02*
X285750Y152400D01*
X292100Y146050D01*
X292100Y133350D01*
X285750Y127000D01*
X273050Y127000D01*
X266700Y133350D01*
X292100Y146050D02*
X298450Y152400D01*
X292100Y133350D02*
X298450Y127000D01*
X311150Y127000D01*
X234950Y152400D02*
X222250Y152400D01*
X234950Y152400D02*
X241300Y146050D01*
X241300Y133350D01*
X234950Y127000D01*
X241300Y146050D02*
X247650Y152400D01*
X260350Y152400D01*
X266700Y146050D01*
X266700Y133350D01*
X260350Y127000D01*
X247650Y127000D01*
X241300Y133350D01*
X196850Y152400D02*
X190500Y146050D01*
X196850Y152400D02*
X209550Y152400D01*
X215900Y146050D01*
X215900Y133350D01*
X209550Y127000D01*
X196850Y127000D01*
X190500Y133350D01*
X215900Y146050D02*
X222250Y152400D01*
X215900Y133350D02*
X222250Y127000D01*
X234950Y127000D01*
X158750Y152400D02*
X146050Y152400D01*
X158750Y152400D02*
X165100Y146050D01*
X165100Y133350D01*
X158750Y127000D01*
X165100Y146050D02*
X171450Y152400D01*
X184150Y152400D01*
X190500Y146050D01*
X190500Y133350D01*
X184150Y127000D01*
X171450Y127000D01*
X165100Y133350D01*
X120650Y152400D02*
X114300Y146050D01*
X120650Y152400D02*
X133350Y152400D01*
X139700Y146050D01*
X139700Y133350D01*
X133350Y127000D01*
X120650Y127000D01*
X114300Y133350D01*
X139700Y146050D02*
X146050Y152400D01*
X139700Y133350D02*
X146050Y127000D01*
X158750Y127000D01*
X82550Y152400D02*
X69850Y152400D01*
X82550Y152400D02*
X88900Y146050D01*
X88900Y133350D01*
X82550Y127000D01*
X88900Y146050D02*
X95250Y152400D01*
X107950Y152400D01*
X114300Y146050D01*
X114300Y133350D01*
X107950Y127000D01*
X95250Y127000D01*
X88900Y133350D01*
X63500Y133350D02*
X63500Y146050D01*
X69850Y152400D01*
X63500Y133350D02*
X69850Y127000D01*
X82550Y127000D01*
X342900Y146050D02*
X349250Y152400D01*
X361950Y152400D01*
X368300Y146050D01*
X368300Y133350D01*
X361950Y127000D01*
X349250Y127000D01*
X342900Y133350D01*
D11*
X67183Y161163D02*
X67183Y170053D01*
X67183Y161163D02*
X67181Y161063D01*
X67175Y160964D01*
X67165Y160864D01*
X67152Y160766D01*
X67134Y160667D01*
X67113Y160570D01*
X67088Y160474D01*
X67059Y160378D01*
X67026Y160284D01*
X66990Y160191D01*
X66950Y160100D01*
X66906Y160010D01*
X66859Y159922D01*
X66809Y159836D01*
X66755Y159752D01*
X66698Y159670D01*
X66638Y159591D01*
X66574Y159513D01*
X66508Y159439D01*
X66439Y159367D01*
X66367Y159298D01*
X66293Y159232D01*
X66215Y159168D01*
X66136Y159108D01*
X66054Y159051D01*
X65970Y158997D01*
X65884Y158947D01*
X65796Y158900D01*
X65706Y158856D01*
X65615Y158816D01*
X65522Y158780D01*
X65428Y158747D01*
X65332Y158718D01*
X65236Y158693D01*
X65139Y158672D01*
X65040Y158654D01*
X64942Y158641D01*
X64842Y158631D01*
X64743Y158625D01*
X64643Y158623D01*
X63373Y158623D01*
X73163Y158623D02*
X73163Y170053D01*
X76338Y170053D01*
X76449Y170051D01*
X76559Y170045D01*
X76670Y170036D01*
X76780Y170022D01*
X76889Y170005D01*
X76998Y169984D01*
X77106Y169959D01*
X77213Y169930D01*
X77319Y169898D01*
X77424Y169862D01*
X77527Y169822D01*
X77629Y169779D01*
X77730Y169732D01*
X77829Y169681D01*
X77926Y169628D01*
X78020Y169571D01*
X78113Y169510D01*
X78204Y169447D01*
X78293Y169380D01*
X78379Y169310D01*
X78462Y169237D01*
X78544Y169162D01*
X78622Y169084D01*
X78697Y169002D01*
X78770Y168919D01*
X78840Y168833D01*
X78907Y168744D01*
X78970Y168653D01*
X79031Y168560D01*
X79088Y168465D01*
X79141Y168369D01*
X79192Y168270D01*
X79239Y168169D01*
X79282Y168067D01*
X79322Y167964D01*
X79358Y167859D01*
X79390Y167753D01*
X79419Y167646D01*
X79444Y167538D01*
X79465Y167429D01*
X79482Y167320D01*
X79496Y167210D01*
X79505Y167099D01*
X79511Y166989D01*
X79513Y166878D01*
X79511Y166767D01*
X79505Y166657D01*
X79496Y166546D01*
X79482Y166436D01*
X79465Y166327D01*
X79444Y166218D01*
X79419Y166110D01*
X79390Y166003D01*
X79358Y165897D01*
X79322Y165792D01*
X79282Y165689D01*
X79239Y165587D01*
X79192Y165486D01*
X79141Y165387D01*
X79088Y165290D01*
X79031Y165196D01*
X78970Y165103D01*
X78907Y165012D01*
X78840Y164923D01*
X78770Y164837D01*
X78697Y164754D01*
X78622Y164672D01*
X78544Y164594D01*
X78462Y164519D01*
X78379Y164446D01*
X78293Y164376D01*
X78204Y164309D01*
X78113Y164246D01*
X78020Y164185D01*
X77925Y164128D01*
X77829Y164075D01*
X77730Y164024D01*
X77629Y163977D01*
X77527Y163934D01*
X77424Y163894D01*
X77319Y163858D01*
X77213Y163826D01*
X77106Y163797D01*
X76998Y163772D01*
X76889Y163751D01*
X76780Y163734D01*
X76670Y163720D01*
X76559Y163711D01*
X76449Y163705D01*
X76338Y163703D01*
X73163Y163703D01*
X87514Y170054D02*
X87618Y170052D01*
X87723Y170046D01*
X87827Y170037D01*
X87930Y170024D01*
X88033Y170006D01*
X88135Y169986D01*
X88237Y169961D01*
X88337Y169933D01*
X88437Y169901D01*
X88535Y169865D01*
X88632Y169826D01*
X88727Y169784D01*
X88821Y169738D01*
X88913Y169688D01*
X89003Y169636D01*
X89091Y169580D01*
X89177Y169520D01*
X89261Y169458D01*
X89342Y169393D01*
X89421Y169325D01*
X89498Y169253D01*
X89571Y169180D01*
X89643Y169103D01*
X89711Y169024D01*
X89776Y168943D01*
X89838Y168859D01*
X89898Y168773D01*
X89954Y168685D01*
X90006Y168595D01*
X90056Y168503D01*
X90102Y168409D01*
X90144Y168314D01*
X90183Y168217D01*
X90219Y168119D01*
X90251Y168019D01*
X90279Y167919D01*
X90304Y167817D01*
X90324Y167715D01*
X90342Y167612D01*
X90355Y167509D01*
X90364Y167405D01*
X90370Y167300D01*
X90372Y167196D01*
X87514Y170053D02*
X87396Y170051D01*
X87277Y170045D01*
X87159Y170036D01*
X87042Y170023D01*
X86925Y170005D01*
X86808Y169985D01*
X86692Y169960D01*
X86577Y169932D01*
X86464Y169899D01*
X86351Y169864D01*
X86239Y169824D01*
X86129Y169782D01*
X86020Y169735D01*
X85912Y169685D01*
X85807Y169632D01*
X85703Y169575D01*
X85601Y169515D01*
X85501Y169452D01*
X85403Y169385D01*
X85307Y169316D01*
X85214Y169243D01*
X85123Y169167D01*
X85034Y169089D01*
X84948Y169007D01*
X84865Y168923D01*
X84784Y168837D01*
X84707Y168747D01*
X84632Y168656D01*
X84560Y168562D01*
X84491Y168465D01*
X84426Y168367D01*
X84363Y168266D01*
X84304Y168163D01*
X84248Y168059D01*
X84196Y167953D01*
X84147Y167845D01*
X84102Y167736D01*
X84060Y167625D01*
X84022Y167513D01*
X89420Y164974D02*
X89496Y165049D01*
X89571Y165128D01*
X89642Y165209D01*
X89711Y165293D01*
X89776Y165379D01*
X89838Y165467D01*
X89898Y165557D01*
X89954Y165649D01*
X90007Y165744D01*
X90056Y165840D01*
X90102Y165938D01*
X90145Y166037D01*
X90184Y166138D01*
X90219Y166240D01*
X90251Y166343D01*
X90279Y166447D01*
X90304Y166552D01*
X90325Y166659D01*
X90342Y166765D01*
X90355Y166872D01*
X90364Y166980D01*
X90370Y167088D01*
X90372Y167196D01*
X89419Y164973D02*
X84022Y158623D01*
X90372Y158623D01*
X393700Y266700D02*
X596900Y266700D01*
X393700Y266700D02*
X393700Y292100D01*
X596900Y292100D01*
X596900Y266700D01*
X573838Y260477D02*
X573838Y251587D01*
X573836Y251487D01*
X573830Y251388D01*
X573820Y251288D01*
X573807Y251190D01*
X573789Y251091D01*
X573768Y250994D01*
X573743Y250898D01*
X573714Y250802D01*
X573681Y250708D01*
X573645Y250615D01*
X573605Y250524D01*
X573561Y250434D01*
X573514Y250346D01*
X573464Y250260D01*
X573410Y250176D01*
X573353Y250094D01*
X573293Y250015D01*
X573229Y249937D01*
X573163Y249863D01*
X573094Y249791D01*
X573022Y249722D01*
X572948Y249656D01*
X572870Y249592D01*
X572791Y249532D01*
X572709Y249475D01*
X572625Y249421D01*
X572539Y249371D01*
X572451Y249324D01*
X572361Y249280D01*
X572270Y249240D01*
X572177Y249204D01*
X572083Y249171D01*
X571987Y249142D01*
X571891Y249117D01*
X571794Y249096D01*
X571695Y249078D01*
X571597Y249065D01*
X571497Y249055D01*
X571398Y249049D01*
X571298Y249047D01*
X570028Y249047D01*
X579819Y249047D02*
X579819Y260477D01*
X582994Y260477D01*
X583105Y260475D01*
X583215Y260469D01*
X583326Y260460D01*
X583436Y260446D01*
X583545Y260429D01*
X583654Y260408D01*
X583762Y260383D01*
X583869Y260354D01*
X583975Y260322D01*
X584080Y260286D01*
X584183Y260246D01*
X584285Y260203D01*
X584386Y260156D01*
X584485Y260105D01*
X584582Y260052D01*
X584676Y259995D01*
X584769Y259934D01*
X584860Y259871D01*
X584949Y259804D01*
X585035Y259734D01*
X585118Y259661D01*
X585200Y259586D01*
X585278Y259508D01*
X585353Y259426D01*
X585426Y259343D01*
X585496Y259257D01*
X585563Y259168D01*
X585626Y259077D01*
X585687Y258984D01*
X585744Y258889D01*
X585797Y258793D01*
X585848Y258694D01*
X585895Y258593D01*
X585938Y258491D01*
X585978Y258388D01*
X586014Y258283D01*
X586046Y258177D01*
X586075Y258070D01*
X586100Y257962D01*
X586121Y257853D01*
X586138Y257744D01*
X586152Y257634D01*
X586161Y257523D01*
X586167Y257413D01*
X586169Y257302D01*
X586167Y257191D01*
X586161Y257081D01*
X586152Y256970D01*
X586138Y256860D01*
X586121Y256751D01*
X586100Y256642D01*
X586075Y256534D01*
X586046Y256427D01*
X586014Y256321D01*
X585978Y256216D01*
X585938Y256113D01*
X585895Y256011D01*
X585848Y255910D01*
X585797Y255811D01*
X585744Y255714D01*
X585687Y255620D01*
X585626Y255527D01*
X585563Y255436D01*
X585496Y255347D01*
X585426Y255261D01*
X585353Y255178D01*
X585278Y255096D01*
X585200Y255018D01*
X585118Y254943D01*
X585035Y254870D01*
X584949Y254800D01*
X584860Y254733D01*
X584769Y254670D01*
X584676Y254609D01*
X584582Y254552D01*
X584485Y254499D01*
X584386Y254448D01*
X584285Y254401D01*
X584183Y254358D01*
X584080Y254318D01*
X583975Y254282D01*
X583869Y254250D01*
X583762Y254221D01*
X583654Y254196D01*
X583545Y254175D01*
X583436Y254158D01*
X583326Y254144D01*
X583215Y254135D01*
X583105Y254129D01*
X582994Y254127D01*
X579819Y254127D01*
X590677Y249047D02*
X593852Y249047D01*
X593963Y249049D01*
X594073Y249055D01*
X594184Y249064D01*
X594294Y249078D01*
X594403Y249095D01*
X594512Y249116D01*
X594620Y249141D01*
X594727Y249170D01*
X594833Y249202D01*
X594938Y249238D01*
X595041Y249278D01*
X595143Y249321D01*
X595244Y249368D01*
X595343Y249419D01*
X595440Y249472D01*
X595534Y249529D01*
X595627Y249590D01*
X595718Y249653D01*
X595807Y249720D01*
X595893Y249790D01*
X595976Y249863D01*
X596058Y249938D01*
X596136Y250016D01*
X596211Y250098D01*
X596284Y250181D01*
X596354Y250267D01*
X596421Y250356D01*
X596484Y250447D01*
X596545Y250540D01*
X596602Y250634D01*
X596655Y250731D01*
X596706Y250830D01*
X596753Y250931D01*
X596796Y251033D01*
X596836Y251136D01*
X596872Y251241D01*
X596904Y251347D01*
X596933Y251454D01*
X596958Y251562D01*
X596979Y251671D01*
X596996Y251780D01*
X597010Y251890D01*
X597019Y252001D01*
X597025Y252111D01*
X597027Y252222D01*
X597025Y252333D01*
X597019Y252443D01*
X597010Y252554D01*
X596996Y252664D01*
X596979Y252773D01*
X596958Y252882D01*
X596933Y252990D01*
X596904Y253097D01*
X596872Y253203D01*
X596836Y253308D01*
X596796Y253411D01*
X596753Y253513D01*
X596706Y253614D01*
X596655Y253713D01*
X596602Y253809D01*
X596545Y253904D01*
X596484Y253997D01*
X596421Y254088D01*
X596354Y254177D01*
X596284Y254263D01*
X596211Y254346D01*
X596136Y254428D01*
X596058Y254506D01*
X595976Y254581D01*
X595893Y254654D01*
X595807Y254724D01*
X595718Y254791D01*
X595627Y254854D01*
X595534Y254915D01*
X595440Y254972D01*
X595343Y255025D01*
X595244Y255076D01*
X595143Y255123D01*
X595041Y255166D01*
X594938Y255206D01*
X594833Y255242D01*
X594727Y255274D01*
X594620Y255303D01*
X594512Y255328D01*
X594403Y255349D01*
X594294Y255366D01*
X594184Y255380D01*
X594073Y255389D01*
X593963Y255395D01*
X593852Y255397D01*
X594487Y260477D02*
X590677Y260477D01*
X594487Y260477D02*
X594587Y260475D01*
X594686Y260469D01*
X594786Y260459D01*
X594884Y260446D01*
X594983Y260428D01*
X595080Y260407D01*
X595176Y260382D01*
X595272Y260353D01*
X595366Y260320D01*
X595459Y260284D01*
X595550Y260244D01*
X595640Y260200D01*
X595728Y260153D01*
X595814Y260103D01*
X595898Y260049D01*
X595980Y259992D01*
X596059Y259932D01*
X596137Y259868D01*
X596211Y259802D01*
X596283Y259733D01*
X596352Y259661D01*
X596418Y259587D01*
X596482Y259509D01*
X596542Y259430D01*
X596599Y259348D01*
X596653Y259264D01*
X596703Y259178D01*
X596750Y259090D01*
X596794Y259000D01*
X596834Y258909D01*
X596870Y258816D01*
X596903Y258722D01*
X596932Y258626D01*
X596957Y258530D01*
X596978Y258433D01*
X596996Y258334D01*
X597009Y258236D01*
X597019Y258136D01*
X597025Y258037D01*
X597027Y257937D01*
X597025Y257837D01*
X597019Y257738D01*
X597009Y257638D01*
X596996Y257540D01*
X596978Y257441D01*
X596957Y257344D01*
X596932Y257248D01*
X596903Y257152D01*
X596870Y257058D01*
X596834Y256965D01*
X596794Y256874D01*
X596750Y256784D01*
X596703Y256696D01*
X596653Y256610D01*
X596599Y256526D01*
X596542Y256444D01*
X596482Y256365D01*
X596418Y256287D01*
X596352Y256213D01*
X596283Y256141D01*
X596211Y256072D01*
X596137Y256006D01*
X596059Y255942D01*
X595980Y255882D01*
X595898Y255825D01*
X595814Y255771D01*
X595728Y255721D01*
X595640Y255674D01*
X595550Y255630D01*
X595459Y255590D01*
X595366Y255554D01*
X595272Y255521D01*
X595176Y255492D01*
X595080Y255467D01*
X594983Y255446D01*
X594884Y255428D01*
X594786Y255415D01*
X594686Y255405D01*
X594587Y255399D01*
X594487Y255397D01*
X591947Y255397D01*
D12*
X25185Y257382D02*
X26302Y258179D01*
X26301Y258179D02*
X26510Y257897D01*
X26726Y257620D01*
X26948Y257349D01*
X27176Y257083D01*
X27411Y256822D01*
X27652Y256567D01*
X27900Y256319D01*
X28153Y256076D01*
X28412Y255839D01*
X28676Y255609D01*
X28947Y255385D01*
X29222Y255168D01*
X29502Y254957D01*
X29788Y254753D01*
X30078Y254556D01*
X30373Y254366D01*
X30673Y254184D01*
X30977Y254008D01*
X31285Y253840D01*
X31597Y253680D01*
X31912Y253527D01*
X32232Y253382D01*
X32554Y253244D01*
X32880Y253114D01*
X33209Y252992D01*
X33541Y252878D01*
X33876Y252773D01*
X34212Y252675D01*
X34552Y252585D01*
X34893Y252504D01*
X35236Y252431D01*
X35581Y252366D01*
X35927Y252309D01*
X36274Y252261D01*
X36623Y252221D01*
X36972Y252190D01*
X37322Y252167D01*
X37673Y252152D01*
X38024Y252146D01*
X38024Y250775D01*
X38024Y250774D01*
X37639Y250781D01*
X37256Y250796D01*
X36872Y250821D01*
X36489Y250856D01*
X36108Y250899D01*
X35727Y250952D01*
X35348Y251014D01*
X34970Y251085D01*
X34594Y251165D01*
X34220Y251254D01*
X33849Y251352D01*
X33480Y251459D01*
X33114Y251575D01*
X32750Y251699D01*
X32390Y251833D01*
X32033Y251975D01*
X31679Y252126D01*
X31330Y252285D01*
X30984Y252452D01*
X30642Y252628D01*
X30305Y252812D01*
X29972Y253004D01*
X29644Y253204D01*
X29321Y253412D01*
X29003Y253628D01*
X28690Y253851D01*
X28383Y254082D01*
X28081Y254320D01*
X27785Y254565D01*
X27496Y254818D01*
X27212Y255077D01*
X26935Y255343D01*
X26664Y255616D01*
X26400Y255895D01*
X26143Y256180D01*
X25892Y256472D01*
X25649Y256769D01*
X25413Y257073D01*
X25185Y257382D01*
X25301Y257465D01*
X25528Y257159D01*
X25761Y256858D01*
X26002Y256563D01*
X26251Y256274D01*
X26505Y255992D01*
X26767Y255715D01*
X27035Y255445D01*
X27310Y255181D01*
X27591Y254924D01*
X27878Y254674D01*
X28171Y254431D01*
X28470Y254195D01*
X28775Y253966D01*
X29085Y253745D01*
X29400Y253532D01*
X29720Y253325D01*
X30045Y253127D01*
X30375Y252937D01*
X30709Y252755D01*
X31048Y252580D01*
X31390Y252414D01*
X31737Y252257D01*
X32087Y252107D01*
X32441Y251966D01*
X32798Y251834D01*
X33158Y251711D01*
X33521Y251596D01*
X33887Y251490D01*
X34255Y251393D01*
X34625Y251304D01*
X34998Y251225D01*
X35372Y251155D01*
X35748Y251093D01*
X36125Y251041D01*
X36503Y250998D01*
X36883Y250964D01*
X37262Y250939D01*
X37643Y250924D01*
X38024Y250917D01*
X38024Y251060D01*
X37646Y251067D01*
X37269Y251082D01*
X36893Y251107D01*
X36517Y251140D01*
X36142Y251183D01*
X35769Y251235D01*
X35396Y251295D01*
X35025Y251365D01*
X34656Y251444D01*
X34289Y251531D01*
X33925Y251628D01*
X33562Y251733D01*
X33203Y251847D01*
X32846Y251969D01*
X32492Y252100D01*
X32141Y252240D01*
X31794Y252387D01*
X31451Y252544D01*
X31111Y252708D01*
X30776Y252881D01*
X30445Y253062D01*
X30118Y253250D01*
X29796Y253447D01*
X29479Y253651D01*
X29166Y253863D01*
X28859Y254082D01*
X28558Y254308D01*
X28262Y254542D01*
X27971Y254783D01*
X27687Y255031D01*
X27408Y255285D01*
X27136Y255546D01*
X26870Y255814D01*
X26611Y256088D01*
X26358Y256368D01*
X26112Y256655D01*
X25874Y256947D01*
X25642Y257245D01*
X25417Y257548D01*
X25534Y257631D01*
X25756Y257330D01*
X25986Y257035D01*
X26222Y256746D01*
X26466Y256463D01*
X26716Y256185D01*
X26973Y255913D01*
X27237Y255648D01*
X27506Y255389D01*
X27782Y255137D01*
X28064Y254892D01*
X28352Y254653D01*
X28645Y254421D01*
X28944Y254197D01*
X29248Y253980D01*
X29558Y253770D01*
X29872Y253568D01*
X30191Y253373D01*
X30515Y253186D01*
X30843Y253007D01*
X31175Y252836D01*
X31512Y252673D01*
X31852Y252518D01*
X32196Y252372D01*
X32543Y252234D01*
X32894Y252104D01*
X33247Y251982D01*
X33604Y251870D01*
X33963Y251766D01*
X34324Y251670D01*
X34688Y251583D01*
X35053Y251505D01*
X35421Y251436D01*
X35789Y251376D01*
X36160Y251325D01*
X36531Y251283D01*
X36903Y251249D01*
X37276Y251225D01*
X37650Y251210D01*
X38024Y251203D01*
X38024Y251346D01*
X37653Y251352D01*
X37283Y251368D01*
X36914Y251392D01*
X36545Y251425D01*
X36177Y251467D01*
X35810Y251518D01*
X35445Y251577D01*
X35081Y251646D01*
X34719Y251723D01*
X34359Y251809D01*
X34000Y251903D01*
X33645Y252007D01*
X33292Y252118D01*
X32942Y252238D01*
X32594Y252367D01*
X32250Y252504D01*
X31910Y252649D01*
X31572Y252803D01*
X31239Y252964D01*
X30910Y253134D01*
X30585Y253311D01*
X30264Y253496D01*
X29948Y253689D01*
X29637Y253889D01*
X29330Y254097D01*
X29029Y254312D01*
X28733Y254535D01*
X28442Y254764D01*
X28157Y255000D01*
X27878Y255244D01*
X27604Y255493D01*
X27337Y255750D01*
X27076Y256013D01*
X26822Y256282D01*
X26574Y256557D01*
X26332Y256837D01*
X26098Y257124D01*
X25871Y257416D01*
X25650Y257714D01*
X25767Y257797D01*
X25985Y257502D01*
X26210Y257213D01*
X26442Y256929D01*
X26681Y256651D01*
X26927Y256378D01*
X27179Y256112D01*
X27438Y255851D01*
X27702Y255598D01*
X27973Y255350D01*
X28250Y255109D01*
X28532Y254875D01*
X28820Y254648D01*
X29113Y254427D01*
X29412Y254214D01*
X29716Y254008D01*
X30024Y253810D01*
X30337Y253619D01*
X30655Y253436D01*
X30977Y253260D01*
X31303Y253092D01*
X31633Y252932D01*
X31967Y252780D01*
X32305Y252636D01*
X32645Y252501D01*
X32989Y252373D01*
X33336Y252254D01*
X33686Y252143D01*
X34038Y252041D01*
X34393Y251948D01*
X34750Y251863D01*
X35109Y251786D01*
X35469Y251718D01*
X35831Y251659D01*
X36195Y251609D01*
X36559Y251567D01*
X36924Y251535D01*
X37290Y251511D01*
X37657Y251495D01*
X38024Y251489D01*
X38024Y251632D01*
X37660Y251638D01*
X37297Y251653D01*
X36935Y251677D01*
X36573Y251710D01*
X36212Y251751D01*
X35852Y251801D01*
X35493Y251859D01*
X35136Y251926D01*
X34781Y252002D01*
X34428Y252086D01*
X34076Y252179D01*
X33727Y252280D01*
X33381Y252390D01*
X33037Y252508D01*
X32697Y252634D01*
X32359Y252769D01*
X32025Y252911D01*
X31694Y253062D01*
X31367Y253220D01*
X31044Y253386D01*
X30725Y253560D01*
X30410Y253742D01*
X30100Y253931D01*
X29795Y254128D01*
X29494Y254332D01*
X29198Y254543D01*
X28908Y254761D01*
X28622Y254986D01*
X28343Y255218D01*
X28069Y255456D01*
X27800Y255702D01*
X27538Y255953D01*
X27282Y256211D01*
X27032Y256475D01*
X26789Y256745D01*
X26552Y257020D01*
X26322Y257302D01*
X26099Y257588D01*
X25883Y257880D01*
X25999Y257963D01*
X26213Y257674D01*
X26435Y257390D01*
X26662Y257112D01*
X26897Y256839D01*
X27138Y256571D01*
X27385Y256310D01*
X27639Y256055D01*
X27899Y255806D01*
X28164Y255563D01*
X28436Y255327D01*
X28713Y255097D01*
X28995Y254874D01*
X29283Y254658D01*
X29576Y254449D01*
X29873Y254247D01*
X30176Y254052D01*
X30483Y253865D01*
X30795Y253685D01*
X31111Y253513D01*
X31431Y253348D01*
X31755Y253191D01*
X32082Y253042D01*
X32413Y252901D01*
X32748Y252768D01*
X33085Y252643D01*
X33425Y252526D01*
X33769Y252417D01*
X34114Y252317D01*
X34462Y252225D01*
X34812Y252142D01*
X35164Y252067D01*
X35518Y252000D01*
X35873Y251942D01*
X36229Y251893D01*
X36587Y251852D01*
X36945Y251820D01*
X37304Y251796D01*
X37664Y251781D01*
X38024Y251775D01*
X38024Y251918D01*
X37667Y251924D01*
X37311Y251939D01*
X36956Y251962D01*
X36601Y251994D01*
X36247Y252035D01*
X35894Y252084D01*
X35542Y252141D01*
X35192Y252207D01*
X34843Y252281D01*
X34497Y252364D01*
X34152Y252455D01*
X33810Y252554D01*
X33470Y252662D01*
X33133Y252778D01*
X32799Y252901D01*
X32468Y253033D01*
X32140Y253173D01*
X31815Y253320D01*
X31495Y253476D01*
X31178Y253639D01*
X30865Y253810D01*
X30556Y253988D01*
X30252Y254173D01*
X29952Y254366D01*
X29657Y254566D01*
X29367Y254773D01*
X29082Y254987D01*
X28803Y255208D01*
X28528Y255435D01*
X28260Y255669D01*
X27997Y255910D01*
X27739Y256156D01*
X27488Y256409D01*
X27243Y256668D01*
X27005Y256933D01*
X26772Y257203D01*
X26547Y257479D01*
X26328Y257760D01*
X26116Y258046D01*
X26232Y258130D01*
X26442Y257846D01*
X26659Y257568D01*
X26882Y257294D01*
X27112Y257027D01*
X27349Y256765D01*
X27591Y256509D01*
X27840Y256258D01*
X28095Y256014D01*
X28355Y255776D01*
X28621Y255544D01*
X28893Y255319D01*
X29170Y255100D01*
X29452Y254888D01*
X29739Y254683D01*
X30031Y254485D01*
X30328Y254294D01*
X30629Y254111D01*
X30935Y253934D01*
X31245Y253765D01*
X31559Y253604D01*
X31876Y253450D01*
X32197Y253304D01*
X32522Y253165D01*
X32850Y253035D01*
X33181Y252912D01*
X33515Y252798D01*
X33851Y252691D01*
X34190Y252593D01*
X34531Y252503D01*
X34874Y252421D01*
X35219Y252347D01*
X35566Y252282D01*
X35915Y252225D01*
X36264Y252177D01*
X36615Y252137D01*
X36966Y252105D01*
X37318Y252082D01*
X37671Y252067D01*
X38024Y252061D01*
X38175Y250775D02*
X38175Y252147D01*
X38176Y252146D02*
X38527Y252152D01*
X38878Y252167D01*
X39228Y252190D01*
X39578Y252221D01*
X39927Y252261D01*
X40275Y252309D01*
X40621Y252366D01*
X40966Y252431D01*
X41310Y252504D01*
X41651Y252586D01*
X41991Y252676D01*
X42328Y252774D01*
X42663Y252880D01*
X42995Y252994D01*
X43324Y253116D01*
X43650Y253246D01*
X43973Y253384D01*
X44293Y253529D01*
X44609Y253683D01*
X44921Y253843D01*
X45229Y254012D01*
X45533Y254187D01*
X45833Y254370D01*
X46128Y254560D01*
X46419Y254758D01*
X46704Y254962D01*
X46985Y255173D01*
X47260Y255391D01*
X47531Y255615D01*
X47795Y255846D01*
X48054Y256083D01*
X48308Y256326D01*
X48555Y256575D01*
X48796Y256830D01*
X49031Y257091D01*
X49260Y257358D01*
X49482Y257630D01*
X49697Y257907D01*
X50795Y257084D01*
X50559Y256780D01*
X50316Y256482D01*
X50066Y256190D01*
X49808Y255904D01*
X49544Y255624D01*
X49273Y255351D01*
X48996Y255085D01*
X48712Y254825D01*
X48423Y254572D01*
X48127Y254326D01*
X47825Y254088D01*
X47518Y253857D01*
X47205Y253633D01*
X46886Y253417D01*
X46563Y253209D01*
X46235Y253008D01*
X45902Y252816D01*
X45564Y252632D01*
X45222Y252455D01*
X44876Y252288D01*
X44526Y252128D01*
X44172Y251977D01*
X43815Y251835D01*
X43454Y251701D01*
X43091Y251576D01*
X42724Y251460D01*
X42355Y251353D01*
X41983Y251255D01*
X41609Y251165D01*
X41233Y251085D01*
X40855Y251014D01*
X40475Y250952D01*
X40094Y250899D01*
X39712Y250856D01*
X39329Y250821D01*
X38945Y250796D01*
X38561Y250781D01*
X38176Y250774D01*
X38176Y250917D01*
X38557Y250924D01*
X38938Y250939D01*
X39318Y250964D01*
X39698Y250998D01*
X40077Y251041D01*
X40454Y251094D01*
X40830Y251155D01*
X41205Y251225D01*
X41578Y251305D01*
X41948Y251393D01*
X42317Y251491D01*
X42683Y251597D01*
X43046Y251712D01*
X43407Y251836D01*
X43764Y251968D01*
X44118Y252109D01*
X44469Y252259D01*
X44815Y252417D01*
X45158Y252583D01*
X45497Y252758D01*
X45832Y252940D01*
X46162Y253131D01*
X46487Y253330D01*
X46807Y253536D01*
X47123Y253750D01*
X47433Y253972D01*
X47737Y254201D01*
X48036Y254437D01*
X48330Y254681D01*
X48617Y254931D01*
X48898Y255189D01*
X49173Y255453D01*
X49441Y255724D01*
X49703Y256001D01*
X49958Y256284D01*
X50206Y256573D01*
X50447Y256869D01*
X50681Y257170D01*
X50566Y257255D01*
X50335Y256957D01*
X50096Y256665D01*
X49850Y256378D01*
X49597Y256097D01*
X49338Y255823D01*
X49072Y255554D01*
X48800Y255293D01*
X48521Y255038D01*
X48237Y254790D01*
X47946Y254548D01*
X47650Y254314D01*
X47348Y254087D01*
X47041Y253868D01*
X46728Y253655D01*
X46411Y253451D01*
X46089Y253254D01*
X45762Y253065D01*
X45430Y252884D01*
X45094Y252711D01*
X44755Y252546D01*
X44411Y252390D01*
X44064Y252242D01*
X43713Y252102D01*
X43359Y251971D01*
X43002Y251848D01*
X42641Y251734D01*
X42279Y251629D01*
X41914Y251532D01*
X41546Y251444D01*
X41177Y251366D01*
X40806Y251296D01*
X40433Y251235D01*
X40059Y251183D01*
X39684Y251140D01*
X39308Y251107D01*
X38931Y251082D01*
X38554Y251067D01*
X38176Y251060D01*
X38176Y251203D01*
X38550Y251210D01*
X38924Y251225D01*
X39297Y251249D01*
X39670Y251283D01*
X40042Y251325D01*
X40412Y251376D01*
X40782Y251437D01*
X41149Y251506D01*
X41515Y251584D01*
X41879Y251671D01*
X42241Y251766D01*
X42600Y251871D01*
X42957Y251984D01*
X43311Y252105D01*
X43662Y252235D01*
X44009Y252374D01*
X44353Y252521D01*
X44694Y252676D01*
X45030Y252839D01*
X45363Y253010D01*
X45691Y253190D01*
X46015Y253377D01*
X46335Y253572D01*
X46649Y253775D01*
X46959Y253985D01*
X47263Y254202D01*
X47562Y254427D01*
X47856Y254659D01*
X48144Y254898D01*
X48426Y255144D01*
X48702Y255397D01*
X48971Y255656D01*
X49235Y255922D01*
X49492Y256194D01*
X49742Y256472D01*
X49986Y256756D01*
X50222Y257046D01*
X50452Y257341D01*
X50337Y257427D01*
X50110Y257134D01*
X49876Y256847D01*
X49634Y256566D01*
X49386Y256290D01*
X49132Y256021D01*
X48871Y255758D01*
X48603Y255501D01*
X48330Y255251D01*
X48051Y255007D01*
X47766Y254770D01*
X47475Y254540D01*
X47178Y254317D01*
X46877Y254102D01*
X46570Y253894D01*
X46259Y253693D01*
X45942Y253500D01*
X45621Y253314D01*
X45296Y253137D01*
X44967Y252967D01*
X44633Y252805D01*
X44296Y252652D01*
X43955Y252506D01*
X43610Y252369D01*
X43263Y252240D01*
X42912Y252120D01*
X42559Y252008D01*
X42203Y251904D01*
X41845Y251810D01*
X41484Y251724D01*
X41122Y251646D01*
X40757Y251578D01*
X40391Y251518D01*
X40024Y251467D01*
X39656Y251425D01*
X39287Y251392D01*
X38917Y251368D01*
X38547Y251352D01*
X38176Y251346D01*
X38176Y251489D01*
X38543Y251495D01*
X38910Y251511D01*
X39276Y251535D01*
X39642Y251567D01*
X40007Y251609D01*
X40371Y251659D01*
X40733Y251719D01*
X41094Y251787D01*
X41453Y251863D01*
X41810Y251948D01*
X42165Y252042D01*
X42518Y252145D01*
X42868Y252255D01*
X43215Y252375D01*
X43559Y252502D01*
X43900Y252638D01*
X44238Y252782D01*
X44572Y252935D01*
X44903Y253095D01*
X45229Y253263D01*
X45551Y253439D01*
X45869Y253623D01*
X46183Y253814D01*
X46491Y254013D01*
X46795Y254219D01*
X47094Y254433D01*
X47387Y254653D01*
X47675Y254881D01*
X47958Y255116D01*
X48234Y255357D01*
X48505Y255605D01*
X48770Y255859D01*
X49029Y256120D01*
X49281Y256387D01*
X49527Y256660D01*
X49766Y256938D01*
X49998Y257223D01*
X50223Y257513D01*
X50109Y257599D01*
X49885Y257311D01*
X49655Y257030D01*
X49419Y256754D01*
X49175Y256483D01*
X48926Y256219D01*
X48669Y255961D01*
X48407Y255709D01*
X48139Y255463D01*
X47865Y255224D01*
X47585Y254992D01*
X47300Y254766D01*
X47009Y254548D01*
X46713Y254336D01*
X46412Y254132D01*
X46106Y253935D01*
X45796Y253746D01*
X45481Y253564D01*
X45162Y253389D01*
X44839Y253223D01*
X44511Y253064D01*
X44180Y252913D01*
X43846Y252771D01*
X43508Y252636D01*
X43167Y252510D01*
X42823Y252391D01*
X42476Y252282D01*
X42127Y252180D01*
X41776Y252087D01*
X41422Y252003D01*
X41066Y251927D01*
X40709Y251860D01*
X40350Y251801D01*
X39989Y251751D01*
X39628Y251710D01*
X39266Y251677D01*
X38903Y251653D01*
X38540Y251638D01*
X38176Y251632D01*
X38176Y251775D01*
X38536Y251781D01*
X38896Y251796D01*
X39255Y251820D01*
X39614Y251852D01*
X39972Y251893D01*
X40329Y251942D01*
X40684Y252000D01*
X41038Y252067D01*
X41391Y252142D01*
X41741Y252226D01*
X42089Y252318D01*
X42435Y252418D01*
X42778Y252527D01*
X43119Y252644D01*
X43457Y252769D01*
X43791Y252903D01*
X44123Y253044D01*
X44451Y253193D01*
X44775Y253351D01*
X45095Y253516D01*
X45411Y253688D01*
X45723Y253868D01*
X46030Y254056D01*
X46333Y254251D01*
X46631Y254454D01*
X46924Y254663D01*
X47212Y254879D01*
X47495Y255103D01*
X47772Y255333D01*
X48043Y255570D01*
X48309Y255813D01*
X48569Y256062D01*
X48822Y256318D01*
X49070Y256580D01*
X49311Y256848D01*
X49545Y257121D01*
X49773Y257400D01*
X49994Y257684D01*
X49880Y257770D01*
X49661Y257488D01*
X49435Y257212D01*
X49203Y256941D01*
X48964Y256676D01*
X48719Y256417D01*
X48468Y256164D01*
X48211Y255917D01*
X47948Y255676D01*
X47679Y255442D01*
X47404Y255214D01*
X47125Y254993D01*
X46839Y254778D01*
X46549Y254571D01*
X46254Y254370D01*
X45954Y254177D01*
X45650Y253991D01*
X45341Y253813D01*
X45028Y253642D01*
X44711Y253479D01*
X44390Y253323D01*
X44065Y253175D01*
X43737Y253035D01*
X43406Y252903D01*
X43071Y252779D01*
X42734Y252663D01*
X42394Y252555D01*
X42051Y252456D01*
X41706Y252365D01*
X41359Y252282D01*
X41011Y252207D01*
X40660Y252141D01*
X40308Y252084D01*
X39955Y252035D01*
X39600Y251994D01*
X39245Y251962D01*
X38889Y251939D01*
X38533Y251924D01*
X38176Y251918D01*
X38176Y252061D01*
X38529Y252067D01*
X38882Y252082D01*
X39235Y252105D01*
X39586Y252137D01*
X39937Y252177D01*
X40287Y252225D01*
X40636Y252282D01*
X40983Y252348D01*
X41328Y252421D01*
X41672Y252503D01*
X42013Y252594D01*
X42353Y252692D01*
X42689Y252799D01*
X43023Y252914D01*
X43355Y253037D01*
X43683Y253167D01*
X44008Y253306D01*
X44329Y253452D01*
X44647Y253606D01*
X44961Y253768D01*
X45271Y253938D01*
X45577Y254114D01*
X45878Y254298D01*
X46175Y254490D01*
X46467Y254688D01*
X46755Y254893D01*
X47037Y255106D01*
X47314Y255325D01*
X47586Y255550D01*
X47852Y255782D01*
X48113Y256021D01*
X48367Y256265D01*
X48616Y256516D01*
X48859Y256773D01*
X49095Y257035D01*
X49325Y257303D01*
X49549Y257577D01*
X49765Y257856D01*
X38024Y282625D02*
X38024Y281253D01*
X38024Y281254D02*
X37670Y281248D01*
X37317Y281233D01*
X36964Y281210D01*
X36612Y281178D01*
X36260Y281137D01*
X35910Y281088D01*
X35561Y281031D01*
X35213Y280965D01*
X34867Y280890D01*
X34523Y280808D01*
X34182Y280717D01*
X33842Y280617D01*
X33505Y280510D01*
X33171Y280394D01*
X32839Y280270D01*
X32511Y280138D01*
X32186Y279998D01*
X31865Y279851D01*
X31547Y279695D01*
X31233Y279532D01*
X30923Y279361D01*
X30618Y279183D01*
X30316Y278998D01*
X30020Y278805D01*
X29728Y278605D01*
X29441Y278398D01*
X29159Y278184D01*
X28883Y277963D01*
X28612Y277736D01*
X28347Y277502D01*
X28087Y277262D01*
X27833Y277016D01*
X27585Y276763D01*
X27344Y276504D01*
X27109Y276240D01*
X26880Y275970D01*
X26658Y275695D01*
X25576Y276537D01*
X25575Y276537D01*
X25818Y276839D01*
X26069Y277135D01*
X26326Y277424D01*
X26590Y277708D01*
X26862Y277984D01*
X27139Y278254D01*
X27424Y278518D01*
X27714Y278774D01*
X28011Y279023D01*
X28314Y279265D01*
X28623Y279499D01*
X28937Y279726D01*
X29256Y279945D01*
X29581Y280156D01*
X29911Y280359D01*
X30246Y280555D01*
X30585Y280742D01*
X30929Y280920D01*
X31277Y281090D01*
X31629Y281252D01*
X31985Y281405D01*
X32345Y281550D01*
X32708Y281685D01*
X33074Y281812D01*
X33443Y281930D01*
X33815Y282039D01*
X34189Y282138D01*
X34566Y282229D01*
X34945Y282310D01*
X35326Y282382D01*
X35708Y282445D01*
X36092Y282499D01*
X36477Y282543D01*
X36863Y282578D01*
X37249Y282603D01*
X37636Y282619D01*
X38024Y282626D01*
X38024Y282483D01*
X37640Y282476D01*
X37256Y282460D01*
X36873Y282435D01*
X36491Y282401D01*
X36109Y282357D01*
X35729Y282304D01*
X35350Y282242D01*
X34973Y282170D01*
X34598Y282089D01*
X34224Y282000D01*
X33853Y281901D01*
X33485Y281793D01*
X33119Y281676D01*
X32756Y281551D01*
X32396Y281416D01*
X32040Y281273D01*
X31687Y281122D01*
X31338Y280961D01*
X30993Y280793D01*
X30653Y280616D01*
X30316Y280430D01*
X29985Y280237D01*
X29658Y280035D01*
X29336Y279826D01*
X29019Y279609D01*
X28708Y279384D01*
X28402Y279152D01*
X28102Y278912D01*
X27808Y278666D01*
X27520Y278412D01*
X27238Y278151D01*
X26963Y277883D01*
X26694Y277609D01*
X26432Y277328D01*
X26177Y277041D01*
X25929Y276748D01*
X25688Y276449D01*
X25801Y276361D01*
X26040Y276658D01*
X26285Y276948D01*
X26538Y277232D01*
X26798Y277511D01*
X27064Y277782D01*
X27337Y278047D01*
X27616Y278306D01*
X27901Y278557D01*
X28193Y278802D01*
X28490Y279039D01*
X28793Y279270D01*
X29102Y279492D01*
X29416Y279707D01*
X29734Y279915D01*
X30058Y280114D01*
X30387Y280306D01*
X30720Y280489D01*
X31058Y280665D01*
X31400Y280832D01*
X31745Y280991D01*
X32095Y281141D01*
X32448Y281283D01*
X32804Y281416D01*
X33164Y281541D01*
X33526Y281656D01*
X33891Y281763D01*
X34259Y281861D01*
X34629Y281950D01*
X35001Y282030D01*
X35375Y282101D01*
X35750Y282162D01*
X36127Y282215D01*
X36505Y282258D01*
X36884Y282293D01*
X37263Y282318D01*
X37644Y282333D01*
X38024Y282340D01*
X38024Y282197D01*
X37647Y282190D01*
X37270Y282175D01*
X36894Y282150D01*
X36519Y282116D01*
X36144Y282073D01*
X35771Y282021D01*
X35399Y281960D01*
X35029Y281890D01*
X34660Y281810D01*
X34294Y281722D01*
X33930Y281625D01*
X33568Y281519D01*
X33209Y281405D01*
X32853Y281282D01*
X32499Y281150D01*
X32150Y281009D01*
X31803Y280860D01*
X31461Y280703D01*
X31122Y280537D01*
X30788Y280363D01*
X30458Y280182D01*
X30132Y279992D01*
X29811Y279794D01*
X29495Y279588D01*
X29184Y279375D01*
X28879Y279155D01*
X28578Y278927D01*
X28284Y278692D01*
X27995Y278449D01*
X27712Y278200D01*
X27436Y277944D01*
X27165Y277681D01*
X26901Y277412D01*
X26644Y277137D01*
X26394Y276855D01*
X26150Y276567D01*
X25914Y276274D01*
X26027Y276186D01*
X26261Y276477D01*
X26502Y276762D01*
X26750Y277041D01*
X27005Y277314D01*
X27267Y277580D01*
X27534Y277841D01*
X27808Y278094D01*
X28089Y278341D01*
X28375Y278581D01*
X28666Y278814D01*
X28964Y279040D01*
X29267Y279259D01*
X29575Y279470D01*
X29888Y279673D01*
X30206Y279869D01*
X30528Y280057D01*
X30855Y280237D01*
X31187Y280410D01*
X31522Y280574D01*
X31861Y280729D01*
X32204Y280877D01*
X32551Y281016D01*
X32901Y281147D01*
X33254Y281269D01*
X33609Y281383D01*
X33968Y281487D01*
X34329Y281584D01*
X34692Y281671D01*
X35057Y281749D01*
X35424Y281819D01*
X35792Y281880D01*
X36162Y281931D01*
X36533Y281974D01*
X36905Y282007D01*
X37277Y282032D01*
X37651Y282047D01*
X38024Y282054D01*
X38024Y281911D01*
X37654Y281904D01*
X37284Y281889D01*
X36915Y281865D01*
X36547Y281832D01*
X36179Y281789D01*
X35813Y281738D01*
X35448Y281678D01*
X35085Y281609D01*
X34723Y281531D01*
X34363Y281445D01*
X34006Y281350D01*
X33651Y281246D01*
X33299Y281133D01*
X32949Y281012D01*
X32603Y280883D01*
X32259Y280745D01*
X31920Y280599D01*
X31583Y280444D01*
X31251Y280282D01*
X30923Y280111D01*
X30599Y279933D01*
X30279Y279746D01*
X29964Y279552D01*
X29654Y279351D01*
X29349Y279142D01*
X29049Y278925D01*
X28755Y278702D01*
X28466Y278471D01*
X28182Y278233D01*
X27905Y277988D01*
X27633Y277737D01*
X27368Y277479D01*
X27109Y277215D01*
X26856Y276945D01*
X26611Y276668D01*
X26372Y276386D01*
X26140Y276098D01*
X26252Y276010D01*
X26482Y276296D01*
X26719Y276575D01*
X26963Y276849D01*
X27213Y277117D01*
X27469Y277378D01*
X27732Y277634D01*
X28001Y277883D01*
X28276Y278125D01*
X28556Y278360D01*
X28843Y278589D01*
X29134Y278811D01*
X29432Y279025D01*
X29734Y279232D01*
X30041Y279432D01*
X30353Y279624D01*
X30669Y279808D01*
X30990Y279985D01*
X31315Y280154D01*
X31645Y280315D01*
X31978Y280468D01*
X32314Y280613D01*
X32654Y280749D01*
X32997Y280878D01*
X33344Y280998D01*
X33693Y281109D01*
X34044Y281212D01*
X34398Y281306D01*
X34754Y281392D01*
X35113Y281469D01*
X35473Y281537D01*
X35834Y281597D01*
X36197Y281647D01*
X36561Y281689D01*
X36926Y281722D01*
X37292Y281746D01*
X37658Y281762D01*
X38024Y281768D01*
X38024Y281625D01*
X37661Y281619D01*
X37299Y281603D01*
X36936Y281580D01*
X36575Y281547D01*
X36215Y281505D01*
X35855Y281455D01*
X35497Y281396D01*
X35141Y281329D01*
X34786Y281252D01*
X34433Y281168D01*
X34082Y281074D01*
X33734Y280972D01*
X33388Y280862D01*
X33046Y280743D01*
X32706Y280616D01*
X32369Y280481D01*
X32036Y280337D01*
X31706Y280186D01*
X31380Y280027D01*
X31058Y279859D01*
X30740Y279684D01*
X30427Y279501D01*
X30118Y279311D01*
X29813Y279113D01*
X29514Y278908D01*
X29220Y278696D01*
X28931Y278476D01*
X28647Y278250D01*
X28369Y278017D01*
X28097Y277777D01*
X27831Y277530D01*
X27570Y277277D01*
X27316Y277018D01*
X27069Y276753D01*
X26828Y276482D01*
X26593Y276205D01*
X26365Y275922D01*
X26478Y275835D01*
X26704Y276115D01*
X26936Y276389D01*
X27175Y276657D01*
X27420Y276920D01*
X27672Y277176D01*
X27929Y277427D01*
X28193Y277671D01*
X28463Y277909D01*
X28738Y278139D01*
X29019Y278364D01*
X29305Y278581D01*
X29597Y278791D01*
X29893Y278994D01*
X30194Y279190D01*
X30500Y279379D01*
X30811Y279560D01*
X31125Y279733D01*
X31444Y279899D01*
X31767Y280057D01*
X32094Y280207D01*
X32424Y280349D01*
X32757Y280483D01*
X33094Y280608D01*
X33433Y280726D01*
X33776Y280835D01*
X34121Y280936D01*
X34468Y281029D01*
X34817Y281113D01*
X35169Y281188D01*
X35522Y281255D01*
X35876Y281314D01*
X36232Y281364D01*
X36589Y281405D01*
X36947Y281437D01*
X37306Y281461D01*
X37665Y281476D01*
X38024Y281482D01*
X38024Y281339D01*
X37668Y281333D01*
X37313Y281318D01*
X36958Y281294D01*
X36603Y281262D01*
X36250Y281222D01*
X35897Y281172D01*
X35546Y281115D01*
X35197Y281048D01*
X34849Y280973D01*
X34503Y280890D01*
X34159Y280798D01*
X33817Y280699D01*
X33478Y280590D01*
X33142Y280474D01*
X32809Y280349D01*
X32479Y280217D01*
X32152Y280076D01*
X31828Y279927D01*
X31509Y279771D01*
X31193Y279607D01*
X30881Y279435D01*
X30574Y279256D01*
X30271Y279070D01*
X29973Y278876D01*
X29679Y278674D01*
X29390Y278466D01*
X29107Y278251D01*
X28829Y278029D01*
X28556Y277800D01*
X28289Y277565D01*
X28028Y277323D01*
X27773Y277076D01*
X27524Y276821D01*
X27281Y276561D01*
X27044Y276296D01*
X26814Y276024D01*
X26591Y275747D01*
X50624Y276537D02*
X49541Y275694D01*
X49542Y275695D02*
X49320Y275970D01*
X49091Y276240D01*
X48856Y276504D01*
X48615Y276763D01*
X48367Y277016D01*
X48113Y277262D01*
X47853Y277502D01*
X47588Y277736D01*
X47317Y277963D01*
X47041Y278184D01*
X46759Y278398D01*
X46472Y278605D01*
X46180Y278805D01*
X45884Y278998D01*
X45582Y279183D01*
X45277Y279361D01*
X44967Y279532D01*
X44653Y279695D01*
X44335Y279851D01*
X44014Y279998D01*
X43689Y280138D01*
X43361Y280270D01*
X43029Y280394D01*
X42695Y280510D01*
X42358Y280617D01*
X42018Y280717D01*
X41677Y280808D01*
X41333Y280890D01*
X40987Y280965D01*
X40639Y281031D01*
X40290Y281088D01*
X39940Y281137D01*
X39588Y281178D01*
X39236Y281210D01*
X38883Y281233D01*
X38530Y281248D01*
X38176Y281254D01*
X38176Y282625D01*
X38176Y282626D01*
X38564Y282619D01*
X38951Y282603D01*
X39337Y282578D01*
X39723Y282543D01*
X40108Y282499D01*
X40492Y282445D01*
X40874Y282382D01*
X41255Y282310D01*
X41634Y282229D01*
X42011Y282138D01*
X42385Y282039D01*
X42757Y281930D01*
X43126Y281812D01*
X43492Y281685D01*
X43855Y281550D01*
X44215Y281405D01*
X44571Y281252D01*
X44923Y281090D01*
X45271Y280920D01*
X45615Y280742D01*
X45954Y280555D01*
X46289Y280359D01*
X46619Y280156D01*
X46944Y279945D01*
X47263Y279726D01*
X47577Y279499D01*
X47886Y279265D01*
X48189Y279023D01*
X48486Y278774D01*
X48776Y278518D01*
X49061Y278254D01*
X49338Y277984D01*
X49610Y277708D01*
X49874Y277424D01*
X50131Y277135D01*
X50382Y276839D01*
X50625Y276537D01*
X50512Y276449D01*
X50271Y276748D01*
X50023Y277041D01*
X49768Y277328D01*
X49506Y277609D01*
X49237Y277883D01*
X48962Y278151D01*
X48680Y278412D01*
X48392Y278666D01*
X48098Y278912D01*
X47798Y279152D01*
X47492Y279384D01*
X47181Y279609D01*
X46864Y279826D01*
X46542Y280035D01*
X46215Y280237D01*
X45884Y280430D01*
X45547Y280616D01*
X45207Y280793D01*
X44862Y280961D01*
X44513Y281122D01*
X44160Y281273D01*
X43804Y281416D01*
X43444Y281551D01*
X43081Y281676D01*
X42715Y281793D01*
X42347Y281901D01*
X41976Y282000D01*
X41602Y282089D01*
X41227Y282170D01*
X40850Y282242D01*
X40471Y282304D01*
X40091Y282357D01*
X39709Y282401D01*
X39327Y282435D01*
X38944Y282460D01*
X38560Y282476D01*
X38176Y282483D01*
X38176Y282340D01*
X38556Y282333D01*
X38937Y282318D01*
X39316Y282293D01*
X39695Y282258D01*
X40073Y282215D01*
X40450Y282162D01*
X40825Y282101D01*
X41199Y282030D01*
X41571Y281950D01*
X41941Y281861D01*
X42309Y281763D01*
X42674Y281656D01*
X43036Y281541D01*
X43396Y281416D01*
X43752Y281283D01*
X44105Y281141D01*
X44455Y280991D01*
X44800Y280832D01*
X45142Y280665D01*
X45480Y280489D01*
X45813Y280306D01*
X46142Y280114D01*
X46466Y279915D01*
X46784Y279707D01*
X47098Y279492D01*
X47407Y279270D01*
X47710Y279039D01*
X48007Y278802D01*
X48299Y278557D01*
X48584Y278306D01*
X48863Y278047D01*
X49136Y277782D01*
X49402Y277511D01*
X49662Y277232D01*
X49915Y276948D01*
X50160Y276658D01*
X50399Y276361D01*
X50286Y276274D01*
X50050Y276567D01*
X49806Y276855D01*
X49556Y277137D01*
X49299Y277412D01*
X49035Y277681D01*
X48764Y277944D01*
X48488Y278200D01*
X48205Y278449D01*
X47916Y278692D01*
X47622Y278927D01*
X47321Y279155D01*
X47016Y279375D01*
X46705Y279588D01*
X46389Y279794D01*
X46068Y279992D01*
X45742Y280182D01*
X45412Y280363D01*
X45078Y280537D01*
X44739Y280703D01*
X44397Y280860D01*
X44050Y281009D01*
X43701Y281150D01*
X43347Y281282D01*
X42991Y281405D01*
X42632Y281519D01*
X42270Y281625D01*
X41906Y281722D01*
X41540Y281810D01*
X41171Y281890D01*
X40801Y281960D01*
X40429Y282021D01*
X40056Y282073D01*
X39681Y282116D01*
X39306Y282150D01*
X38930Y282175D01*
X38553Y282190D01*
X38176Y282197D01*
X38176Y282054D01*
X38549Y282047D01*
X38923Y282032D01*
X39295Y282007D01*
X39667Y281974D01*
X40038Y281931D01*
X40408Y281880D01*
X40776Y281819D01*
X41143Y281749D01*
X41508Y281671D01*
X41871Y281584D01*
X42232Y281487D01*
X42591Y281383D01*
X42946Y281269D01*
X43299Y281147D01*
X43649Y281016D01*
X43996Y280877D01*
X44339Y280729D01*
X44678Y280574D01*
X45013Y280410D01*
X45345Y280237D01*
X45672Y280057D01*
X45994Y279869D01*
X46312Y279673D01*
X46625Y279470D01*
X46933Y279259D01*
X47236Y279040D01*
X47534Y278814D01*
X47825Y278581D01*
X48111Y278341D01*
X48392Y278094D01*
X48666Y277841D01*
X48933Y277580D01*
X49195Y277314D01*
X49450Y277041D01*
X49698Y276762D01*
X49939Y276477D01*
X50173Y276186D01*
X50060Y276098D01*
X49828Y276386D01*
X49589Y276668D01*
X49344Y276945D01*
X49091Y277215D01*
X48832Y277479D01*
X48567Y277737D01*
X48295Y277988D01*
X48018Y278233D01*
X47734Y278471D01*
X47445Y278702D01*
X47151Y278925D01*
X46851Y279142D01*
X46546Y279351D01*
X46236Y279552D01*
X45921Y279746D01*
X45601Y279933D01*
X45277Y280111D01*
X44949Y280282D01*
X44617Y280444D01*
X44280Y280599D01*
X43941Y280745D01*
X43597Y280883D01*
X43251Y281012D01*
X42901Y281133D01*
X42549Y281246D01*
X42194Y281350D01*
X41837Y281445D01*
X41477Y281531D01*
X41115Y281609D01*
X40752Y281678D01*
X40387Y281738D01*
X40021Y281789D01*
X39653Y281832D01*
X39285Y281865D01*
X38916Y281889D01*
X38546Y281904D01*
X38176Y281911D01*
X38176Y281768D01*
X38542Y281762D01*
X38908Y281746D01*
X39274Y281722D01*
X39639Y281689D01*
X40003Y281647D01*
X40366Y281597D01*
X40727Y281537D01*
X41087Y281469D01*
X41446Y281392D01*
X41802Y281306D01*
X42156Y281212D01*
X42507Y281109D01*
X42856Y280998D01*
X43203Y280878D01*
X43546Y280749D01*
X43886Y280613D01*
X44222Y280468D01*
X44555Y280315D01*
X44885Y280154D01*
X45210Y279985D01*
X45531Y279808D01*
X45847Y279624D01*
X46159Y279432D01*
X46466Y279232D01*
X46768Y279025D01*
X47066Y278811D01*
X47357Y278589D01*
X47644Y278360D01*
X47924Y278125D01*
X48199Y277883D01*
X48468Y277634D01*
X48731Y277378D01*
X48987Y277117D01*
X49237Y276849D01*
X49481Y276575D01*
X49718Y276296D01*
X49948Y276010D01*
X49835Y275922D01*
X49607Y276205D01*
X49372Y276482D01*
X49131Y276753D01*
X48884Y277018D01*
X48630Y277277D01*
X48369Y277530D01*
X48103Y277777D01*
X47831Y278017D01*
X47553Y278250D01*
X47269Y278476D01*
X46980Y278696D01*
X46686Y278908D01*
X46387Y279113D01*
X46082Y279311D01*
X45773Y279501D01*
X45460Y279684D01*
X45142Y279859D01*
X44820Y280027D01*
X44494Y280186D01*
X44164Y280337D01*
X43831Y280481D01*
X43494Y280616D01*
X43154Y280743D01*
X42812Y280862D01*
X42466Y280972D01*
X42118Y281074D01*
X41767Y281168D01*
X41414Y281252D01*
X41059Y281329D01*
X40703Y281396D01*
X40345Y281455D01*
X39985Y281505D01*
X39625Y281547D01*
X39264Y281580D01*
X38901Y281603D01*
X38539Y281619D01*
X38176Y281625D01*
X38176Y281482D01*
X38535Y281476D01*
X38894Y281461D01*
X39253Y281437D01*
X39611Y281405D01*
X39968Y281364D01*
X40324Y281314D01*
X40678Y281255D01*
X41031Y281188D01*
X41383Y281113D01*
X41732Y281029D01*
X42079Y280936D01*
X42424Y280835D01*
X42767Y280726D01*
X43106Y280608D01*
X43443Y280483D01*
X43776Y280349D01*
X44106Y280207D01*
X44433Y280057D01*
X44756Y279899D01*
X45075Y279733D01*
X45389Y279560D01*
X45700Y279379D01*
X46006Y279190D01*
X46307Y278994D01*
X46603Y278791D01*
X46895Y278581D01*
X47181Y278364D01*
X47462Y278139D01*
X47737Y277909D01*
X48007Y277671D01*
X48271Y277427D01*
X48528Y277176D01*
X48780Y276920D01*
X49025Y276657D01*
X49264Y276389D01*
X49496Y276115D01*
X49722Y275835D01*
X49609Y275747D01*
X49386Y276024D01*
X49156Y276296D01*
X48919Y276561D01*
X48676Y276821D01*
X48427Y277076D01*
X48172Y277323D01*
X47911Y277565D01*
X47644Y277800D01*
X47371Y278029D01*
X47093Y278251D01*
X46810Y278466D01*
X46521Y278674D01*
X46227Y278876D01*
X45929Y279070D01*
X45626Y279256D01*
X45319Y279435D01*
X45007Y279607D01*
X44691Y279771D01*
X44372Y279927D01*
X44048Y280076D01*
X43721Y280217D01*
X43391Y280349D01*
X43058Y280474D01*
X42722Y280590D01*
X42383Y280699D01*
X42041Y280798D01*
X41697Y280890D01*
X41351Y280973D01*
X41003Y281048D01*
X40654Y281115D01*
X40303Y281172D01*
X39950Y281222D01*
X39597Y281262D01*
X39242Y281294D01*
X38887Y281318D01*
X38532Y281333D01*
X38176Y281339D01*
D13*
X21694Y252862D02*
X23450Y254326D01*
X23450Y254325D02*
X23751Y253978D01*
X24060Y253638D01*
X24377Y253305D01*
X24702Y252980D01*
X25034Y252663D01*
X25374Y252354D01*
X25722Y252053D01*
X26076Y251760D01*
X26438Y251477D01*
X26806Y251202D01*
X27181Y250935D01*
X27562Y250678D01*
X27949Y250430D01*
X28341Y250192D01*
X28740Y249963D01*
X29144Y249743D01*
X29552Y249533D01*
X29966Y249333D01*
X30385Y249143D01*
X30808Y248964D01*
X31235Y248794D01*
X31666Y248635D01*
X32101Y248486D01*
X32539Y248347D01*
X32980Y248219D01*
X33425Y248102D01*
X33872Y247995D01*
X34321Y247899D01*
X34773Y247814D01*
X35226Y247740D01*
X35682Y247676D01*
X36138Y247624D01*
X36596Y247582D01*
X37054Y247552D01*
X37514Y247532D01*
X37973Y247523D01*
X37974Y245238D01*
X37973Y245237D01*
X37458Y245247D01*
X36943Y245268D01*
X36429Y245302D01*
X35916Y245348D01*
X35404Y245407D01*
X34894Y245478D01*
X34385Y245561D01*
X33879Y245656D01*
X33375Y245764D01*
X32874Y245883D01*
X32376Y246014D01*
X31881Y246158D01*
X31390Y246313D01*
X30902Y246480D01*
X30419Y246659D01*
X29940Y246849D01*
X29466Y247050D01*
X28997Y247263D01*
X28533Y247487D01*
X28074Y247722D01*
X27622Y247969D01*
X27175Y248225D01*
X26735Y248493D01*
X26301Y248771D01*
X25874Y249059D01*
X25454Y249358D01*
X25042Y249667D01*
X24636Y249985D01*
X24239Y250313D01*
X23850Y250650D01*
X23469Y250997D01*
X23096Y251353D01*
X22732Y251717D01*
X22377Y252090D01*
X22031Y252472D01*
X21694Y252862D01*
X21878Y253016D01*
X22211Y252630D01*
X22553Y252253D01*
X22905Y251884D01*
X23265Y251524D01*
X23633Y251172D01*
X24010Y250829D01*
X24395Y250496D01*
X24788Y250171D01*
X25188Y249857D01*
X25596Y249552D01*
X26011Y249256D01*
X26433Y248971D01*
X26862Y248696D01*
X27298Y248432D01*
X27739Y248178D01*
X28187Y247935D01*
X28640Y247702D01*
X29098Y247481D01*
X29562Y247270D01*
X30031Y247071D01*
X30505Y246883D01*
X30982Y246706D01*
X31464Y246541D01*
X31950Y246388D01*
X32439Y246246D01*
X32932Y246116D01*
X33427Y245998D01*
X33925Y245892D01*
X34426Y245797D01*
X34929Y245715D01*
X35433Y245645D01*
X35939Y245587D01*
X36447Y245542D01*
X36955Y245508D01*
X37464Y245487D01*
X37973Y245477D01*
X37973Y245717D01*
X37470Y245726D01*
X36967Y245748D01*
X36464Y245781D01*
X35963Y245826D01*
X35462Y245883D01*
X34964Y245953D01*
X34467Y246034D01*
X33972Y246127D01*
X33479Y246232D01*
X32990Y246349D01*
X32503Y246477D01*
X32019Y246617D01*
X31539Y246769D01*
X31063Y246932D01*
X30590Y247107D01*
X30122Y247293D01*
X29659Y247490D01*
X29200Y247698D01*
X28747Y247917D01*
X28299Y248147D01*
X27856Y248387D01*
X27420Y248638D01*
X26990Y248900D01*
X26566Y249172D01*
X26148Y249453D01*
X25738Y249745D01*
X25335Y250047D01*
X24939Y250358D01*
X24550Y250678D01*
X24170Y251008D01*
X23797Y251347D01*
X23433Y251694D01*
X23077Y252051D01*
X22730Y252415D01*
X22392Y252788D01*
X22062Y253169D01*
X22247Y253323D01*
X22572Y252946D01*
X22907Y252578D01*
X23250Y252217D01*
X23602Y251865D01*
X23962Y251522D01*
X24330Y251187D01*
X24706Y250861D01*
X25090Y250544D01*
X25481Y250237D01*
X25880Y249939D01*
X26286Y249650D01*
X26698Y249372D01*
X27117Y249103D01*
X27542Y248845D01*
X27974Y248597D01*
X28411Y248359D01*
X28854Y248132D01*
X29302Y247915D01*
X29755Y247710D01*
X30213Y247515D01*
X30676Y247331D01*
X31143Y247159D01*
X31614Y246997D01*
X32088Y246847D01*
X32566Y246709D01*
X33047Y246582D01*
X33531Y246466D01*
X34018Y246363D01*
X34507Y246270D01*
X34999Y246190D01*
X35491Y246122D01*
X35986Y246065D01*
X36482Y246020D01*
X36978Y245987D01*
X37476Y245966D01*
X37973Y245957D01*
X37973Y246197D01*
X37481Y246206D01*
X36990Y246227D01*
X36499Y246260D01*
X36009Y246304D01*
X35521Y246360D01*
X35033Y246428D01*
X34548Y246507D01*
X34065Y246598D01*
X33584Y246701D01*
X33105Y246815D01*
X32630Y246940D01*
X32157Y247077D01*
X31688Y247225D01*
X31223Y247385D01*
X30762Y247555D01*
X30304Y247737D01*
X29852Y247929D01*
X29404Y248133D01*
X28961Y248346D01*
X28523Y248571D01*
X28091Y248806D01*
X27665Y249051D01*
X27245Y249307D01*
X26830Y249572D01*
X26423Y249847D01*
X26022Y250132D01*
X25628Y250427D01*
X25241Y250731D01*
X24862Y251044D01*
X24490Y251366D01*
X24126Y251697D01*
X23770Y252036D01*
X23423Y252384D01*
X23083Y252740D01*
X22753Y253104D01*
X22431Y253477D01*
X22616Y253630D01*
X22933Y253263D01*
X23260Y252903D01*
X23595Y252551D01*
X23939Y252207D01*
X24290Y251871D01*
X24650Y251545D01*
X25017Y251226D01*
X25392Y250917D01*
X25775Y250617D01*
X26164Y250326D01*
X26560Y250044D01*
X26963Y249772D01*
X27372Y249510D01*
X27787Y249258D01*
X28209Y249015D01*
X28636Y248783D01*
X29068Y248561D01*
X29506Y248350D01*
X29948Y248149D01*
X30396Y247959D01*
X30847Y247779D01*
X31303Y247611D01*
X31763Y247453D01*
X32226Y247307D01*
X32693Y247172D01*
X33163Y247048D01*
X33636Y246935D01*
X34111Y246833D01*
X34589Y246744D01*
X35068Y246665D01*
X35550Y246598D01*
X36033Y246543D01*
X36517Y246499D01*
X37002Y246467D01*
X37487Y246446D01*
X37973Y246437D01*
X37973Y246677D01*
X37493Y246686D01*
X37013Y246707D01*
X36534Y246738D01*
X36056Y246782D01*
X35579Y246836D01*
X35103Y246903D01*
X34629Y246980D01*
X34158Y247069D01*
X33688Y247169D01*
X33221Y247281D01*
X32757Y247403D01*
X32295Y247537D01*
X31838Y247682D01*
X31383Y247837D01*
X30933Y248004D01*
X30487Y248181D01*
X30045Y248369D01*
X29607Y248567D01*
X29175Y248776D01*
X28748Y248995D01*
X28326Y249225D01*
X27910Y249464D01*
X27499Y249713D01*
X27095Y249972D01*
X26697Y250241D01*
X26306Y250519D01*
X25921Y250807D01*
X25543Y251103D01*
X25173Y251409D01*
X24810Y251723D01*
X24455Y252046D01*
X24107Y252378D01*
X23768Y252717D01*
X23437Y253065D01*
X23114Y253421D01*
X22800Y253784D01*
X22984Y253937D01*
X23295Y253579D01*
X23613Y253228D01*
X23941Y252884D01*
X24276Y252549D01*
X24619Y252221D01*
X24970Y251902D01*
X25329Y251592D01*
X25695Y251290D01*
X26068Y250997D01*
X26448Y250713D01*
X26834Y250438D01*
X27227Y250173D01*
X27627Y249917D01*
X28032Y249670D01*
X28443Y249434D01*
X28860Y249207D01*
X29282Y248991D01*
X29709Y248785D01*
X30141Y248589D01*
X30578Y248403D01*
X31019Y248228D01*
X31463Y248063D01*
X31912Y247910D01*
X32364Y247767D01*
X32820Y247635D01*
X33279Y247513D01*
X33740Y247403D01*
X34204Y247304D01*
X34670Y247217D01*
X35138Y247140D01*
X35608Y247075D01*
X36079Y247020D01*
X36552Y246978D01*
X37025Y246946D01*
X37499Y246926D01*
X37973Y246917D01*
X37973Y247157D01*
X37505Y247166D01*
X37037Y247186D01*
X36569Y247217D01*
X36103Y247259D01*
X35637Y247313D01*
X35173Y247377D01*
X34711Y247453D01*
X34250Y247540D01*
X33792Y247638D01*
X33336Y247746D01*
X32884Y247866D01*
X32434Y247997D01*
X31987Y248138D01*
X31544Y248290D01*
X31104Y248452D01*
X30669Y248625D01*
X30238Y248808D01*
X29811Y249002D01*
X29389Y249206D01*
X28972Y249420D01*
X28561Y249643D01*
X28155Y249877D01*
X27754Y250120D01*
X27360Y250373D01*
X26971Y250635D01*
X26590Y250906D01*
X26214Y251187D01*
X25846Y251476D01*
X25484Y251774D01*
X25130Y252081D01*
X24784Y252396D01*
X24444Y252719D01*
X24113Y253051D01*
X23790Y253390D01*
X23475Y253737D01*
X23169Y254091D01*
X23353Y254245D01*
X23656Y253895D01*
X23967Y253552D01*
X24286Y253217D01*
X24613Y252890D01*
X24948Y252571D01*
X25290Y252260D01*
X25640Y251957D01*
X25997Y251663D01*
X26361Y251377D01*
X26731Y251100D01*
X27109Y250832D01*
X27492Y250573D01*
X27882Y250323D01*
X28277Y250083D01*
X28678Y249853D01*
X29085Y249632D01*
X29496Y249421D01*
X29913Y249219D01*
X30334Y249028D01*
X30760Y248847D01*
X31190Y248676D01*
X31624Y248516D01*
X32062Y248366D01*
X32503Y248226D01*
X32947Y248098D01*
X33394Y247979D01*
X33844Y247872D01*
X34297Y247775D01*
X34751Y247690D01*
X35208Y247615D01*
X35666Y247551D01*
X36126Y247498D01*
X36587Y247456D01*
X37048Y247426D01*
X37511Y247406D01*
X37973Y247397D01*
X38226Y245238D02*
X38226Y247524D01*
X38227Y247523D02*
X38692Y247532D01*
X39157Y247552D01*
X39621Y247583D01*
X40084Y247626D01*
X40546Y247680D01*
X41007Y247745D01*
X41466Y247821D01*
X41923Y247908D01*
X42378Y248006D01*
X42830Y248116D01*
X43280Y248236D01*
X43726Y248367D01*
X44169Y248509D01*
X44609Y248662D01*
X45044Y248825D01*
X45476Y248999D01*
X45903Y249183D01*
X46326Y249377D01*
X46744Y249582D01*
X47157Y249797D01*
X47564Y250022D01*
X47966Y250256D01*
X48362Y250500D01*
X48752Y250754D01*
X49136Y251017D01*
X49513Y251290D01*
X49883Y251571D01*
X50247Y251861D01*
X50603Y252160D01*
X50952Y252468D01*
X51294Y252784D01*
X51628Y253108D01*
X51953Y253441D01*
X52271Y253781D01*
X52580Y254128D01*
X52881Y254483D01*
X53173Y254845D01*
X53456Y255215D01*
X53730Y255591D01*
X53995Y255973D01*
X54251Y256362D01*
X54497Y256757D01*
X54733Y257158D01*
X54960Y257564D01*
X56977Y256489D01*
X56977Y256488D01*
X56723Y256033D01*
X56459Y255583D01*
X56183Y255141D01*
X55897Y254705D01*
X55600Y254276D01*
X55294Y253854D01*
X54976Y253440D01*
X54649Y253034D01*
X54312Y252636D01*
X53966Y252247D01*
X53610Y251865D01*
X53245Y251493D01*
X52871Y251130D01*
X52489Y250775D01*
X52098Y250430D01*
X51698Y250095D01*
X51291Y249770D01*
X50876Y249454D01*
X50453Y249149D01*
X50023Y248854D01*
X49586Y248570D01*
X49142Y248296D01*
X48692Y248033D01*
X48235Y247781D01*
X47773Y247541D01*
X47304Y247311D01*
X46831Y247093D01*
X46352Y246887D01*
X45868Y246692D01*
X45380Y246510D01*
X44887Y246339D01*
X44390Y246180D01*
X43890Y246033D01*
X43386Y245898D01*
X42879Y245776D01*
X42370Y245666D01*
X41857Y245569D01*
X41343Y245484D01*
X40826Y245411D01*
X40309Y245351D01*
X39789Y245304D01*
X39269Y245269D01*
X38748Y245247D01*
X38227Y245237D01*
X38227Y245477D01*
X38742Y245487D01*
X39257Y245509D01*
X39772Y245543D01*
X40285Y245590D01*
X40797Y245649D01*
X41308Y245721D01*
X41816Y245805D01*
X42323Y245902D01*
X42827Y246010D01*
X43328Y246131D01*
X43826Y246264D01*
X44321Y246409D01*
X44812Y246567D01*
X45299Y246736D01*
X45781Y246916D01*
X46260Y247109D01*
X46733Y247313D01*
X47202Y247528D01*
X47665Y247755D01*
X48122Y247993D01*
X48573Y248242D01*
X49019Y248502D01*
X49457Y248772D01*
X49890Y249053D01*
X50315Y249345D01*
X50733Y249647D01*
X51143Y249959D01*
X51546Y250281D01*
X51941Y250612D01*
X52327Y250953D01*
X52706Y251303D01*
X53075Y251663D01*
X53436Y252031D01*
X53788Y252408D01*
X54131Y252793D01*
X54464Y253187D01*
X54787Y253588D01*
X55101Y253997D01*
X55404Y254414D01*
X55697Y254838D01*
X55980Y255269D01*
X56253Y255707D01*
X56514Y256151D01*
X56765Y256601D01*
X56554Y256714D01*
X56306Y256269D01*
X56047Y255830D01*
X55778Y255397D01*
X55498Y254971D01*
X55208Y254552D01*
X54908Y254140D01*
X54598Y253736D01*
X54278Y253339D01*
X53949Y252950D01*
X53610Y252569D01*
X53262Y252196D01*
X52906Y251832D01*
X52540Y251477D01*
X52166Y251131D01*
X51784Y250794D01*
X51394Y250466D01*
X50995Y250148D01*
X50590Y249840D01*
X50176Y249541D01*
X49756Y249253D01*
X49329Y248975D01*
X48895Y248707D01*
X48455Y248451D01*
X48009Y248204D01*
X47557Y247969D01*
X47099Y247745D01*
X46636Y247532D01*
X46168Y247330D01*
X45695Y247140D01*
X45218Y246961D01*
X44736Y246794D01*
X44251Y246639D01*
X43762Y246496D01*
X43269Y246364D01*
X42774Y246244D01*
X42276Y246137D01*
X41775Y246042D01*
X41272Y245958D01*
X40768Y245887D01*
X40261Y245829D01*
X39754Y245782D01*
X39245Y245748D01*
X38736Y245727D01*
X38227Y245717D01*
X38227Y245957D01*
X38730Y245967D01*
X39234Y245988D01*
X39736Y246022D01*
X40238Y246068D01*
X40738Y246126D01*
X41237Y246196D01*
X41734Y246278D01*
X42229Y246372D01*
X42721Y246479D01*
X43211Y246597D01*
X43698Y246727D01*
X44181Y246869D01*
X44661Y247022D01*
X45137Y247187D01*
X45609Y247364D01*
X46076Y247552D01*
X46538Y247751D01*
X46996Y247962D01*
X47449Y248184D01*
X47895Y248416D01*
X48337Y248659D01*
X48772Y248913D01*
X49200Y249178D01*
X49623Y249452D01*
X50038Y249737D01*
X50446Y250032D01*
X50848Y250337D01*
X51241Y250651D01*
X51627Y250975D01*
X52005Y251308D01*
X52375Y251651D01*
X52736Y252002D01*
X53088Y252362D01*
X53432Y252730D01*
X53767Y253106D01*
X54092Y253491D01*
X54408Y253883D01*
X54715Y254283D01*
X55011Y254690D01*
X55298Y255104D01*
X55575Y255525D01*
X55841Y255953D01*
X56097Y256387D01*
X56342Y256827D01*
X56130Y256940D01*
X55888Y256505D01*
X55635Y256076D01*
X55372Y255654D01*
X55098Y255237D01*
X54815Y254828D01*
X54522Y254426D01*
X54219Y254031D01*
X53907Y253643D01*
X53585Y253263D01*
X53254Y252891D01*
X52914Y252527D01*
X52566Y252171D01*
X52209Y251824D01*
X51844Y251486D01*
X51470Y251157D01*
X51089Y250837D01*
X50700Y250526D01*
X50303Y250225D01*
X49900Y249934D01*
X49489Y249652D01*
X49072Y249380D01*
X48648Y249119D01*
X48218Y248868D01*
X47782Y248628D01*
X47341Y248398D01*
X46893Y248179D01*
X46441Y247971D01*
X45984Y247774D01*
X45522Y247588D01*
X45056Y247413D01*
X44586Y247250D01*
X44111Y247098D01*
X43634Y246958D01*
X43153Y246830D01*
X42669Y246713D01*
X42182Y246608D01*
X41693Y246514D01*
X41202Y246433D01*
X40709Y246364D01*
X40214Y246306D01*
X39719Y246261D01*
X39222Y246228D01*
X38724Y246207D01*
X38227Y246197D01*
X38227Y246437D01*
X38718Y246446D01*
X39210Y246467D01*
X39701Y246500D01*
X40191Y246545D01*
X40679Y246602D01*
X41167Y246671D01*
X41652Y246751D01*
X42135Y246843D01*
X42616Y246947D01*
X43094Y247062D01*
X43570Y247189D01*
X44042Y247328D01*
X44510Y247478D01*
X44975Y247639D01*
X45436Y247812D01*
X45892Y247996D01*
X46344Y248190D01*
X46791Y248396D01*
X47233Y248612D01*
X47669Y248839D01*
X48100Y249077D01*
X48525Y249325D01*
X48943Y249583D01*
X49356Y249851D01*
X49761Y250130D01*
X50160Y250418D01*
X50552Y250715D01*
X50936Y251022D01*
X51313Y251339D01*
X51682Y251664D01*
X52043Y251998D01*
X52396Y252341D01*
X52741Y252692D01*
X53076Y253052D01*
X53403Y253420D01*
X53721Y253795D01*
X54030Y254178D01*
X54329Y254568D01*
X54619Y254966D01*
X54899Y255371D01*
X55169Y255782D01*
X55429Y256199D01*
X55679Y256623D01*
X55918Y257053D01*
X55706Y257166D01*
X55470Y256741D01*
X55223Y256323D01*
X54966Y255910D01*
X54699Y255504D01*
X54422Y255104D01*
X54136Y254711D01*
X53840Y254326D01*
X53535Y253947D01*
X53221Y253576D01*
X52898Y253213D01*
X52567Y252858D01*
X52226Y252511D01*
X51878Y252172D01*
X51521Y251842D01*
X51156Y251520D01*
X50784Y251208D01*
X50404Y250904D01*
X50017Y250610D01*
X49623Y250326D01*
X49222Y250051D01*
X48815Y249786D01*
X48401Y249531D01*
X47981Y249286D01*
X47556Y249051D01*
X47125Y248827D01*
X46688Y248613D01*
X46246Y248410D01*
X45800Y248217D01*
X45349Y248036D01*
X44894Y247865D01*
X44435Y247706D01*
X43972Y247558D01*
X43506Y247421D01*
X43036Y247295D01*
X42563Y247181D01*
X42088Y247078D01*
X41611Y246987D01*
X41131Y246908D01*
X40650Y246840D01*
X40167Y246784D01*
X39683Y246740D01*
X39198Y246707D01*
X38713Y246686D01*
X38227Y246677D01*
X38227Y246917D01*
X38707Y246926D01*
X39186Y246947D01*
X39665Y246979D01*
X40144Y247023D01*
X40621Y247078D01*
X41096Y247145D01*
X41570Y247224D01*
X42041Y247314D01*
X42511Y247415D01*
X42978Y247528D01*
X43441Y247652D01*
X43902Y247787D01*
X44359Y247934D01*
X44813Y248091D01*
X45263Y248260D01*
X45708Y248439D01*
X46149Y248629D01*
X46585Y248830D01*
X47017Y249041D01*
X47443Y249263D01*
X47863Y249494D01*
X48278Y249736D01*
X48686Y249989D01*
X49089Y250250D01*
X49485Y250522D01*
X49874Y250803D01*
X50257Y251094D01*
X50632Y251393D01*
X51000Y251702D01*
X51360Y252019D01*
X51712Y252346D01*
X52056Y252680D01*
X52393Y253023D01*
X52720Y253374D01*
X53039Y253733D01*
X53350Y254099D01*
X53651Y254473D01*
X53943Y254854D01*
X54226Y255242D01*
X54499Y255637D01*
X54763Y256038D01*
X55017Y256446D01*
X55261Y256859D01*
X55495Y257279D01*
X55283Y257392D01*
X55052Y256978D01*
X54811Y256569D01*
X54560Y256166D01*
X54300Y255770D01*
X54030Y255380D01*
X53750Y254997D01*
X53462Y254621D01*
X53164Y254251D01*
X52858Y253889D01*
X52542Y253535D01*
X52219Y253188D01*
X51887Y252850D01*
X51546Y252519D01*
X51198Y252197D01*
X50843Y251883D01*
X50479Y251579D01*
X50109Y251283D01*
X49731Y250996D01*
X49347Y250718D01*
X48955Y250450D01*
X48558Y250191D01*
X48154Y249942D01*
X47745Y249703D01*
X47329Y249474D01*
X46909Y249255D01*
X46483Y249047D01*
X46052Y248848D01*
X45616Y248661D01*
X45176Y248483D01*
X44732Y248317D01*
X44284Y248162D01*
X43832Y248017D01*
X43377Y247883D01*
X42919Y247761D01*
X42458Y247649D01*
X41995Y247549D01*
X41529Y247460D01*
X41061Y247383D01*
X40591Y247317D01*
X40120Y247262D01*
X39648Y247218D01*
X39175Y247187D01*
X38701Y247166D01*
X38227Y247157D01*
X38227Y247397D01*
X38695Y247406D01*
X39163Y247426D01*
X39630Y247458D01*
X40097Y247501D01*
X40562Y247555D01*
X41026Y247620D01*
X41488Y247697D01*
X41948Y247785D01*
X42406Y247884D01*
X42861Y247994D01*
X43313Y248115D01*
X43763Y248247D01*
X44209Y248389D01*
X44651Y248543D01*
X45090Y248707D01*
X45524Y248882D01*
X45954Y249068D01*
X46380Y249263D01*
X46801Y249470D01*
X47216Y249686D01*
X47626Y249912D01*
X48031Y250148D01*
X48429Y250394D01*
X48822Y250649D01*
X49208Y250914D01*
X49588Y251188D01*
X49961Y251472D01*
X50327Y251764D01*
X50686Y252065D01*
X51037Y252375D01*
X51381Y252693D01*
X51717Y253019D01*
X52045Y253354D01*
X52364Y253696D01*
X52676Y254046D01*
X52979Y254403D01*
X53272Y254768D01*
X53558Y255140D01*
X53833Y255518D01*
X54100Y255903D01*
X54357Y256295D01*
X54605Y256692D01*
X54843Y257096D01*
X55071Y257505D01*
X37974Y288162D02*
X37974Y285876D01*
X37973Y285877D02*
X37505Y285868D01*
X37037Y285847D01*
X36569Y285816D01*
X36102Y285773D01*
X35637Y285718D01*
X35173Y285652D01*
X34711Y285575D01*
X34251Y285487D01*
X33793Y285387D01*
X33337Y285276D01*
X32885Y285154D01*
X32436Y285021D01*
X31990Y284877D01*
X31547Y284723D01*
X31109Y284557D01*
X30675Y284381D01*
X30245Y284194D01*
X29820Y283997D01*
X29400Y283790D01*
X28985Y283572D01*
X28575Y283344D01*
X28171Y283107D01*
X27773Y282859D01*
X27382Y282602D01*
X26996Y282335D01*
X26617Y282059D01*
X26246Y281774D01*
X25881Y281480D01*
X25523Y281177D01*
X25173Y280865D01*
X24831Y280545D01*
X24497Y280217D01*
X24171Y279881D01*
X23853Y279536D01*
X23543Y279184D01*
X21799Y280661D01*
X21798Y280661D01*
X22145Y281056D01*
X22501Y281442D01*
X22866Y281819D01*
X23241Y282188D01*
X23624Y282547D01*
X24017Y282896D01*
X24417Y283236D01*
X24826Y283566D01*
X25243Y283886D01*
X25667Y284195D01*
X26099Y284494D01*
X26538Y284783D01*
X26984Y285060D01*
X27437Y285327D01*
X27896Y285582D01*
X28361Y285826D01*
X28832Y286059D01*
X29309Y286280D01*
X29791Y286489D01*
X30278Y286687D01*
X30769Y286872D01*
X31265Y287046D01*
X31765Y287207D01*
X32269Y287356D01*
X32776Y287492D01*
X33287Y287616D01*
X33800Y287728D01*
X34316Y287827D01*
X34834Y287913D01*
X35354Y287987D01*
X35876Y288047D01*
X36399Y288095D01*
X36923Y288131D01*
X37448Y288153D01*
X37973Y288163D01*
X37973Y287923D01*
X37454Y287913D01*
X36935Y287891D01*
X36417Y287856D01*
X35900Y287809D01*
X35384Y287748D01*
X34870Y287676D01*
X34357Y287590D01*
X33847Y287493D01*
X33340Y287382D01*
X32835Y287260D01*
X32333Y287125D01*
X31835Y286977D01*
X31341Y286818D01*
X30851Y286647D01*
X30365Y286463D01*
X29884Y286268D01*
X29407Y286061D01*
X28936Y285843D01*
X28470Y285613D01*
X28010Y285371D01*
X27557Y285119D01*
X27109Y284855D01*
X26668Y284581D01*
X26234Y284296D01*
X25807Y284000D01*
X25387Y283694D01*
X24975Y283378D01*
X24571Y283052D01*
X24175Y282716D01*
X23787Y282370D01*
X23408Y282015D01*
X23038Y281651D01*
X22676Y281278D01*
X22324Y280896D01*
X21981Y280506D01*
X22165Y280351D01*
X22503Y280737D01*
X22851Y281114D01*
X23209Y281483D01*
X23575Y281843D01*
X23950Y282194D01*
X24333Y282535D01*
X24725Y282867D01*
X25124Y283190D01*
X25531Y283502D01*
X25946Y283805D01*
X26368Y284097D01*
X26798Y284379D01*
X27234Y284650D01*
X27676Y284911D01*
X28125Y285160D01*
X28579Y285399D01*
X29040Y285626D01*
X29505Y285842D01*
X29976Y286047D01*
X30452Y286240D01*
X30933Y286421D01*
X31417Y286590D01*
X31906Y286748D01*
X32398Y286893D01*
X32894Y287027D01*
X33393Y287148D01*
X33895Y287257D01*
X34399Y287354D01*
X34905Y287438D01*
X35414Y287510D01*
X35924Y287570D01*
X36435Y287617D01*
X36947Y287651D01*
X37460Y287673D01*
X37973Y287683D01*
X37973Y287443D01*
X37466Y287433D01*
X36959Y287412D01*
X36453Y287377D01*
X35947Y287331D01*
X35443Y287272D01*
X34941Y287201D01*
X34440Y287118D01*
X33942Y287022D01*
X33446Y286914D01*
X32953Y286794D01*
X32463Y286662D01*
X31976Y286518D01*
X31493Y286363D01*
X31014Y286195D01*
X30539Y286016D01*
X30069Y285825D01*
X29604Y285623D01*
X29143Y285410D01*
X28688Y285185D01*
X28239Y284949D01*
X27795Y284702D01*
X27358Y284445D01*
X26927Y284177D01*
X26503Y283898D01*
X26086Y283610D01*
X25676Y283311D01*
X25273Y283002D01*
X24878Y282683D01*
X24491Y282355D01*
X24112Y282017D01*
X23742Y281670D01*
X23380Y281315D01*
X23027Y280950D01*
X22683Y280577D01*
X22348Y280196D01*
X22531Y280041D01*
X22862Y280418D01*
X23202Y280786D01*
X23551Y281146D01*
X23909Y281498D01*
X24275Y281841D01*
X24649Y282174D01*
X25032Y282499D01*
X25422Y282814D01*
X25820Y283119D01*
X26225Y283414D01*
X26638Y283700D01*
X27057Y283975D01*
X27483Y284240D01*
X27915Y284494D01*
X28353Y284738D01*
X28797Y284971D01*
X29247Y285193D01*
X29702Y285404D01*
X30162Y285604D01*
X30627Y285792D01*
X31096Y285970D01*
X31569Y286135D01*
X32047Y286289D01*
X32528Y286431D01*
X33012Y286562D01*
X33499Y286680D01*
X33989Y286787D01*
X34482Y286881D01*
X34976Y286964D01*
X35473Y287034D01*
X35971Y287092D01*
X36471Y287138D01*
X36971Y287172D01*
X37472Y287193D01*
X37973Y287203D01*
X37973Y286963D01*
X37478Y286953D01*
X36983Y286932D01*
X36488Y286899D01*
X35995Y286853D01*
X35503Y286796D01*
X35012Y286726D01*
X34523Y286645D01*
X34037Y286551D01*
X33552Y286446D01*
X33071Y286329D01*
X32592Y286200D01*
X32117Y286060D01*
X31645Y285907D01*
X31178Y285744D01*
X30714Y285569D01*
X30255Y285383D01*
X29800Y285185D01*
X29351Y284977D01*
X28906Y284757D01*
X28468Y284527D01*
X28034Y284286D01*
X27607Y284035D01*
X27187Y283773D01*
X26772Y283501D01*
X26365Y283219D01*
X25964Y282927D01*
X25571Y282625D01*
X25186Y282314D01*
X24808Y281994D01*
X24438Y281664D01*
X24076Y281326D01*
X23722Y280978D01*
X23377Y280622D01*
X23041Y280258D01*
X22714Y279886D01*
X22897Y279731D01*
X23221Y280099D01*
X23553Y280458D01*
X23893Y280810D01*
X24243Y281153D01*
X24600Y281488D01*
X24966Y281813D01*
X25339Y282130D01*
X25720Y282437D01*
X26109Y282735D01*
X26504Y283024D01*
X26907Y283302D01*
X27316Y283571D01*
X27732Y283830D01*
X28154Y284078D01*
X28582Y284316D01*
X29015Y284543D01*
X29454Y284760D01*
X29899Y284966D01*
X30348Y285161D01*
X30801Y285345D01*
X31259Y285518D01*
X31721Y285680D01*
X32187Y285830D01*
X32657Y285969D01*
X33130Y286096D01*
X33605Y286212D01*
X34084Y286316D01*
X34565Y286408D01*
X35048Y286489D01*
X35532Y286558D01*
X36019Y286615D01*
X36506Y286659D01*
X36995Y286692D01*
X37484Y286714D01*
X37973Y286723D01*
X37973Y286483D01*
X37490Y286474D01*
X37007Y286453D01*
X36524Y286420D01*
X36042Y286376D01*
X35562Y286320D01*
X35083Y286252D01*
X34606Y286172D01*
X34131Y286081D01*
X33659Y285978D01*
X33189Y285864D01*
X32722Y285738D01*
X32258Y285601D01*
X31798Y285452D01*
X31341Y285293D01*
X30889Y285122D01*
X30440Y284940D01*
X29997Y284747D01*
X29558Y284544D01*
X29124Y284330D01*
X28696Y284105D01*
X28273Y283870D01*
X27857Y283625D01*
X27446Y283369D01*
X27042Y283104D01*
X26644Y282828D01*
X26253Y282544D01*
X25869Y282249D01*
X25493Y281946D01*
X25124Y281633D01*
X24763Y281311D01*
X24410Y280981D01*
X24065Y280642D01*
X23728Y280295D01*
X23400Y279939D01*
X23081Y279576D01*
X23264Y279421D01*
X23579Y279780D01*
X23903Y280131D01*
X24236Y280474D01*
X24577Y280808D01*
X24925Y281135D01*
X25282Y281452D01*
X25647Y281761D01*
X26018Y282061D01*
X26397Y282352D01*
X26783Y282633D01*
X27176Y282905D01*
X27576Y283167D01*
X27981Y283419D01*
X28393Y283662D01*
X28810Y283894D01*
X29233Y284116D01*
X29662Y284327D01*
X30095Y284528D01*
X30533Y284719D01*
X30976Y284898D01*
X31423Y285067D01*
X31874Y285225D01*
X32328Y285371D01*
X32786Y285507D01*
X33248Y285631D01*
X33712Y285744D01*
X34179Y285846D01*
X34648Y285936D01*
X35119Y286014D01*
X35592Y286081D01*
X36066Y286137D01*
X36542Y286181D01*
X37019Y286213D01*
X37496Y286234D01*
X37973Y286243D01*
X37973Y286003D01*
X37502Y285994D01*
X37030Y285973D01*
X36560Y285941D01*
X36090Y285898D01*
X35621Y285843D01*
X35154Y285777D01*
X34689Y285699D01*
X34226Y285610D01*
X33765Y285510D01*
X33307Y285398D01*
X32851Y285276D01*
X32399Y285142D01*
X31950Y284997D01*
X31504Y284841D01*
X31063Y284675D01*
X30626Y284497D01*
X30193Y284309D01*
X29765Y284111D01*
X29342Y283902D01*
X28925Y283683D01*
X28512Y283454D01*
X28106Y283214D01*
X27705Y282965D01*
X27311Y282706D01*
X26923Y282438D01*
X26542Y282160D01*
X26167Y281873D01*
X25800Y281577D01*
X25440Y281272D01*
X25088Y280958D01*
X24743Y280636D01*
X24407Y280305D01*
X24079Y279967D01*
X23759Y279620D01*
X23447Y279266D01*
X56672Y277459D02*
X54687Y276324D01*
X54688Y276325D02*
X54450Y276723D01*
X54204Y277115D01*
X53947Y277500D01*
X53682Y277880D01*
X53408Y278253D01*
X53124Y278619D01*
X52832Y278978D01*
X52531Y279330D01*
X52222Y279675D01*
X51905Y280012D01*
X51579Y280342D01*
X51246Y280663D01*
X50905Y280977D01*
X50556Y281282D01*
X50201Y281578D01*
X49838Y281866D01*
X49468Y282145D01*
X49092Y282415D01*
X48709Y282676D01*
X48320Y282927D01*
X47926Y283169D01*
X47525Y283402D01*
X47119Y283624D01*
X46708Y283837D01*
X46291Y284040D01*
X45870Y284233D01*
X45445Y284415D01*
X45015Y284587D01*
X44581Y284749D01*
X44143Y284900D01*
X43702Y285041D01*
X43257Y285171D01*
X42810Y285290D01*
X42360Y285398D01*
X41907Y285496D01*
X41452Y285582D01*
X40995Y285657D01*
X40536Y285722D01*
X40076Y285775D01*
X39615Y285817D01*
X39153Y285848D01*
X38690Y285868D01*
X38227Y285877D01*
X38227Y288162D01*
X38227Y288163D01*
X38746Y288153D01*
X39265Y288131D01*
X39783Y288097D01*
X40300Y288050D01*
X40815Y287991D01*
X41329Y287919D01*
X41841Y287835D01*
X42351Y287738D01*
X42859Y287629D01*
X43363Y287508D01*
X43865Y287375D01*
X44363Y287229D01*
X44858Y287072D01*
X45348Y286902D01*
X45835Y286721D01*
X46317Y286528D01*
X46794Y286324D01*
X47265Y286108D01*
X47732Y285881D01*
X48193Y285642D01*
X48648Y285393D01*
X49097Y285132D01*
X49539Y284861D01*
X49975Y284579D01*
X50404Y284287D01*
X50826Y283984D01*
X51240Y283671D01*
X51646Y283349D01*
X52045Y283016D01*
X52436Y282674D01*
X52818Y282323D01*
X53191Y281963D01*
X53556Y281593D01*
X53911Y281215D01*
X54258Y280829D01*
X54595Y280434D01*
X54922Y280031D01*
X55239Y279621D01*
X55547Y279202D01*
X55844Y278777D01*
X56131Y278344D01*
X56407Y277905D01*
X56672Y277459D01*
X56464Y277340D01*
X56202Y277781D01*
X55928Y278215D01*
X55645Y278643D01*
X55351Y279064D01*
X55047Y279477D01*
X54733Y279883D01*
X54409Y280281D01*
X54076Y280672D01*
X53734Y281054D01*
X53382Y281427D01*
X53022Y281793D01*
X52653Y282149D01*
X52275Y282496D01*
X51889Y282834D01*
X51495Y283163D01*
X51093Y283482D01*
X50683Y283791D01*
X50266Y284090D01*
X49842Y284379D01*
X49411Y284658D01*
X48974Y284926D01*
X48530Y285184D01*
X48080Y285430D01*
X47625Y285666D01*
X47163Y285891D01*
X46697Y286104D01*
X46225Y286307D01*
X45749Y286497D01*
X45268Y286676D01*
X44783Y286844D01*
X44294Y286999D01*
X43801Y287143D01*
X43305Y287275D01*
X42806Y287395D01*
X42305Y287503D01*
X41800Y287598D01*
X41294Y287681D01*
X40786Y287752D01*
X40276Y287811D01*
X39765Y287858D01*
X39253Y287892D01*
X38740Y287913D01*
X38227Y287923D01*
X38227Y287683D01*
X38735Y287673D01*
X39241Y287652D01*
X39748Y287618D01*
X40253Y287572D01*
X40757Y287514D01*
X41259Y287444D01*
X41760Y287362D01*
X42258Y287267D01*
X42754Y287161D01*
X43247Y287042D01*
X43737Y286912D01*
X44224Y286770D01*
X44708Y286616D01*
X45187Y286450D01*
X45663Y286273D01*
X46133Y286085D01*
X46600Y285885D01*
X47061Y285674D01*
X47517Y285452D01*
X47968Y285219D01*
X48412Y284975D01*
X48851Y284720D01*
X49284Y284455D01*
X49709Y284179D01*
X50129Y283894D01*
X50541Y283598D01*
X50946Y283292D01*
X51343Y282977D01*
X51732Y282652D01*
X52114Y282318D01*
X52488Y281975D01*
X52853Y281622D01*
X53209Y281261D01*
X53557Y280892D01*
X53895Y280514D01*
X54224Y280128D01*
X54544Y279735D01*
X54855Y279333D01*
X55155Y278925D01*
X55446Y278509D01*
X55726Y278086D01*
X55996Y277657D01*
X56256Y277221D01*
X56047Y277102D01*
X55791Y277533D01*
X55524Y277957D01*
X55247Y278375D01*
X54959Y278786D01*
X54662Y279190D01*
X54356Y279586D01*
X54039Y279976D01*
X53714Y280357D01*
X53379Y280730D01*
X53036Y281095D01*
X52683Y281452D01*
X52323Y281800D01*
X51953Y282140D01*
X51576Y282470D01*
X51191Y282791D01*
X50798Y283103D01*
X50398Y283405D01*
X49991Y283697D01*
X49577Y283980D01*
X49156Y284252D01*
X48728Y284514D01*
X48294Y284766D01*
X47855Y285007D01*
X47409Y285237D01*
X46959Y285457D01*
X46503Y285665D01*
X46042Y285863D01*
X45576Y286049D01*
X45107Y286224D01*
X44633Y286388D01*
X44155Y286540D01*
X43674Y286680D01*
X43189Y286809D01*
X42701Y286926D01*
X42211Y287032D01*
X41719Y287125D01*
X41224Y287207D01*
X40727Y287276D01*
X40229Y287334D01*
X39730Y287379D01*
X39230Y287412D01*
X38729Y287433D01*
X38227Y287443D01*
X38227Y287203D01*
X38723Y287194D01*
X39218Y287173D01*
X39712Y287140D01*
X40206Y287095D01*
X40698Y287038D01*
X41189Y286969D01*
X41678Y286889D01*
X42165Y286796D01*
X42649Y286692D01*
X43131Y286576D01*
X43610Y286449D01*
X44085Y286310D01*
X44558Y286160D01*
X45026Y285998D01*
X45490Y285825D01*
X45950Y285641D01*
X46406Y285446D01*
X46856Y285240D01*
X47302Y285023D01*
X47742Y284795D01*
X48176Y284557D01*
X48605Y284308D01*
X49028Y284049D01*
X49444Y283780D01*
X49853Y283501D01*
X50256Y283212D01*
X50651Y282913D01*
X51039Y282605D01*
X51420Y282288D01*
X51793Y281961D01*
X52157Y281626D01*
X52514Y281282D01*
X52862Y280929D01*
X53202Y280569D01*
X53533Y280200D01*
X53854Y279823D01*
X54167Y279438D01*
X54470Y279046D01*
X54764Y278647D01*
X55047Y278241D01*
X55321Y277828D01*
X55585Y277409D01*
X55839Y276983D01*
X55631Y276864D01*
X55380Y277284D01*
X55119Y277699D01*
X54848Y278107D01*
X54568Y278508D01*
X54278Y278903D01*
X53978Y279290D01*
X53669Y279670D01*
X53351Y280042D01*
X53025Y280407D01*
X52689Y280763D01*
X52345Y281112D01*
X51992Y281452D01*
X51632Y281783D01*
X51264Y282106D01*
X50887Y282419D01*
X50504Y282724D01*
X50113Y283019D01*
X49715Y283304D01*
X49311Y283580D01*
X48900Y283846D01*
X48482Y284102D01*
X48059Y284348D01*
X47629Y284583D01*
X47194Y284808D01*
X46754Y285022D01*
X46309Y285226D01*
X45859Y285419D01*
X45404Y285601D01*
X44945Y285772D01*
X44483Y285932D01*
X44016Y286080D01*
X43546Y286218D01*
X43073Y286344D01*
X42597Y286458D01*
X42118Y286561D01*
X41637Y286652D01*
X41154Y286732D01*
X40669Y286800D01*
X40182Y286856D01*
X39695Y286900D01*
X39206Y286933D01*
X38717Y286954D01*
X38227Y286963D01*
X38227Y286723D01*
X38711Y286714D01*
X39194Y286693D01*
X39677Y286661D01*
X40159Y286617D01*
X40640Y286561D01*
X41119Y286494D01*
X41596Y286416D01*
X42071Y286325D01*
X42544Y286224D01*
X43015Y286111D01*
X43482Y285986D01*
X43947Y285851D01*
X44408Y285704D01*
X44865Y285546D01*
X45318Y285377D01*
X45767Y285197D01*
X46212Y285007D01*
X46652Y284805D01*
X47087Y284593D01*
X47516Y284371D01*
X47941Y284139D01*
X48359Y283896D01*
X48772Y283643D01*
X49178Y283380D01*
X49578Y283108D01*
X49971Y282826D01*
X50357Y282534D01*
X50736Y282233D01*
X51107Y281924D01*
X51471Y281605D01*
X51827Y281278D01*
X52176Y280942D01*
X52516Y280597D01*
X52847Y280245D01*
X53170Y279885D01*
X53484Y279517D01*
X53789Y279142D01*
X54085Y278759D01*
X54372Y278369D01*
X54649Y277973D01*
X54917Y277570D01*
X55174Y277160D01*
X55422Y276745D01*
X55214Y276626D01*
X54969Y277036D01*
X54714Y277441D01*
X54450Y277839D01*
X54176Y278230D01*
X53893Y278615D01*
X53601Y278993D01*
X53299Y279364D01*
X52989Y279728D01*
X52670Y280083D01*
X52342Y280431D01*
X52006Y280771D01*
X51662Y281103D01*
X51311Y281427D01*
X50951Y281741D01*
X50584Y282047D01*
X50209Y282345D01*
X49828Y282632D01*
X49440Y282911D01*
X49045Y283180D01*
X48644Y283440D01*
X48236Y283690D01*
X47823Y283929D01*
X47404Y284159D01*
X46979Y284379D01*
X46550Y284588D01*
X46115Y284787D01*
X45676Y284975D01*
X45232Y285153D01*
X44784Y285320D01*
X44333Y285476D01*
X43877Y285621D01*
X43418Y285755D01*
X42957Y285878D01*
X42492Y285990D01*
X42025Y286090D01*
X41555Y286179D01*
X41084Y286257D01*
X40610Y286323D01*
X40136Y286378D01*
X39660Y286422D01*
X39183Y286453D01*
X38705Y286474D01*
X38227Y286483D01*
X38227Y286243D01*
X38699Y286234D01*
X39171Y286214D01*
X39642Y286182D01*
X40112Y286139D01*
X40581Y286085D01*
X41049Y286019D01*
X41514Y285943D01*
X41978Y285855D01*
X42440Y285755D01*
X42898Y285645D01*
X43355Y285524D01*
X43808Y285391D01*
X44258Y285248D01*
X44704Y285094D01*
X45146Y284929D01*
X45584Y284754D01*
X46018Y284568D01*
X46447Y284371D01*
X46872Y284164D01*
X47291Y283947D01*
X47705Y283720D01*
X48113Y283484D01*
X48516Y283237D01*
X48912Y282980D01*
X49302Y282715D01*
X49686Y282439D01*
X50062Y282155D01*
X50432Y281862D01*
X50795Y281559D01*
X51150Y281248D01*
X51497Y280929D01*
X51837Y280601D01*
X52169Y280265D01*
X52492Y279922D01*
X52808Y279570D01*
X53114Y279211D01*
X53412Y278845D01*
X53701Y278472D01*
X53981Y278092D01*
X54251Y277705D01*
X54512Y277311D01*
X54764Y276912D01*
X55005Y276507D01*
X54797Y276387D01*
X54558Y276788D01*
X54310Y277182D01*
X54052Y277571D01*
X53785Y277953D01*
X53509Y278328D01*
X53223Y278697D01*
X52929Y279059D01*
X52626Y279413D01*
X52315Y279760D01*
X51996Y280099D01*
X51668Y280431D01*
X51332Y280755D01*
X50989Y281070D01*
X50638Y281377D01*
X50280Y281676D01*
X49915Y281965D01*
X49543Y282246D01*
X49164Y282518D01*
X48779Y282781D01*
X48388Y283034D01*
X47990Y283277D01*
X47587Y283511D01*
X47178Y283736D01*
X46764Y283950D01*
X46345Y284154D01*
X45921Y284348D01*
X45493Y284532D01*
X45060Y284705D01*
X44623Y284868D01*
X44183Y285020D01*
X43738Y285161D01*
X43291Y285292D01*
X42840Y285412D01*
X42387Y285521D01*
X41931Y285619D01*
X41473Y285706D01*
X41013Y285782D01*
X40552Y285847D01*
X40089Y285900D01*
X39624Y285943D01*
X39159Y285974D01*
X38694Y285994D01*
X38227Y286003D01*
D11*
X56642Y249428D02*
X64008Y249428D01*
X60452Y245618D02*
X60452Y253492D01*
X-19533Y250825D02*
X-19533Y262255D01*
X-19533Y250825D02*
X-14453Y250825D01*
X-9627Y250825D02*
X-4547Y250825D01*
X-9627Y250825D02*
X-9627Y262255D01*
X-4547Y262255D01*
X-5817Y257175D02*
X-9627Y257175D01*
X254Y262255D02*
X254Y250825D01*
X254Y262255D02*
X3429Y262255D01*
X3540Y262253D01*
X3650Y262247D01*
X3761Y262238D01*
X3871Y262224D01*
X3980Y262207D01*
X4089Y262186D01*
X4197Y262161D01*
X4304Y262132D01*
X4410Y262100D01*
X4515Y262064D01*
X4618Y262024D01*
X4720Y261981D01*
X4821Y261934D01*
X4920Y261883D01*
X5016Y261830D01*
X5111Y261773D01*
X5204Y261712D01*
X5295Y261649D01*
X5384Y261582D01*
X5470Y261512D01*
X5553Y261439D01*
X5635Y261364D01*
X5713Y261286D01*
X5788Y261204D01*
X5861Y261121D01*
X5931Y261035D01*
X5998Y260946D01*
X6061Y260855D01*
X6122Y260762D01*
X6179Y260668D01*
X6232Y260571D01*
X6283Y260472D01*
X6330Y260371D01*
X6373Y260269D01*
X6413Y260166D01*
X6449Y260061D01*
X6481Y259955D01*
X6510Y259848D01*
X6535Y259740D01*
X6556Y259631D01*
X6573Y259522D01*
X6587Y259412D01*
X6596Y259301D01*
X6602Y259191D01*
X6604Y259080D01*
X6604Y254000D01*
X6602Y253889D01*
X6596Y253779D01*
X6587Y253668D01*
X6573Y253558D01*
X6556Y253449D01*
X6535Y253340D01*
X6510Y253232D01*
X6481Y253125D01*
X6449Y253019D01*
X6413Y252914D01*
X6373Y252811D01*
X6330Y252709D01*
X6283Y252608D01*
X6232Y252509D01*
X6179Y252412D01*
X6122Y252318D01*
X6061Y252225D01*
X5998Y252134D01*
X5931Y252045D01*
X5861Y251959D01*
X5788Y251876D01*
X5713Y251794D01*
X5635Y251716D01*
X5553Y251641D01*
X5470Y251568D01*
X5384Y251498D01*
X5295Y251431D01*
X5204Y251368D01*
X5111Y251307D01*
X5016Y251250D01*
X4920Y251197D01*
X4821Y251146D01*
X4720Y251099D01*
X4618Y251056D01*
X4515Y251016D01*
X4410Y250980D01*
X4304Y250948D01*
X4197Y250919D01*
X4089Y250894D01*
X3980Y250873D01*
X3871Y250856D01*
X3761Y250842D01*
X3650Y250833D01*
X3540Y250827D01*
X3429Y250825D01*
X254Y250825D01*
X12065Y259715D02*
X15240Y262255D01*
X15240Y250825D01*
X12065Y250825D02*
X18415Y250825D01*
D12*
X25185Y155782D02*
X26302Y156579D01*
X26301Y156579D02*
X26510Y156297D01*
X26726Y156020D01*
X26948Y155749D01*
X27176Y155483D01*
X27411Y155222D01*
X27652Y154967D01*
X27900Y154719D01*
X28153Y154476D01*
X28412Y154239D01*
X28676Y154009D01*
X28947Y153785D01*
X29222Y153568D01*
X29502Y153357D01*
X29788Y153153D01*
X30078Y152956D01*
X30373Y152766D01*
X30673Y152584D01*
X30977Y152408D01*
X31285Y152240D01*
X31597Y152080D01*
X31912Y151927D01*
X32232Y151782D01*
X32554Y151644D01*
X32880Y151514D01*
X33209Y151392D01*
X33541Y151278D01*
X33876Y151173D01*
X34212Y151075D01*
X34552Y150985D01*
X34893Y150904D01*
X35236Y150831D01*
X35581Y150766D01*
X35927Y150709D01*
X36274Y150661D01*
X36623Y150621D01*
X36972Y150590D01*
X37322Y150567D01*
X37673Y150552D01*
X38024Y150546D01*
X38024Y149175D01*
X38024Y149174D01*
X37639Y149181D01*
X37256Y149196D01*
X36872Y149221D01*
X36489Y149256D01*
X36108Y149299D01*
X35727Y149352D01*
X35348Y149414D01*
X34970Y149485D01*
X34594Y149565D01*
X34220Y149654D01*
X33849Y149752D01*
X33480Y149859D01*
X33114Y149975D01*
X32750Y150099D01*
X32390Y150233D01*
X32033Y150375D01*
X31679Y150526D01*
X31330Y150685D01*
X30984Y150852D01*
X30642Y151028D01*
X30305Y151212D01*
X29972Y151404D01*
X29644Y151604D01*
X29321Y151812D01*
X29003Y152028D01*
X28690Y152251D01*
X28383Y152482D01*
X28081Y152720D01*
X27785Y152965D01*
X27496Y153218D01*
X27212Y153477D01*
X26935Y153743D01*
X26664Y154016D01*
X26400Y154295D01*
X26143Y154580D01*
X25892Y154872D01*
X25649Y155169D01*
X25413Y155473D01*
X25185Y155782D01*
X25301Y155865D01*
X25528Y155559D01*
X25761Y155258D01*
X26002Y154963D01*
X26251Y154674D01*
X26505Y154392D01*
X26767Y154115D01*
X27035Y153845D01*
X27310Y153581D01*
X27591Y153324D01*
X27878Y153074D01*
X28171Y152831D01*
X28470Y152595D01*
X28775Y152366D01*
X29085Y152145D01*
X29400Y151932D01*
X29720Y151725D01*
X30045Y151527D01*
X30375Y151337D01*
X30709Y151155D01*
X31048Y150980D01*
X31390Y150814D01*
X31737Y150657D01*
X32087Y150507D01*
X32441Y150366D01*
X32798Y150234D01*
X33158Y150111D01*
X33521Y149996D01*
X33887Y149890D01*
X34255Y149793D01*
X34625Y149704D01*
X34998Y149625D01*
X35372Y149555D01*
X35748Y149493D01*
X36125Y149441D01*
X36503Y149398D01*
X36883Y149364D01*
X37262Y149339D01*
X37643Y149324D01*
X38024Y149317D01*
X38024Y149460D01*
X37646Y149467D01*
X37269Y149482D01*
X36893Y149507D01*
X36517Y149540D01*
X36142Y149583D01*
X35769Y149635D01*
X35396Y149695D01*
X35025Y149765D01*
X34656Y149844D01*
X34289Y149931D01*
X33925Y150028D01*
X33562Y150133D01*
X33203Y150247D01*
X32846Y150369D01*
X32492Y150500D01*
X32141Y150640D01*
X31794Y150787D01*
X31451Y150944D01*
X31111Y151108D01*
X30776Y151281D01*
X30445Y151462D01*
X30118Y151650D01*
X29796Y151847D01*
X29479Y152051D01*
X29166Y152263D01*
X28859Y152482D01*
X28558Y152708D01*
X28262Y152942D01*
X27971Y153183D01*
X27687Y153431D01*
X27408Y153685D01*
X27136Y153946D01*
X26870Y154214D01*
X26611Y154488D01*
X26358Y154768D01*
X26112Y155055D01*
X25874Y155347D01*
X25642Y155645D01*
X25417Y155948D01*
X25534Y156031D01*
X25756Y155730D01*
X25986Y155435D01*
X26222Y155146D01*
X26466Y154863D01*
X26716Y154585D01*
X26973Y154313D01*
X27237Y154048D01*
X27506Y153789D01*
X27782Y153537D01*
X28064Y153292D01*
X28352Y153053D01*
X28645Y152821D01*
X28944Y152597D01*
X29248Y152380D01*
X29558Y152170D01*
X29872Y151968D01*
X30191Y151773D01*
X30515Y151586D01*
X30843Y151407D01*
X31175Y151236D01*
X31512Y151073D01*
X31852Y150918D01*
X32196Y150772D01*
X32543Y150634D01*
X32894Y150504D01*
X33247Y150382D01*
X33604Y150270D01*
X33963Y150166D01*
X34324Y150070D01*
X34688Y149983D01*
X35053Y149905D01*
X35421Y149836D01*
X35789Y149776D01*
X36160Y149725D01*
X36531Y149683D01*
X36903Y149649D01*
X37276Y149625D01*
X37650Y149610D01*
X38024Y149603D01*
X38024Y149746D01*
X37653Y149752D01*
X37283Y149768D01*
X36914Y149792D01*
X36545Y149825D01*
X36177Y149867D01*
X35810Y149918D01*
X35445Y149977D01*
X35081Y150046D01*
X34719Y150123D01*
X34359Y150209D01*
X34000Y150303D01*
X33645Y150407D01*
X33292Y150518D01*
X32942Y150638D01*
X32594Y150767D01*
X32250Y150904D01*
X31910Y151049D01*
X31572Y151203D01*
X31239Y151364D01*
X30910Y151534D01*
X30585Y151711D01*
X30264Y151896D01*
X29948Y152089D01*
X29637Y152289D01*
X29330Y152497D01*
X29029Y152712D01*
X28733Y152935D01*
X28442Y153164D01*
X28157Y153400D01*
X27878Y153644D01*
X27604Y153893D01*
X27337Y154150D01*
X27076Y154413D01*
X26822Y154682D01*
X26574Y154957D01*
X26332Y155237D01*
X26098Y155524D01*
X25871Y155816D01*
X25650Y156114D01*
X25767Y156197D01*
X25985Y155902D01*
X26210Y155613D01*
X26442Y155329D01*
X26681Y155051D01*
X26927Y154778D01*
X27179Y154512D01*
X27438Y154251D01*
X27702Y153998D01*
X27973Y153750D01*
X28250Y153509D01*
X28532Y153275D01*
X28820Y153048D01*
X29113Y152827D01*
X29412Y152614D01*
X29716Y152408D01*
X30024Y152210D01*
X30337Y152019D01*
X30655Y151836D01*
X30977Y151660D01*
X31303Y151492D01*
X31633Y151332D01*
X31967Y151180D01*
X32305Y151036D01*
X32645Y150901D01*
X32989Y150773D01*
X33336Y150654D01*
X33686Y150543D01*
X34038Y150441D01*
X34393Y150348D01*
X34750Y150263D01*
X35109Y150186D01*
X35469Y150118D01*
X35831Y150059D01*
X36195Y150009D01*
X36559Y149967D01*
X36924Y149935D01*
X37290Y149911D01*
X37657Y149895D01*
X38024Y149889D01*
X38024Y150032D01*
X37660Y150038D01*
X37297Y150053D01*
X36935Y150077D01*
X36573Y150110D01*
X36212Y150151D01*
X35852Y150201D01*
X35493Y150259D01*
X35136Y150326D01*
X34781Y150402D01*
X34428Y150486D01*
X34076Y150579D01*
X33727Y150680D01*
X33381Y150790D01*
X33037Y150908D01*
X32697Y151034D01*
X32359Y151169D01*
X32025Y151311D01*
X31694Y151462D01*
X31367Y151620D01*
X31044Y151786D01*
X30725Y151960D01*
X30410Y152142D01*
X30100Y152331D01*
X29795Y152528D01*
X29494Y152732D01*
X29198Y152943D01*
X28908Y153161D01*
X28622Y153386D01*
X28343Y153618D01*
X28069Y153856D01*
X27800Y154102D01*
X27538Y154353D01*
X27282Y154611D01*
X27032Y154875D01*
X26789Y155145D01*
X26552Y155420D01*
X26322Y155702D01*
X26099Y155988D01*
X25883Y156280D01*
X25999Y156363D01*
X26213Y156074D01*
X26435Y155790D01*
X26662Y155512D01*
X26897Y155239D01*
X27138Y154971D01*
X27385Y154710D01*
X27639Y154455D01*
X27899Y154206D01*
X28164Y153963D01*
X28436Y153727D01*
X28713Y153497D01*
X28995Y153274D01*
X29283Y153058D01*
X29576Y152849D01*
X29873Y152647D01*
X30176Y152452D01*
X30483Y152265D01*
X30795Y152085D01*
X31111Y151913D01*
X31431Y151748D01*
X31755Y151591D01*
X32082Y151442D01*
X32413Y151301D01*
X32748Y151168D01*
X33085Y151043D01*
X33425Y150926D01*
X33769Y150817D01*
X34114Y150717D01*
X34462Y150625D01*
X34812Y150542D01*
X35164Y150467D01*
X35518Y150400D01*
X35873Y150342D01*
X36229Y150293D01*
X36587Y150252D01*
X36945Y150220D01*
X37304Y150196D01*
X37664Y150181D01*
X38024Y150175D01*
X38024Y150318D01*
X37667Y150324D01*
X37311Y150339D01*
X36956Y150362D01*
X36601Y150394D01*
X36247Y150435D01*
X35894Y150484D01*
X35542Y150541D01*
X35192Y150607D01*
X34843Y150681D01*
X34497Y150764D01*
X34152Y150855D01*
X33810Y150954D01*
X33470Y151062D01*
X33133Y151178D01*
X32799Y151301D01*
X32468Y151433D01*
X32140Y151573D01*
X31815Y151720D01*
X31495Y151876D01*
X31178Y152039D01*
X30865Y152210D01*
X30556Y152388D01*
X30252Y152573D01*
X29952Y152766D01*
X29657Y152966D01*
X29367Y153173D01*
X29082Y153387D01*
X28803Y153608D01*
X28528Y153835D01*
X28260Y154069D01*
X27997Y154310D01*
X27739Y154556D01*
X27488Y154809D01*
X27243Y155068D01*
X27005Y155333D01*
X26772Y155603D01*
X26547Y155879D01*
X26328Y156160D01*
X26116Y156446D01*
X26232Y156530D01*
X26442Y156246D01*
X26659Y155968D01*
X26882Y155694D01*
X27112Y155427D01*
X27349Y155165D01*
X27591Y154909D01*
X27840Y154658D01*
X28095Y154414D01*
X28355Y154176D01*
X28621Y153944D01*
X28893Y153719D01*
X29170Y153500D01*
X29452Y153288D01*
X29739Y153083D01*
X30031Y152885D01*
X30328Y152694D01*
X30629Y152511D01*
X30935Y152334D01*
X31245Y152165D01*
X31559Y152004D01*
X31876Y151850D01*
X32197Y151704D01*
X32522Y151565D01*
X32850Y151435D01*
X33181Y151312D01*
X33515Y151198D01*
X33851Y151091D01*
X34190Y150993D01*
X34531Y150903D01*
X34874Y150821D01*
X35219Y150747D01*
X35566Y150682D01*
X35915Y150625D01*
X36264Y150577D01*
X36615Y150537D01*
X36966Y150505D01*
X37318Y150482D01*
X37671Y150467D01*
X38024Y150461D01*
X38175Y149175D02*
X38175Y150547D01*
X38176Y150546D02*
X38527Y150552D01*
X38878Y150567D01*
X39228Y150590D01*
X39578Y150621D01*
X39927Y150661D01*
X40275Y150709D01*
X40621Y150766D01*
X40966Y150831D01*
X41310Y150904D01*
X41651Y150986D01*
X41991Y151076D01*
X42328Y151174D01*
X42663Y151280D01*
X42995Y151394D01*
X43324Y151516D01*
X43650Y151646D01*
X43973Y151784D01*
X44293Y151929D01*
X44609Y152083D01*
X44921Y152243D01*
X45229Y152412D01*
X45533Y152587D01*
X45833Y152770D01*
X46128Y152960D01*
X46419Y153158D01*
X46704Y153362D01*
X46985Y153573D01*
X47260Y153791D01*
X47531Y154015D01*
X47795Y154246D01*
X48054Y154483D01*
X48308Y154726D01*
X48555Y154975D01*
X48796Y155230D01*
X49031Y155491D01*
X49260Y155758D01*
X49482Y156030D01*
X49697Y156307D01*
X50795Y155484D01*
X50559Y155180D01*
X50316Y154882D01*
X50066Y154590D01*
X49808Y154304D01*
X49544Y154024D01*
X49273Y153751D01*
X48996Y153485D01*
X48712Y153225D01*
X48423Y152972D01*
X48127Y152726D01*
X47825Y152488D01*
X47518Y152257D01*
X47205Y152033D01*
X46886Y151817D01*
X46563Y151609D01*
X46235Y151408D01*
X45902Y151216D01*
X45564Y151032D01*
X45222Y150855D01*
X44876Y150688D01*
X44526Y150528D01*
X44172Y150377D01*
X43815Y150235D01*
X43454Y150101D01*
X43091Y149976D01*
X42724Y149860D01*
X42355Y149753D01*
X41983Y149655D01*
X41609Y149565D01*
X41233Y149485D01*
X40855Y149414D01*
X40475Y149352D01*
X40094Y149299D01*
X39712Y149256D01*
X39329Y149221D01*
X38945Y149196D01*
X38561Y149181D01*
X38176Y149174D01*
X38176Y149317D01*
X38557Y149324D01*
X38938Y149339D01*
X39318Y149364D01*
X39698Y149398D01*
X40077Y149441D01*
X40454Y149494D01*
X40830Y149555D01*
X41205Y149625D01*
X41578Y149705D01*
X41948Y149793D01*
X42317Y149891D01*
X42683Y149997D01*
X43046Y150112D01*
X43407Y150236D01*
X43764Y150368D01*
X44118Y150509D01*
X44469Y150659D01*
X44815Y150817D01*
X45158Y150983D01*
X45497Y151158D01*
X45832Y151340D01*
X46162Y151531D01*
X46487Y151730D01*
X46807Y151936D01*
X47123Y152150D01*
X47433Y152372D01*
X47737Y152601D01*
X48036Y152837D01*
X48330Y153081D01*
X48617Y153331D01*
X48898Y153589D01*
X49173Y153853D01*
X49441Y154124D01*
X49703Y154401D01*
X49958Y154684D01*
X50206Y154973D01*
X50447Y155269D01*
X50681Y155570D01*
X50566Y155655D01*
X50335Y155357D01*
X50096Y155065D01*
X49850Y154778D01*
X49597Y154497D01*
X49338Y154223D01*
X49072Y153954D01*
X48800Y153693D01*
X48521Y153438D01*
X48237Y153190D01*
X47946Y152948D01*
X47650Y152714D01*
X47348Y152487D01*
X47041Y152268D01*
X46728Y152055D01*
X46411Y151851D01*
X46089Y151654D01*
X45762Y151465D01*
X45430Y151284D01*
X45094Y151111D01*
X44755Y150946D01*
X44411Y150790D01*
X44064Y150642D01*
X43713Y150502D01*
X43359Y150371D01*
X43002Y150248D01*
X42641Y150134D01*
X42279Y150029D01*
X41914Y149932D01*
X41546Y149844D01*
X41177Y149766D01*
X40806Y149696D01*
X40433Y149635D01*
X40059Y149583D01*
X39684Y149540D01*
X39308Y149507D01*
X38931Y149482D01*
X38554Y149467D01*
X38176Y149460D01*
X38176Y149603D01*
X38550Y149610D01*
X38924Y149625D01*
X39297Y149649D01*
X39670Y149683D01*
X40042Y149725D01*
X40412Y149776D01*
X40782Y149837D01*
X41149Y149906D01*
X41515Y149984D01*
X41879Y150071D01*
X42241Y150166D01*
X42600Y150271D01*
X42957Y150384D01*
X43311Y150505D01*
X43662Y150635D01*
X44009Y150774D01*
X44353Y150921D01*
X44694Y151076D01*
X45030Y151239D01*
X45363Y151410D01*
X45691Y151590D01*
X46015Y151777D01*
X46335Y151972D01*
X46649Y152175D01*
X46959Y152385D01*
X47263Y152602D01*
X47562Y152827D01*
X47856Y153059D01*
X48144Y153298D01*
X48426Y153544D01*
X48702Y153797D01*
X48971Y154056D01*
X49235Y154322D01*
X49492Y154594D01*
X49742Y154872D01*
X49986Y155156D01*
X50222Y155446D01*
X50452Y155741D01*
X50337Y155827D01*
X50110Y155534D01*
X49876Y155247D01*
X49634Y154966D01*
X49386Y154690D01*
X49132Y154421D01*
X48871Y154158D01*
X48603Y153901D01*
X48330Y153651D01*
X48051Y153407D01*
X47766Y153170D01*
X47475Y152940D01*
X47178Y152717D01*
X46877Y152502D01*
X46570Y152294D01*
X46259Y152093D01*
X45942Y151900D01*
X45621Y151714D01*
X45296Y151537D01*
X44967Y151367D01*
X44633Y151205D01*
X44296Y151052D01*
X43955Y150906D01*
X43610Y150769D01*
X43263Y150640D01*
X42912Y150520D01*
X42559Y150408D01*
X42203Y150304D01*
X41845Y150210D01*
X41484Y150124D01*
X41122Y150046D01*
X40757Y149978D01*
X40391Y149918D01*
X40024Y149867D01*
X39656Y149825D01*
X39287Y149792D01*
X38917Y149768D01*
X38547Y149752D01*
X38176Y149746D01*
X38176Y149889D01*
X38543Y149895D01*
X38910Y149911D01*
X39276Y149935D01*
X39642Y149967D01*
X40007Y150009D01*
X40371Y150059D01*
X40733Y150119D01*
X41094Y150187D01*
X41453Y150263D01*
X41810Y150348D01*
X42165Y150442D01*
X42518Y150545D01*
X42868Y150655D01*
X43215Y150775D01*
X43559Y150902D01*
X43900Y151038D01*
X44238Y151182D01*
X44572Y151335D01*
X44903Y151495D01*
X45229Y151663D01*
X45551Y151839D01*
X45869Y152023D01*
X46183Y152214D01*
X46491Y152413D01*
X46795Y152619D01*
X47094Y152833D01*
X47387Y153053D01*
X47675Y153281D01*
X47958Y153516D01*
X48234Y153757D01*
X48505Y154005D01*
X48770Y154259D01*
X49029Y154520D01*
X49281Y154787D01*
X49527Y155060D01*
X49766Y155338D01*
X49998Y155623D01*
X50223Y155913D01*
X50109Y155999D01*
X49885Y155711D01*
X49655Y155430D01*
X49419Y155154D01*
X49175Y154883D01*
X48926Y154619D01*
X48669Y154361D01*
X48407Y154109D01*
X48139Y153863D01*
X47865Y153624D01*
X47585Y153392D01*
X47300Y153166D01*
X47009Y152948D01*
X46713Y152736D01*
X46412Y152532D01*
X46106Y152335D01*
X45796Y152146D01*
X45481Y151964D01*
X45162Y151789D01*
X44839Y151623D01*
X44511Y151464D01*
X44180Y151313D01*
X43846Y151171D01*
X43508Y151036D01*
X43167Y150910D01*
X42823Y150791D01*
X42476Y150682D01*
X42127Y150580D01*
X41776Y150487D01*
X41422Y150403D01*
X41066Y150327D01*
X40709Y150260D01*
X40350Y150201D01*
X39989Y150151D01*
X39628Y150110D01*
X39266Y150077D01*
X38903Y150053D01*
X38540Y150038D01*
X38176Y150032D01*
X38176Y150175D01*
X38536Y150181D01*
X38896Y150196D01*
X39255Y150220D01*
X39614Y150252D01*
X39972Y150293D01*
X40329Y150342D01*
X40684Y150400D01*
X41038Y150467D01*
X41391Y150542D01*
X41741Y150626D01*
X42089Y150718D01*
X42435Y150818D01*
X42778Y150927D01*
X43119Y151044D01*
X43457Y151169D01*
X43791Y151303D01*
X44123Y151444D01*
X44451Y151593D01*
X44775Y151751D01*
X45095Y151916D01*
X45411Y152088D01*
X45723Y152268D01*
X46030Y152456D01*
X46333Y152651D01*
X46631Y152854D01*
X46924Y153063D01*
X47212Y153279D01*
X47495Y153503D01*
X47772Y153733D01*
X48043Y153970D01*
X48309Y154213D01*
X48569Y154462D01*
X48822Y154718D01*
X49070Y154980D01*
X49311Y155248D01*
X49545Y155521D01*
X49773Y155800D01*
X49994Y156084D01*
X49880Y156170D01*
X49661Y155888D01*
X49435Y155612D01*
X49203Y155341D01*
X48964Y155076D01*
X48719Y154817D01*
X48468Y154564D01*
X48211Y154317D01*
X47948Y154076D01*
X47679Y153842D01*
X47404Y153614D01*
X47125Y153393D01*
X46839Y153178D01*
X46549Y152971D01*
X46254Y152770D01*
X45954Y152577D01*
X45650Y152391D01*
X45341Y152213D01*
X45028Y152042D01*
X44711Y151879D01*
X44390Y151723D01*
X44065Y151575D01*
X43737Y151435D01*
X43406Y151303D01*
X43071Y151179D01*
X42734Y151063D01*
X42394Y150955D01*
X42051Y150856D01*
X41706Y150765D01*
X41359Y150682D01*
X41011Y150607D01*
X40660Y150541D01*
X40308Y150484D01*
X39955Y150435D01*
X39600Y150394D01*
X39245Y150362D01*
X38889Y150339D01*
X38533Y150324D01*
X38176Y150318D01*
X38176Y150461D01*
X38529Y150467D01*
X38882Y150482D01*
X39235Y150505D01*
X39586Y150537D01*
X39937Y150577D01*
X40287Y150625D01*
X40636Y150682D01*
X40983Y150748D01*
X41328Y150821D01*
X41672Y150903D01*
X42013Y150994D01*
X42353Y151092D01*
X42689Y151199D01*
X43023Y151314D01*
X43355Y151437D01*
X43683Y151567D01*
X44008Y151706D01*
X44329Y151852D01*
X44647Y152006D01*
X44961Y152168D01*
X45271Y152338D01*
X45577Y152514D01*
X45878Y152698D01*
X46175Y152890D01*
X46467Y153088D01*
X46755Y153293D01*
X47037Y153506D01*
X47314Y153725D01*
X47586Y153950D01*
X47852Y154182D01*
X48113Y154421D01*
X48367Y154665D01*
X48616Y154916D01*
X48859Y155173D01*
X49095Y155435D01*
X49325Y155703D01*
X49549Y155977D01*
X49765Y156256D01*
X38024Y181025D02*
X38024Y179653D01*
X38024Y179654D02*
X37670Y179648D01*
X37317Y179633D01*
X36964Y179610D01*
X36612Y179578D01*
X36260Y179537D01*
X35910Y179488D01*
X35561Y179431D01*
X35213Y179365D01*
X34867Y179290D01*
X34523Y179208D01*
X34182Y179117D01*
X33842Y179017D01*
X33505Y178910D01*
X33171Y178794D01*
X32839Y178670D01*
X32511Y178538D01*
X32186Y178398D01*
X31865Y178251D01*
X31547Y178095D01*
X31233Y177932D01*
X30923Y177761D01*
X30618Y177583D01*
X30316Y177398D01*
X30020Y177205D01*
X29728Y177005D01*
X29441Y176798D01*
X29159Y176584D01*
X28883Y176363D01*
X28612Y176136D01*
X28347Y175902D01*
X28087Y175662D01*
X27833Y175416D01*
X27585Y175163D01*
X27344Y174904D01*
X27109Y174640D01*
X26880Y174370D01*
X26658Y174095D01*
X25576Y174937D01*
X25575Y174937D01*
X25818Y175239D01*
X26069Y175535D01*
X26326Y175824D01*
X26590Y176108D01*
X26862Y176384D01*
X27139Y176654D01*
X27424Y176918D01*
X27714Y177174D01*
X28011Y177423D01*
X28314Y177665D01*
X28623Y177899D01*
X28937Y178126D01*
X29256Y178345D01*
X29581Y178556D01*
X29911Y178759D01*
X30246Y178955D01*
X30585Y179142D01*
X30929Y179320D01*
X31277Y179490D01*
X31629Y179652D01*
X31985Y179805D01*
X32345Y179950D01*
X32708Y180085D01*
X33074Y180212D01*
X33443Y180330D01*
X33815Y180439D01*
X34189Y180538D01*
X34566Y180629D01*
X34945Y180710D01*
X35326Y180782D01*
X35708Y180845D01*
X36092Y180899D01*
X36477Y180943D01*
X36863Y180978D01*
X37249Y181003D01*
X37636Y181019D01*
X38024Y181026D01*
X38024Y180883D01*
X37640Y180876D01*
X37256Y180860D01*
X36873Y180835D01*
X36491Y180801D01*
X36109Y180757D01*
X35729Y180704D01*
X35350Y180642D01*
X34973Y180570D01*
X34598Y180489D01*
X34224Y180400D01*
X33853Y180301D01*
X33485Y180193D01*
X33119Y180076D01*
X32756Y179951D01*
X32396Y179816D01*
X32040Y179673D01*
X31687Y179522D01*
X31338Y179361D01*
X30993Y179193D01*
X30653Y179016D01*
X30316Y178830D01*
X29985Y178637D01*
X29658Y178435D01*
X29336Y178226D01*
X29019Y178009D01*
X28708Y177784D01*
X28402Y177552D01*
X28102Y177312D01*
X27808Y177066D01*
X27520Y176812D01*
X27238Y176551D01*
X26963Y176283D01*
X26694Y176009D01*
X26432Y175728D01*
X26177Y175441D01*
X25929Y175148D01*
X25688Y174849D01*
X25801Y174761D01*
X26040Y175058D01*
X26285Y175348D01*
X26538Y175632D01*
X26798Y175911D01*
X27064Y176182D01*
X27337Y176447D01*
X27616Y176706D01*
X27901Y176957D01*
X28193Y177202D01*
X28490Y177439D01*
X28793Y177670D01*
X29102Y177892D01*
X29416Y178107D01*
X29734Y178315D01*
X30058Y178514D01*
X30387Y178706D01*
X30720Y178889D01*
X31058Y179065D01*
X31400Y179232D01*
X31745Y179391D01*
X32095Y179541D01*
X32448Y179683D01*
X32804Y179816D01*
X33164Y179941D01*
X33526Y180056D01*
X33891Y180163D01*
X34259Y180261D01*
X34629Y180350D01*
X35001Y180430D01*
X35375Y180501D01*
X35750Y180562D01*
X36127Y180615D01*
X36505Y180658D01*
X36884Y180693D01*
X37263Y180718D01*
X37644Y180733D01*
X38024Y180740D01*
X38024Y180597D01*
X37647Y180590D01*
X37270Y180575D01*
X36894Y180550D01*
X36519Y180516D01*
X36144Y180473D01*
X35771Y180421D01*
X35399Y180360D01*
X35029Y180290D01*
X34660Y180210D01*
X34294Y180122D01*
X33930Y180025D01*
X33568Y179919D01*
X33209Y179805D01*
X32853Y179682D01*
X32499Y179550D01*
X32150Y179409D01*
X31803Y179260D01*
X31461Y179103D01*
X31122Y178937D01*
X30788Y178763D01*
X30458Y178582D01*
X30132Y178392D01*
X29811Y178194D01*
X29495Y177988D01*
X29184Y177775D01*
X28879Y177555D01*
X28578Y177327D01*
X28284Y177092D01*
X27995Y176849D01*
X27712Y176600D01*
X27436Y176344D01*
X27165Y176081D01*
X26901Y175812D01*
X26644Y175537D01*
X26394Y175255D01*
X26150Y174967D01*
X25914Y174674D01*
X26027Y174586D01*
X26261Y174877D01*
X26502Y175162D01*
X26750Y175441D01*
X27005Y175714D01*
X27267Y175980D01*
X27534Y176241D01*
X27808Y176494D01*
X28089Y176741D01*
X28375Y176981D01*
X28666Y177214D01*
X28964Y177440D01*
X29267Y177659D01*
X29575Y177870D01*
X29888Y178073D01*
X30206Y178269D01*
X30528Y178457D01*
X30855Y178637D01*
X31187Y178810D01*
X31522Y178974D01*
X31861Y179129D01*
X32204Y179277D01*
X32551Y179416D01*
X32901Y179547D01*
X33254Y179669D01*
X33609Y179783D01*
X33968Y179887D01*
X34329Y179984D01*
X34692Y180071D01*
X35057Y180149D01*
X35424Y180219D01*
X35792Y180280D01*
X36162Y180331D01*
X36533Y180374D01*
X36905Y180407D01*
X37277Y180432D01*
X37651Y180447D01*
X38024Y180454D01*
X38024Y180311D01*
X37654Y180304D01*
X37284Y180289D01*
X36915Y180265D01*
X36547Y180232D01*
X36179Y180189D01*
X35813Y180138D01*
X35448Y180078D01*
X35085Y180009D01*
X34723Y179931D01*
X34363Y179845D01*
X34006Y179750D01*
X33651Y179646D01*
X33299Y179533D01*
X32949Y179412D01*
X32603Y179283D01*
X32259Y179145D01*
X31920Y178999D01*
X31583Y178844D01*
X31251Y178682D01*
X30923Y178511D01*
X30599Y178333D01*
X30279Y178146D01*
X29964Y177952D01*
X29654Y177751D01*
X29349Y177542D01*
X29049Y177325D01*
X28755Y177102D01*
X28466Y176871D01*
X28182Y176633D01*
X27905Y176388D01*
X27633Y176137D01*
X27368Y175879D01*
X27109Y175615D01*
X26856Y175345D01*
X26611Y175068D01*
X26372Y174786D01*
X26140Y174498D01*
X26252Y174410D01*
X26482Y174696D01*
X26719Y174975D01*
X26963Y175249D01*
X27213Y175517D01*
X27469Y175778D01*
X27732Y176034D01*
X28001Y176283D01*
X28276Y176525D01*
X28556Y176760D01*
X28843Y176989D01*
X29134Y177211D01*
X29432Y177425D01*
X29734Y177632D01*
X30041Y177832D01*
X30353Y178024D01*
X30669Y178208D01*
X30990Y178385D01*
X31315Y178554D01*
X31645Y178715D01*
X31978Y178868D01*
X32314Y179013D01*
X32654Y179149D01*
X32997Y179278D01*
X33344Y179398D01*
X33693Y179509D01*
X34044Y179612D01*
X34398Y179706D01*
X34754Y179792D01*
X35113Y179869D01*
X35473Y179937D01*
X35834Y179997D01*
X36197Y180047D01*
X36561Y180089D01*
X36926Y180122D01*
X37292Y180146D01*
X37658Y180162D01*
X38024Y180168D01*
X38024Y180025D01*
X37661Y180019D01*
X37299Y180003D01*
X36936Y179980D01*
X36575Y179947D01*
X36215Y179905D01*
X35855Y179855D01*
X35497Y179796D01*
X35141Y179729D01*
X34786Y179652D01*
X34433Y179568D01*
X34082Y179474D01*
X33734Y179372D01*
X33388Y179262D01*
X33046Y179143D01*
X32706Y179016D01*
X32369Y178881D01*
X32036Y178737D01*
X31706Y178586D01*
X31380Y178427D01*
X31058Y178259D01*
X30740Y178084D01*
X30427Y177901D01*
X30118Y177711D01*
X29813Y177513D01*
X29514Y177308D01*
X29220Y177096D01*
X28931Y176876D01*
X28647Y176650D01*
X28369Y176417D01*
X28097Y176177D01*
X27831Y175930D01*
X27570Y175677D01*
X27316Y175418D01*
X27069Y175153D01*
X26828Y174882D01*
X26593Y174605D01*
X26365Y174322D01*
X26478Y174235D01*
X26704Y174515D01*
X26936Y174789D01*
X27175Y175057D01*
X27420Y175320D01*
X27672Y175576D01*
X27929Y175827D01*
X28193Y176071D01*
X28463Y176309D01*
X28738Y176539D01*
X29019Y176764D01*
X29305Y176981D01*
X29597Y177191D01*
X29893Y177394D01*
X30194Y177590D01*
X30500Y177779D01*
X30811Y177960D01*
X31125Y178133D01*
X31444Y178299D01*
X31767Y178457D01*
X32094Y178607D01*
X32424Y178749D01*
X32757Y178883D01*
X33094Y179008D01*
X33433Y179126D01*
X33776Y179235D01*
X34121Y179336D01*
X34468Y179429D01*
X34817Y179513D01*
X35169Y179588D01*
X35522Y179655D01*
X35876Y179714D01*
X36232Y179764D01*
X36589Y179805D01*
X36947Y179837D01*
X37306Y179861D01*
X37665Y179876D01*
X38024Y179882D01*
X38024Y179739D01*
X37668Y179733D01*
X37313Y179718D01*
X36958Y179694D01*
X36603Y179662D01*
X36250Y179622D01*
X35897Y179572D01*
X35546Y179515D01*
X35197Y179448D01*
X34849Y179373D01*
X34503Y179290D01*
X34159Y179198D01*
X33817Y179099D01*
X33478Y178990D01*
X33142Y178874D01*
X32809Y178749D01*
X32479Y178617D01*
X32152Y178476D01*
X31828Y178327D01*
X31509Y178171D01*
X31193Y178007D01*
X30881Y177835D01*
X30574Y177656D01*
X30271Y177470D01*
X29973Y177276D01*
X29679Y177074D01*
X29390Y176866D01*
X29107Y176651D01*
X28829Y176429D01*
X28556Y176200D01*
X28289Y175965D01*
X28028Y175723D01*
X27773Y175476D01*
X27524Y175221D01*
X27281Y174961D01*
X27044Y174696D01*
X26814Y174424D01*
X26591Y174147D01*
X50624Y174937D02*
X49541Y174094D01*
X49542Y174095D02*
X49320Y174370D01*
X49091Y174640D01*
X48856Y174904D01*
X48615Y175163D01*
X48367Y175416D01*
X48113Y175662D01*
X47853Y175902D01*
X47588Y176136D01*
X47317Y176363D01*
X47041Y176584D01*
X46759Y176798D01*
X46472Y177005D01*
X46180Y177205D01*
X45884Y177398D01*
X45582Y177583D01*
X45277Y177761D01*
X44967Y177932D01*
X44653Y178095D01*
X44335Y178251D01*
X44014Y178398D01*
X43689Y178538D01*
X43361Y178670D01*
X43029Y178794D01*
X42695Y178910D01*
X42358Y179017D01*
X42018Y179117D01*
X41677Y179208D01*
X41333Y179290D01*
X40987Y179365D01*
X40639Y179431D01*
X40290Y179488D01*
X39940Y179537D01*
X39588Y179578D01*
X39236Y179610D01*
X38883Y179633D01*
X38530Y179648D01*
X38176Y179654D01*
X38176Y181025D01*
X38176Y181026D01*
X38564Y181019D01*
X38951Y181003D01*
X39337Y180978D01*
X39723Y180943D01*
X40108Y180899D01*
X40492Y180845D01*
X40874Y180782D01*
X41255Y180710D01*
X41634Y180629D01*
X42011Y180538D01*
X42385Y180439D01*
X42757Y180330D01*
X43126Y180212D01*
X43492Y180085D01*
X43855Y179950D01*
X44215Y179805D01*
X44571Y179652D01*
X44923Y179490D01*
X45271Y179320D01*
X45615Y179142D01*
X45954Y178955D01*
X46289Y178759D01*
X46619Y178556D01*
X46944Y178345D01*
X47263Y178126D01*
X47577Y177899D01*
X47886Y177665D01*
X48189Y177423D01*
X48486Y177174D01*
X48776Y176918D01*
X49061Y176654D01*
X49338Y176384D01*
X49610Y176108D01*
X49874Y175824D01*
X50131Y175535D01*
X50382Y175239D01*
X50625Y174937D01*
X50512Y174849D01*
X50271Y175148D01*
X50023Y175441D01*
X49768Y175728D01*
X49506Y176009D01*
X49237Y176283D01*
X48962Y176551D01*
X48680Y176812D01*
X48392Y177066D01*
X48098Y177312D01*
X47798Y177552D01*
X47492Y177784D01*
X47181Y178009D01*
X46864Y178226D01*
X46542Y178435D01*
X46215Y178637D01*
X45884Y178830D01*
X45547Y179016D01*
X45207Y179193D01*
X44862Y179361D01*
X44513Y179522D01*
X44160Y179673D01*
X43804Y179816D01*
X43444Y179951D01*
X43081Y180076D01*
X42715Y180193D01*
X42347Y180301D01*
X41976Y180400D01*
X41602Y180489D01*
X41227Y180570D01*
X40850Y180642D01*
X40471Y180704D01*
X40091Y180757D01*
X39709Y180801D01*
X39327Y180835D01*
X38944Y180860D01*
X38560Y180876D01*
X38176Y180883D01*
X38176Y180740D01*
X38556Y180733D01*
X38937Y180718D01*
X39316Y180693D01*
X39695Y180658D01*
X40073Y180615D01*
X40450Y180562D01*
X40825Y180501D01*
X41199Y180430D01*
X41571Y180350D01*
X41941Y180261D01*
X42309Y180163D01*
X42674Y180056D01*
X43036Y179941D01*
X43396Y179816D01*
X43752Y179683D01*
X44105Y179541D01*
X44455Y179391D01*
X44800Y179232D01*
X45142Y179065D01*
X45480Y178889D01*
X45813Y178706D01*
X46142Y178514D01*
X46466Y178315D01*
X46784Y178107D01*
X47098Y177892D01*
X47407Y177670D01*
X47710Y177439D01*
X48007Y177202D01*
X48299Y176957D01*
X48584Y176706D01*
X48863Y176447D01*
X49136Y176182D01*
X49402Y175911D01*
X49662Y175632D01*
X49915Y175348D01*
X50160Y175058D01*
X50399Y174761D01*
X50286Y174674D01*
X50050Y174967D01*
X49806Y175255D01*
X49556Y175537D01*
X49299Y175812D01*
X49035Y176081D01*
X48764Y176344D01*
X48488Y176600D01*
X48205Y176849D01*
X47916Y177092D01*
X47622Y177327D01*
X47321Y177555D01*
X47016Y177775D01*
X46705Y177988D01*
X46389Y178194D01*
X46068Y178392D01*
X45742Y178582D01*
X45412Y178763D01*
X45078Y178937D01*
X44739Y179103D01*
X44397Y179260D01*
X44050Y179409D01*
X43701Y179550D01*
X43347Y179682D01*
X42991Y179805D01*
X42632Y179919D01*
X42270Y180025D01*
X41906Y180122D01*
X41540Y180210D01*
X41171Y180290D01*
X40801Y180360D01*
X40429Y180421D01*
X40056Y180473D01*
X39681Y180516D01*
X39306Y180550D01*
X38930Y180575D01*
X38553Y180590D01*
X38176Y180597D01*
X38176Y180454D01*
X38549Y180447D01*
X38923Y180432D01*
X39295Y180407D01*
X39667Y180374D01*
X40038Y180331D01*
X40408Y180280D01*
X40776Y180219D01*
X41143Y180149D01*
X41508Y180071D01*
X41871Y179984D01*
X42232Y179887D01*
X42591Y179783D01*
X42946Y179669D01*
X43299Y179547D01*
X43649Y179416D01*
X43996Y179277D01*
X44339Y179129D01*
X44678Y178974D01*
X45013Y178810D01*
X45345Y178637D01*
X45672Y178457D01*
X45994Y178269D01*
X46312Y178073D01*
X46625Y177870D01*
X46933Y177659D01*
X47236Y177440D01*
X47534Y177214D01*
X47825Y176981D01*
X48111Y176741D01*
X48392Y176494D01*
X48666Y176241D01*
X48933Y175980D01*
X49195Y175714D01*
X49450Y175441D01*
X49698Y175162D01*
X49939Y174877D01*
X50173Y174586D01*
X50060Y174498D01*
X49828Y174786D01*
X49589Y175068D01*
X49344Y175345D01*
X49091Y175615D01*
X48832Y175879D01*
X48567Y176137D01*
X48295Y176388D01*
X48018Y176633D01*
X47734Y176871D01*
X47445Y177102D01*
X47151Y177325D01*
X46851Y177542D01*
X46546Y177751D01*
X46236Y177952D01*
X45921Y178146D01*
X45601Y178333D01*
X45277Y178511D01*
X44949Y178682D01*
X44617Y178844D01*
X44280Y178999D01*
X43941Y179145D01*
X43597Y179283D01*
X43251Y179412D01*
X42901Y179533D01*
X42549Y179646D01*
X42194Y179750D01*
X41837Y179845D01*
X41477Y179931D01*
X41115Y180009D01*
X40752Y180078D01*
X40387Y180138D01*
X40021Y180189D01*
X39653Y180232D01*
X39285Y180265D01*
X38916Y180289D01*
X38546Y180304D01*
X38176Y180311D01*
X38176Y180168D01*
X38542Y180162D01*
X38908Y180146D01*
X39274Y180122D01*
X39639Y180089D01*
X40003Y180047D01*
X40366Y179997D01*
X40727Y179937D01*
X41087Y179869D01*
X41446Y179792D01*
X41802Y179706D01*
X42156Y179612D01*
X42507Y179509D01*
X42856Y179398D01*
X43203Y179278D01*
X43546Y179149D01*
X43886Y179013D01*
X44222Y178868D01*
X44555Y178715D01*
X44885Y178554D01*
X45210Y178385D01*
X45531Y178208D01*
X45847Y178024D01*
X46159Y177832D01*
X46466Y177632D01*
X46768Y177425D01*
X47066Y177211D01*
X47357Y176989D01*
X47644Y176760D01*
X47924Y176525D01*
X48199Y176283D01*
X48468Y176034D01*
X48731Y175778D01*
X48987Y175517D01*
X49237Y175249D01*
X49481Y174975D01*
X49718Y174696D01*
X49948Y174410D01*
X49835Y174322D01*
X49607Y174605D01*
X49372Y174882D01*
X49131Y175153D01*
X48884Y175418D01*
X48630Y175677D01*
X48369Y175930D01*
X48103Y176177D01*
X47831Y176417D01*
X47553Y176650D01*
X47269Y176876D01*
X46980Y177096D01*
X46686Y177308D01*
X46387Y177513D01*
X46082Y177711D01*
X45773Y177901D01*
X45460Y178084D01*
X45142Y178259D01*
X44820Y178427D01*
X44494Y178586D01*
X44164Y178737D01*
X43831Y178881D01*
X43494Y179016D01*
X43154Y179143D01*
X42812Y179262D01*
X42466Y179372D01*
X42118Y179474D01*
X41767Y179568D01*
X41414Y179652D01*
X41059Y179729D01*
X40703Y179796D01*
X40345Y179855D01*
X39985Y179905D01*
X39625Y179947D01*
X39264Y179980D01*
X38901Y180003D01*
X38539Y180019D01*
X38176Y180025D01*
X38176Y179882D01*
X38535Y179876D01*
X38894Y179861D01*
X39253Y179837D01*
X39611Y179805D01*
X39968Y179764D01*
X40324Y179714D01*
X40678Y179655D01*
X41031Y179588D01*
X41383Y179513D01*
X41732Y179429D01*
X42079Y179336D01*
X42424Y179235D01*
X42767Y179126D01*
X43106Y179008D01*
X43443Y178883D01*
X43776Y178749D01*
X44106Y178607D01*
X44433Y178457D01*
X44756Y178299D01*
X45075Y178133D01*
X45389Y177960D01*
X45700Y177779D01*
X46006Y177590D01*
X46307Y177394D01*
X46603Y177191D01*
X46895Y176981D01*
X47181Y176764D01*
X47462Y176539D01*
X47737Y176309D01*
X48007Y176071D01*
X48271Y175827D01*
X48528Y175576D01*
X48780Y175320D01*
X49025Y175057D01*
X49264Y174789D01*
X49496Y174515D01*
X49722Y174235D01*
X49609Y174147D01*
X49386Y174424D01*
X49156Y174696D01*
X48919Y174961D01*
X48676Y175221D01*
X48427Y175476D01*
X48172Y175723D01*
X47911Y175965D01*
X47644Y176200D01*
X47371Y176429D01*
X47093Y176651D01*
X46810Y176866D01*
X46521Y177074D01*
X46227Y177276D01*
X45929Y177470D01*
X45626Y177656D01*
X45319Y177835D01*
X45007Y178007D01*
X44691Y178171D01*
X44372Y178327D01*
X44048Y178476D01*
X43721Y178617D01*
X43391Y178749D01*
X43058Y178874D01*
X42722Y178990D01*
X42383Y179099D01*
X42041Y179198D01*
X41697Y179290D01*
X41351Y179373D01*
X41003Y179448D01*
X40654Y179515D01*
X40303Y179572D01*
X39950Y179622D01*
X39597Y179662D01*
X39242Y179694D01*
X38887Y179718D01*
X38532Y179733D01*
X38176Y179739D01*
D13*
X21694Y151262D02*
X23450Y152726D01*
X23450Y152725D02*
X23751Y152378D01*
X24060Y152038D01*
X24377Y151705D01*
X24702Y151380D01*
X25034Y151063D01*
X25374Y150754D01*
X25722Y150453D01*
X26076Y150160D01*
X26438Y149877D01*
X26806Y149602D01*
X27181Y149335D01*
X27562Y149078D01*
X27949Y148830D01*
X28341Y148592D01*
X28740Y148363D01*
X29144Y148143D01*
X29552Y147933D01*
X29966Y147733D01*
X30385Y147543D01*
X30808Y147364D01*
X31235Y147194D01*
X31666Y147035D01*
X32101Y146886D01*
X32539Y146747D01*
X32980Y146619D01*
X33425Y146502D01*
X33872Y146395D01*
X34321Y146299D01*
X34773Y146214D01*
X35226Y146140D01*
X35682Y146076D01*
X36138Y146024D01*
X36596Y145982D01*
X37054Y145952D01*
X37514Y145932D01*
X37973Y145923D01*
X37974Y143638D01*
X37973Y143637D01*
X37458Y143647D01*
X36943Y143668D01*
X36429Y143702D01*
X35916Y143748D01*
X35404Y143807D01*
X34894Y143878D01*
X34385Y143961D01*
X33879Y144056D01*
X33375Y144164D01*
X32874Y144283D01*
X32376Y144414D01*
X31881Y144558D01*
X31390Y144713D01*
X30902Y144880D01*
X30419Y145059D01*
X29940Y145249D01*
X29466Y145450D01*
X28997Y145663D01*
X28533Y145887D01*
X28074Y146122D01*
X27622Y146369D01*
X27175Y146625D01*
X26735Y146893D01*
X26301Y147171D01*
X25874Y147459D01*
X25454Y147758D01*
X25042Y148067D01*
X24636Y148385D01*
X24239Y148713D01*
X23850Y149050D01*
X23469Y149397D01*
X23096Y149753D01*
X22732Y150117D01*
X22377Y150490D01*
X22031Y150872D01*
X21694Y151262D01*
X21878Y151416D01*
X22211Y151030D01*
X22553Y150653D01*
X22905Y150284D01*
X23265Y149924D01*
X23633Y149572D01*
X24010Y149229D01*
X24395Y148896D01*
X24788Y148571D01*
X25188Y148257D01*
X25596Y147952D01*
X26011Y147656D01*
X26433Y147371D01*
X26862Y147096D01*
X27298Y146832D01*
X27739Y146578D01*
X28187Y146335D01*
X28640Y146102D01*
X29098Y145881D01*
X29562Y145670D01*
X30031Y145471D01*
X30505Y145283D01*
X30982Y145106D01*
X31464Y144941D01*
X31950Y144788D01*
X32439Y144646D01*
X32932Y144516D01*
X33427Y144398D01*
X33925Y144292D01*
X34426Y144197D01*
X34929Y144115D01*
X35433Y144045D01*
X35939Y143987D01*
X36447Y143942D01*
X36955Y143908D01*
X37464Y143887D01*
X37973Y143877D01*
X37973Y144117D01*
X37470Y144126D01*
X36967Y144148D01*
X36464Y144181D01*
X35963Y144226D01*
X35462Y144283D01*
X34964Y144353D01*
X34467Y144434D01*
X33972Y144527D01*
X33479Y144632D01*
X32990Y144749D01*
X32503Y144877D01*
X32019Y145017D01*
X31539Y145169D01*
X31063Y145332D01*
X30590Y145507D01*
X30122Y145693D01*
X29659Y145890D01*
X29200Y146098D01*
X28747Y146317D01*
X28299Y146547D01*
X27856Y146787D01*
X27420Y147038D01*
X26990Y147300D01*
X26566Y147572D01*
X26148Y147853D01*
X25738Y148145D01*
X25335Y148447D01*
X24939Y148758D01*
X24550Y149078D01*
X24170Y149408D01*
X23797Y149747D01*
X23433Y150094D01*
X23077Y150451D01*
X22730Y150815D01*
X22392Y151188D01*
X22062Y151569D01*
X22247Y151723D01*
X22572Y151346D01*
X22907Y150978D01*
X23250Y150617D01*
X23602Y150265D01*
X23962Y149922D01*
X24330Y149587D01*
X24706Y149261D01*
X25090Y148944D01*
X25481Y148637D01*
X25880Y148339D01*
X26286Y148050D01*
X26698Y147772D01*
X27117Y147503D01*
X27542Y147245D01*
X27974Y146997D01*
X28411Y146759D01*
X28854Y146532D01*
X29302Y146315D01*
X29755Y146110D01*
X30213Y145915D01*
X30676Y145731D01*
X31143Y145559D01*
X31614Y145397D01*
X32088Y145247D01*
X32566Y145109D01*
X33047Y144982D01*
X33531Y144866D01*
X34018Y144763D01*
X34507Y144670D01*
X34999Y144590D01*
X35491Y144522D01*
X35986Y144465D01*
X36482Y144420D01*
X36978Y144387D01*
X37476Y144366D01*
X37973Y144357D01*
X37973Y144597D01*
X37481Y144606D01*
X36990Y144627D01*
X36499Y144660D01*
X36009Y144704D01*
X35521Y144760D01*
X35033Y144828D01*
X34548Y144907D01*
X34065Y144998D01*
X33584Y145101D01*
X33105Y145215D01*
X32630Y145340D01*
X32157Y145477D01*
X31688Y145625D01*
X31223Y145785D01*
X30762Y145955D01*
X30304Y146137D01*
X29852Y146329D01*
X29404Y146533D01*
X28961Y146746D01*
X28523Y146971D01*
X28091Y147206D01*
X27665Y147451D01*
X27245Y147707D01*
X26830Y147972D01*
X26423Y148247D01*
X26022Y148532D01*
X25628Y148827D01*
X25241Y149131D01*
X24862Y149444D01*
X24490Y149766D01*
X24126Y150097D01*
X23770Y150436D01*
X23423Y150784D01*
X23083Y151140D01*
X22753Y151504D01*
X22431Y151877D01*
X22616Y152030D01*
X22933Y151663D01*
X23260Y151303D01*
X23595Y150951D01*
X23939Y150607D01*
X24290Y150271D01*
X24650Y149945D01*
X25017Y149626D01*
X25392Y149317D01*
X25775Y149017D01*
X26164Y148726D01*
X26560Y148444D01*
X26963Y148172D01*
X27372Y147910D01*
X27787Y147658D01*
X28209Y147415D01*
X28636Y147183D01*
X29068Y146961D01*
X29506Y146750D01*
X29948Y146549D01*
X30396Y146359D01*
X30847Y146179D01*
X31303Y146011D01*
X31763Y145853D01*
X32226Y145707D01*
X32693Y145572D01*
X33163Y145448D01*
X33636Y145335D01*
X34111Y145233D01*
X34589Y145144D01*
X35068Y145065D01*
X35550Y144998D01*
X36033Y144943D01*
X36517Y144899D01*
X37002Y144867D01*
X37487Y144846D01*
X37973Y144837D01*
X37973Y145077D01*
X37493Y145086D01*
X37013Y145107D01*
X36534Y145138D01*
X36056Y145182D01*
X35579Y145236D01*
X35103Y145303D01*
X34629Y145380D01*
X34158Y145469D01*
X33688Y145569D01*
X33221Y145681D01*
X32757Y145803D01*
X32295Y145937D01*
X31838Y146082D01*
X31383Y146237D01*
X30933Y146404D01*
X30487Y146581D01*
X30045Y146769D01*
X29607Y146967D01*
X29175Y147176D01*
X28748Y147395D01*
X28326Y147625D01*
X27910Y147864D01*
X27499Y148113D01*
X27095Y148372D01*
X26697Y148641D01*
X26306Y148919D01*
X25921Y149207D01*
X25543Y149503D01*
X25173Y149809D01*
X24810Y150123D01*
X24455Y150446D01*
X24107Y150778D01*
X23768Y151117D01*
X23437Y151465D01*
X23114Y151821D01*
X22800Y152184D01*
X22984Y152337D01*
X23295Y151979D01*
X23613Y151628D01*
X23941Y151284D01*
X24276Y150949D01*
X24619Y150621D01*
X24970Y150302D01*
X25329Y149992D01*
X25695Y149690D01*
X26068Y149397D01*
X26448Y149113D01*
X26834Y148838D01*
X27227Y148573D01*
X27627Y148317D01*
X28032Y148070D01*
X28443Y147834D01*
X28860Y147607D01*
X29282Y147391D01*
X29709Y147185D01*
X30141Y146989D01*
X30578Y146803D01*
X31019Y146628D01*
X31463Y146463D01*
X31912Y146310D01*
X32364Y146167D01*
X32820Y146035D01*
X33279Y145913D01*
X33740Y145803D01*
X34204Y145704D01*
X34670Y145617D01*
X35138Y145540D01*
X35608Y145475D01*
X36079Y145420D01*
X36552Y145378D01*
X37025Y145346D01*
X37499Y145326D01*
X37973Y145317D01*
X37973Y145557D01*
X37505Y145566D01*
X37037Y145586D01*
X36569Y145617D01*
X36103Y145659D01*
X35637Y145713D01*
X35173Y145777D01*
X34711Y145853D01*
X34250Y145940D01*
X33792Y146038D01*
X33336Y146146D01*
X32884Y146266D01*
X32434Y146397D01*
X31987Y146538D01*
X31544Y146690D01*
X31104Y146852D01*
X30669Y147025D01*
X30238Y147208D01*
X29811Y147402D01*
X29389Y147606D01*
X28972Y147820D01*
X28561Y148043D01*
X28155Y148277D01*
X27754Y148520D01*
X27360Y148773D01*
X26971Y149035D01*
X26590Y149306D01*
X26214Y149587D01*
X25846Y149876D01*
X25484Y150174D01*
X25130Y150481D01*
X24784Y150796D01*
X24444Y151119D01*
X24113Y151451D01*
X23790Y151790D01*
X23475Y152137D01*
X23169Y152491D01*
X23353Y152645D01*
X23656Y152295D01*
X23967Y151952D01*
X24286Y151617D01*
X24613Y151290D01*
X24948Y150971D01*
X25290Y150660D01*
X25640Y150357D01*
X25997Y150063D01*
X26361Y149777D01*
X26731Y149500D01*
X27109Y149232D01*
X27492Y148973D01*
X27882Y148723D01*
X28277Y148483D01*
X28678Y148253D01*
X29085Y148032D01*
X29496Y147821D01*
X29913Y147619D01*
X30334Y147428D01*
X30760Y147247D01*
X31190Y147076D01*
X31624Y146916D01*
X32062Y146766D01*
X32503Y146626D01*
X32947Y146498D01*
X33394Y146379D01*
X33844Y146272D01*
X34297Y146175D01*
X34751Y146090D01*
X35208Y146015D01*
X35666Y145951D01*
X36126Y145898D01*
X36587Y145856D01*
X37048Y145826D01*
X37511Y145806D01*
X37973Y145797D01*
X38226Y143638D02*
X38226Y145924D01*
X38227Y145923D02*
X38692Y145932D01*
X39157Y145952D01*
X39621Y145983D01*
X40084Y146026D01*
X40546Y146080D01*
X41007Y146145D01*
X41466Y146221D01*
X41923Y146308D01*
X42378Y146406D01*
X42830Y146516D01*
X43280Y146636D01*
X43726Y146767D01*
X44169Y146909D01*
X44609Y147062D01*
X45044Y147225D01*
X45476Y147399D01*
X45903Y147583D01*
X46326Y147777D01*
X46744Y147982D01*
X47157Y148197D01*
X47564Y148422D01*
X47966Y148656D01*
X48362Y148900D01*
X48752Y149154D01*
X49136Y149417D01*
X49513Y149690D01*
X49883Y149971D01*
X50247Y150261D01*
X50603Y150560D01*
X50952Y150868D01*
X51294Y151184D01*
X51628Y151508D01*
X51953Y151841D01*
X52271Y152181D01*
X52580Y152528D01*
X52881Y152883D01*
X53173Y153245D01*
X53456Y153615D01*
X53730Y153991D01*
X53995Y154373D01*
X54251Y154762D01*
X54497Y155157D01*
X54733Y155558D01*
X54960Y155964D01*
X56977Y154889D01*
X56977Y154888D01*
X56723Y154433D01*
X56459Y153983D01*
X56183Y153541D01*
X55897Y153105D01*
X55600Y152676D01*
X55294Y152254D01*
X54976Y151840D01*
X54649Y151434D01*
X54312Y151036D01*
X53966Y150647D01*
X53610Y150265D01*
X53245Y149893D01*
X52871Y149530D01*
X52489Y149175D01*
X52098Y148830D01*
X51698Y148495D01*
X51291Y148170D01*
X50876Y147854D01*
X50453Y147549D01*
X50023Y147254D01*
X49586Y146970D01*
X49142Y146696D01*
X48692Y146433D01*
X48235Y146181D01*
X47773Y145941D01*
X47304Y145711D01*
X46831Y145493D01*
X46352Y145287D01*
X45868Y145092D01*
X45380Y144910D01*
X44887Y144739D01*
X44390Y144580D01*
X43890Y144433D01*
X43386Y144298D01*
X42879Y144176D01*
X42370Y144066D01*
X41857Y143969D01*
X41343Y143884D01*
X40826Y143811D01*
X40309Y143751D01*
X39789Y143704D01*
X39269Y143669D01*
X38748Y143647D01*
X38227Y143637D01*
X38227Y143877D01*
X38742Y143887D01*
X39257Y143909D01*
X39772Y143943D01*
X40285Y143990D01*
X40797Y144049D01*
X41308Y144121D01*
X41816Y144205D01*
X42323Y144302D01*
X42827Y144410D01*
X43328Y144531D01*
X43826Y144664D01*
X44321Y144809D01*
X44812Y144967D01*
X45299Y145136D01*
X45781Y145316D01*
X46260Y145509D01*
X46733Y145713D01*
X47202Y145928D01*
X47665Y146155D01*
X48122Y146393D01*
X48573Y146642D01*
X49019Y146902D01*
X49457Y147172D01*
X49890Y147453D01*
X50315Y147745D01*
X50733Y148047D01*
X51143Y148359D01*
X51546Y148681D01*
X51941Y149012D01*
X52327Y149353D01*
X52706Y149703D01*
X53075Y150063D01*
X53436Y150431D01*
X53788Y150808D01*
X54131Y151193D01*
X54464Y151587D01*
X54787Y151988D01*
X55101Y152397D01*
X55404Y152814D01*
X55697Y153238D01*
X55980Y153669D01*
X56253Y154107D01*
X56514Y154551D01*
X56765Y155001D01*
X56554Y155114D01*
X56306Y154669D01*
X56047Y154230D01*
X55778Y153797D01*
X55498Y153371D01*
X55208Y152952D01*
X54908Y152540D01*
X54598Y152136D01*
X54278Y151739D01*
X53949Y151350D01*
X53610Y150969D01*
X53262Y150596D01*
X52906Y150232D01*
X52540Y149877D01*
X52166Y149531D01*
X51784Y149194D01*
X51394Y148866D01*
X50995Y148548D01*
X50590Y148240D01*
X50176Y147941D01*
X49756Y147653D01*
X49329Y147375D01*
X48895Y147107D01*
X48455Y146851D01*
X48009Y146604D01*
X47557Y146369D01*
X47099Y146145D01*
X46636Y145932D01*
X46168Y145730D01*
X45695Y145540D01*
X45218Y145361D01*
X44736Y145194D01*
X44251Y145039D01*
X43762Y144896D01*
X43269Y144764D01*
X42774Y144644D01*
X42276Y144537D01*
X41775Y144442D01*
X41272Y144358D01*
X40768Y144287D01*
X40261Y144229D01*
X39754Y144182D01*
X39245Y144148D01*
X38736Y144127D01*
X38227Y144117D01*
X38227Y144357D01*
X38730Y144367D01*
X39234Y144388D01*
X39736Y144422D01*
X40238Y144468D01*
X40738Y144526D01*
X41237Y144596D01*
X41734Y144678D01*
X42229Y144772D01*
X42721Y144879D01*
X43211Y144997D01*
X43698Y145127D01*
X44181Y145269D01*
X44661Y145422D01*
X45137Y145587D01*
X45609Y145764D01*
X46076Y145952D01*
X46538Y146151D01*
X46996Y146362D01*
X47449Y146584D01*
X47895Y146816D01*
X48337Y147059D01*
X48772Y147313D01*
X49200Y147578D01*
X49623Y147852D01*
X50038Y148137D01*
X50446Y148432D01*
X50848Y148737D01*
X51241Y149051D01*
X51627Y149375D01*
X52005Y149708D01*
X52375Y150051D01*
X52736Y150402D01*
X53088Y150762D01*
X53432Y151130D01*
X53767Y151506D01*
X54092Y151891D01*
X54408Y152283D01*
X54715Y152683D01*
X55011Y153090D01*
X55298Y153504D01*
X55575Y153925D01*
X55841Y154353D01*
X56097Y154787D01*
X56342Y155227D01*
X56130Y155340D01*
X55888Y154905D01*
X55635Y154476D01*
X55372Y154054D01*
X55098Y153637D01*
X54815Y153228D01*
X54522Y152826D01*
X54219Y152431D01*
X53907Y152043D01*
X53585Y151663D01*
X53254Y151291D01*
X52914Y150927D01*
X52566Y150571D01*
X52209Y150224D01*
X51844Y149886D01*
X51470Y149557D01*
X51089Y149237D01*
X50700Y148926D01*
X50303Y148625D01*
X49900Y148334D01*
X49489Y148052D01*
X49072Y147780D01*
X48648Y147519D01*
X48218Y147268D01*
X47782Y147028D01*
X47341Y146798D01*
X46893Y146579D01*
X46441Y146371D01*
X45984Y146174D01*
X45522Y145988D01*
X45056Y145813D01*
X44586Y145650D01*
X44111Y145498D01*
X43634Y145358D01*
X43153Y145230D01*
X42669Y145113D01*
X42182Y145008D01*
X41693Y144914D01*
X41202Y144833D01*
X40709Y144764D01*
X40214Y144706D01*
X39719Y144661D01*
X39222Y144628D01*
X38724Y144607D01*
X38227Y144597D01*
X38227Y144837D01*
X38718Y144846D01*
X39210Y144867D01*
X39701Y144900D01*
X40191Y144945D01*
X40679Y145002D01*
X41167Y145071D01*
X41652Y145151D01*
X42135Y145243D01*
X42616Y145347D01*
X43094Y145462D01*
X43570Y145589D01*
X44042Y145728D01*
X44510Y145878D01*
X44975Y146039D01*
X45436Y146212D01*
X45892Y146396D01*
X46344Y146590D01*
X46791Y146796D01*
X47233Y147012D01*
X47669Y147239D01*
X48100Y147477D01*
X48525Y147725D01*
X48943Y147983D01*
X49356Y148251D01*
X49761Y148530D01*
X50160Y148818D01*
X50552Y149115D01*
X50936Y149422D01*
X51313Y149739D01*
X51682Y150064D01*
X52043Y150398D01*
X52396Y150741D01*
X52741Y151092D01*
X53076Y151452D01*
X53403Y151820D01*
X53721Y152195D01*
X54030Y152578D01*
X54329Y152968D01*
X54619Y153366D01*
X54899Y153771D01*
X55169Y154182D01*
X55429Y154599D01*
X55679Y155023D01*
X55918Y155453D01*
X55706Y155566D01*
X55470Y155141D01*
X55223Y154723D01*
X54966Y154310D01*
X54699Y153904D01*
X54422Y153504D01*
X54136Y153111D01*
X53840Y152726D01*
X53535Y152347D01*
X53221Y151976D01*
X52898Y151613D01*
X52567Y151258D01*
X52226Y150911D01*
X51878Y150572D01*
X51521Y150242D01*
X51156Y149920D01*
X50784Y149608D01*
X50404Y149304D01*
X50017Y149010D01*
X49623Y148726D01*
X49222Y148451D01*
X48815Y148186D01*
X48401Y147931D01*
X47981Y147686D01*
X47556Y147451D01*
X47125Y147227D01*
X46688Y147013D01*
X46246Y146810D01*
X45800Y146617D01*
X45349Y146436D01*
X44894Y146265D01*
X44435Y146106D01*
X43972Y145958D01*
X43506Y145821D01*
X43036Y145695D01*
X42563Y145581D01*
X42088Y145478D01*
X41611Y145387D01*
X41131Y145308D01*
X40650Y145240D01*
X40167Y145184D01*
X39683Y145140D01*
X39198Y145107D01*
X38713Y145086D01*
X38227Y145077D01*
X38227Y145317D01*
X38707Y145326D01*
X39186Y145347D01*
X39665Y145379D01*
X40144Y145423D01*
X40621Y145478D01*
X41096Y145545D01*
X41570Y145624D01*
X42041Y145714D01*
X42511Y145815D01*
X42978Y145928D01*
X43441Y146052D01*
X43902Y146187D01*
X44359Y146334D01*
X44813Y146491D01*
X45263Y146660D01*
X45708Y146839D01*
X46149Y147029D01*
X46585Y147230D01*
X47017Y147441D01*
X47443Y147663D01*
X47863Y147894D01*
X48278Y148136D01*
X48686Y148389D01*
X49089Y148650D01*
X49485Y148922D01*
X49874Y149203D01*
X50257Y149494D01*
X50632Y149793D01*
X51000Y150102D01*
X51360Y150419D01*
X51712Y150746D01*
X52056Y151080D01*
X52393Y151423D01*
X52720Y151774D01*
X53039Y152133D01*
X53350Y152499D01*
X53651Y152873D01*
X53943Y153254D01*
X54226Y153642D01*
X54499Y154037D01*
X54763Y154438D01*
X55017Y154846D01*
X55261Y155259D01*
X55495Y155679D01*
X55283Y155792D01*
X55052Y155378D01*
X54811Y154969D01*
X54560Y154566D01*
X54300Y154170D01*
X54030Y153780D01*
X53750Y153397D01*
X53462Y153021D01*
X53164Y152651D01*
X52858Y152289D01*
X52542Y151935D01*
X52219Y151588D01*
X51887Y151250D01*
X51546Y150919D01*
X51198Y150597D01*
X50843Y150283D01*
X50479Y149979D01*
X50109Y149683D01*
X49731Y149396D01*
X49347Y149118D01*
X48955Y148850D01*
X48558Y148591D01*
X48154Y148342D01*
X47745Y148103D01*
X47329Y147874D01*
X46909Y147655D01*
X46483Y147447D01*
X46052Y147248D01*
X45616Y147061D01*
X45176Y146883D01*
X44732Y146717D01*
X44284Y146562D01*
X43832Y146417D01*
X43377Y146283D01*
X42919Y146161D01*
X42458Y146049D01*
X41995Y145949D01*
X41529Y145860D01*
X41061Y145783D01*
X40591Y145717D01*
X40120Y145662D01*
X39648Y145618D01*
X39175Y145587D01*
X38701Y145566D01*
X38227Y145557D01*
X38227Y145797D01*
X38695Y145806D01*
X39163Y145826D01*
X39630Y145858D01*
X40097Y145901D01*
X40562Y145955D01*
X41026Y146020D01*
X41488Y146097D01*
X41948Y146185D01*
X42406Y146284D01*
X42861Y146394D01*
X43313Y146515D01*
X43763Y146647D01*
X44209Y146789D01*
X44651Y146943D01*
X45090Y147107D01*
X45524Y147282D01*
X45954Y147468D01*
X46380Y147663D01*
X46801Y147870D01*
X47216Y148086D01*
X47626Y148312D01*
X48031Y148548D01*
X48429Y148794D01*
X48822Y149049D01*
X49208Y149314D01*
X49588Y149588D01*
X49961Y149872D01*
X50327Y150164D01*
X50686Y150465D01*
X51037Y150775D01*
X51381Y151093D01*
X51717Y151419D01*
X52045Y151754D01*
X52364Y152096D01*
X52676Y152446D01*
X52979Y152803D01*
X53272Y153168D01*
X53558Y153540D01*
X53833Y153918D01*
X54100Y154303D01*
X54357Y154695D01*
X54605Y155092D01*
X54843Y155496D01*
X55071Y155905D01*
X37974Y186562D02*
X37974Y184276D01*
X37973Y184277D02*
X37505Y184268D01*
X37037Y184247D01*
X36569Y184216D01*
X36102Y184173D01*
X35637Y184118D01*
X35173Y184052D01*
X34711Y183975D01*
X34251Y183887D01*
X33793Y183787D01*
X33337Y183676D01*
X32885Y183554D01*
X32436Y183421D01*
X31990Y183277D01*
X31547Y183123D01*
X31109Y182957D01*
X30675Y182781D01*
X30245Y182594D01*
X29820Y182397D01*
X29400Y182190D01*
X28985Y181972D01*
X28575Y181744D01*
X28171Y181507D01*
X27773Y181259D01*
X27382Y181002D01*
X26996Y180735D01*
X26617Y180459D01*
X26246Y180174D01*
X25881Y179880D01*
X25523Y179577D01*
X25173Y179265D01*
X24831Y178945D01*
X24497Y178617D01*
X24171Y178281D01*
X23853Y177936D01*
X23543Y177584D01*
X21799Y179061D01*
X21798Y179061D01*
X22145Y179456D01*
X22501Y179842D01*
X22866Y180219D01*
X23241Y180588D01*
X23624Y180947D01*
X24017Y181296D01*
X24417Y181636D01*
X24826Y181966D01*
X25243Y182286D01*
X25667Y182595D01*
X26099Y182894D01*
X26538Y183183D01*
X26984Y183460D01*
X27437Y183727D01*
X27896Y183982D01*
X28361Y184226D01*
X28832Y184459D01*
X29309Y184680D01*
X29791Y184889D01*
X30278Y185087D01*
X30769Y185272D01*
X31265Y185446D01*
X31765Y185607D01*
X32269Y185756D01*
X32776Y185892D01*
X33287Y186016D01*
X33800Y186128D01*
X34316Y186227D01*
X34834Y186313D01*
X35354Y186387D01*
X35876Y186447D01*
X36399Y186495D01*
X36923Y186531D01*
X37448Y186553D01*
X37973Y186563D01*
X37973Y186323D01*
X37454Y186313D01*
X36935Y186291D01*
X36417Y186256D01*
X35900Y186209D01*
X35384Y186148D01*
X34870Y186076D01*
X34357Y185990D01*
X33847Y185893D01*
X33340Y185782D01*
X32835Y185660D01*
X32333Y185525D01*
X31835Y185377D01*
X31341Y185218D01*
X30851Y185047D01*
X30365Y184863D01*
X29884Y184668D01*
X29407Y184461D01*
X28936Y184243D01*
X28470Y184013D01*
X28010Y183771D01*
X27557Y183519D01*
X27109Y183255D01*
X26668Y182981D01*
X26234Y182696D01*
X25807Y182400D01*
X25387Y182094D01*
X24975Y181778D01*
X24571Y181452D01*
X24175Y181116D01*
X23787Y180770D01*
X23408Y180415D01*
X23038Y180051D01*
X22676Y179678D01*
X22324Y179296D01*
X21981Y178906D01*
X22165Y178751D01*
X22503Y179137D01*
X22851Y179514D01*
X23209Y179883D01*
X23575Y180243D01*
X23950Y180594D01*
X24333Y180935D01*
X24725Y181267D01*
X25124Y181590D01*
X25531Y181902D01*
X25946Y182205D01*
X26368Y182497D01*
X26798Y182779D01*
X27234Y183050D01*
X27676Y183311D01*
X28125Y183560D01*
X28579Y183799D01*
X29040Y184026D01*
X29505Y184242D01*
X29976Y184447D01*
X30452Y184640D01*
X30933Y184821D01*
X31417Y184990D01*
X31906Y185148D01*
X32398Y185293D01*
X32894Y185427D01*
X33393Y185548D01*
X33895Y185657D01*
X34399Y185754D01*
X34905Y185838D01*
X35414Y185910D01*
X35924Y185970D01*
X36435Y186017D01*
X36947Y186051D01*
X37460Y186073D01*
X37973Y186083D01*
X37973Y185843D01*
X37466Y185833D01*
X36959Y185812D01*
X36453Y185777D01*
X35947Y185731D01*
X35443Y185672D01*
X34941Y185601D01*
X34440Y185518D01*
X33942Y185422D01*
X33446Y185314D01*
X32953Y185194D01*
X32463Y185062D01*
X31976Y184918D01*
X31493Y184763D01*
X31014Y184595D01*
X30539Y184416D01*
X30069Y184225D01*
X29604Y184023D01*
X29143Y183810D01*
X28688Y183585D01*
X28239Y183349D01*
X27795Y183102D01*
X27358Y182845D01*
X26927Y182577D01*
X26503Y182298D01*
X26086Y182010D01*
X25676Y181711D01*
X25273Y181402D01*
X24878Y181083D01*
X24491Y180755D01*
X24112Y180417D01*
X23742Y180070D01*
X23380Y179715D01*
X23027Y179350D01*
X22683Y178977D01*
X22348Y178596D01*
X22531Y178441D01*
X22862Y178818D01*
X23202Y179186D01*
X23551Y179546D01*
X23909Y179898D01*
X24275Y180241D01*
X24649Y180574D01*
X25032Y180899D01*
X25422Y181214D01*
X25820Y181519D01*
X26225Y181814D01*
X26638Y182100D01*
X27057Y182375D01*
X27483Y182640D01*
X27915Y182894D01*
X28353Y183138D01*
X28797Y183371D01*
X29247Y183593D01*
X29702Y183804D01*
X30162Y184004D01*
X30627Y184192D01*
X31096Y184370D01*
X31569Y184535D01*
X32047Y184689D01*
X32528Y184831D01*
X33012Y184962D01*
X33499Y185080D01*
X33989Y185187D01*
X34482Y185281D01*
X34976Y185364D01*
X35473Y185434D01*
X35971Y185492D01*
X36471Y185538D01*
X36971Y185572D01*
X37472Y185593D01*
X37973Y185603D01*
X37973Y185363D01*
X37478Y185353D01*
X36983Y185332D01*
X36488Y185299D01*
X35995Y185253D01*
X35503Y185196D01*
X35012Y185126D01*
X34523Y185045D01*
X34037Y184951D01*
X33552Y184846D01*
X33071Y184729D01*
X32592Y184600D01*
X32117Y184460D01*
X31645Y184307D01*
X31178Y184144D01*
X30714Y183969D01*
X30255Y183783D01*
X29800Y183585D01*
X29351Y183377D01*
X28906Y183157D01*
X28468Y182927D01*
X28034Y182686D01*
X27607Y182435D01*
X27187Y182173D01*
X26772Y181901D01*
X26365Y181619D01*
X25964Y181327D01*
X25571Y181025D01*
X25186Y180714D01*
X24808Y180394D01*
X24438Y180064D01*
X24076Y179726D01*
X23722Y179378D01*
X23377Y179022D01*
X23041Y178658D01*
X22714Y178286D01*
X22897Y178131D01*
X23221Y178499D01*
X23553Y178858D01*
X23893Y179210D01*
X24243Y179553D01*
X24600Y179888D01*
X24966Y180213D01*
X25339Y180530D01*
X25720Y180837D01*
X26109Y181135D01*
X26504Y181424D01*
X26907Y181702D01*
X27316Y181971D01*
X27732Y182230D01*
X28154Y182478D01*
X28582Y182716D01*
X29015Y182943D01*
X29454Y183160D01*
X29899Y183366D01*
X30348Y183561D01*
X30801Y183745D01*
X31259Y183918D01*
X31721Y184080D01*
X32187Y184230D01*
X32657Y184369D01*
X33130Y184496D01*
X33605Y184612D01*
X34084Y184716D01*
X34565Y184808D01*
X35048Y184889D01*
X35532Y184958D01*
X36019Y185015D01*
X36506Y185059D01*
X36995Y185092D01*
X37484Y185114D01*
X37973Y185123D01*
X37973Y184883D01*
X37490Y184874D01*
X37007Y184853D01*
X36524Y184820D01*
X36042Y184776D01*
X35562Y184720D01*
X35083Y184652D01*
X34606Y184572D01*
X34131Y184481D01*
X33659Y184378D01*
X33189Y184264D01*
X32722Y184138D01*
X32258Y184001D01*
X31798Y183852D01*
X31341Y183693D01*
X30889Y183522D01*
X30440Y183340D01*
X29997Y183147D01*
X29558Y182944D01*
X29124Y182730D01*
X28696Y182505D01*
X28273Y182270D01*
X27857Y182025D01*
X27446Y181769D01*
X27042Y181504D01*
X26644Y181228D01*
X26253Y180944D01*
X25869Y180649D01*
X25493Y180346D01*
X25124Y180033D01*
X24763Y179711D01*
X24410Y179381D01*
X24065Y179042D01*
X23728Y178695D01*
X23400Y178339D01*
X23081Y177976D01*
X23264Y177821D01*
X23579Y178180D01*
X23903Y178531D01*
X24236Y178874D01*
X24577Y179208D01*
X24925Y179535D01*
X25282Y179852D01*
X25647Y180161D01*
X26018Y180461D01*
X26397Y180752D01*
X26783Y181033D01*
X27176Y181305D01*
X27576Y181567D01*
X27981Y181819D01*
X28393Y182062D01*
X28810Y182294D01*
X29233Y182516D01*
X29662Y182727D01*
X30095Y182928D01*
X30533Y183119D01*
X30976Y183298D01*
X31423Y183467D01*
X31874Y183625D01*
X32328Y183771D01*
X32786Y183907D01*
X33248Y184031D01*
X33712Y184144D01*
X34179Y184246D01*
X34648Y184336D01*
X35119Y184414D01*
X35592Y184481D01*
X36066Y184537D01*
X36542Y184581D01*
X37019Y184613D01*
X37496Y184634D01*
X37973Y184643D01*
X37973Y184403D01*
X37502Y184394D01*
X37030Y184373D01*
X36560Y184341D01*
X36090Y184298D01*
X35621Y184243D01*
X35154Y184177D01*
X34689Y184099D01*
X34226Y184010D01*
X33765Y183910D01*
X33307Y183798D01*
X32851Y183676D01*
X32399Y183542D01*
X31950Y183397D01*
X31504Y183241D01*
X31063Y183075D01*
X30626Y182897D01*
X30193Y182709D01*
X29765Y182511D01*
X29342Y182302D01*
X28925Y182083D01*
X28512Y181854D01*
X28106Y181614D01*
X27705Y181365D01*
X27311Y181106D01*
X26923Y180838D01*
X26542Y180560D01*
X26167Y180273D01*
X25800Y179977D01*
X25440Y179672D01*
X25088Y179358D01*
X24743Y179036D01*
X24407Y178705D01*
X24079Y178367D01*
X23759Y178020D01*
X23447Y177666D01*
X56672Y175859D02*
X54687Y174724D01*
X54688Y174725D02*
X54450Y175123D01*
X54204Y175515D01*
X53947Y175900D01*
X53682Y176280D01*
X53408Y176653D01*
X53124Y177019D01*
X52832Y177378D01*
X52531Y177730D01*
X52222Y178075D01*
X51905Y178412D01*
X51579Y178742D01*
X51246Y179063D01*
X50905Y179377D01*
X50556Y179682D01*
X50201Y179978D01*
X49838Y180266D01*
X49468Y180545D01*
X49092Y180815D01*
X48709Y181076D01*
X48320Y181327D01*
X47926Y181569D01*
X47525Y181802D01*
X47119Y182024D01*
X46708Y182237D01*
X46291Y182440D01*
X45870Y182633D01*
X45445Y182815D01*
X45015Y182987D01*
X44581Y183149D01*
X44143Y183300D01*
X43702Y183441D01*
X43257Y183571D01*
X42810Y183690D01*
X42360Y183798D01*
X41907Y183896D01*
X41452Y183982D01*
X40995Y184057D01*
X40536Y184122D01*
X40076Y184175D01*
X39615Y184217D01*
X39153Y184248D01*
X38690Y184268D01*
X38227Y184277D01*
X38227Y186562D01*
X38227Y186563D01*
X38746Y186553D01*
X39265Y186531D01*
X39783Y186497D01*
X40300Y186450D01*
X40815Y186391D01*
X41329Y186319D01*
X41841Y186235D01*
X42351Y186138D01*
X42859Y186029D01*
X43363Y185908D01*
X43865Y185775D01*
X44363Y185629D01*
X44858Y185472D01*
X45348Y185302D01*
X45835Y185121D01*
X46317Y184928D01*
X46794Y184724D01*
X47265Y184508D01*
X47732Y184281D01*
X48193Y184042D01*
X48648Y183793D01*
X49097Y183532D01*
X49539Y183261D01*
X49975Y182979D01*
X50404Y182687D01*
X50826Y182384D01*
X51240Y182071D01*
X51646Y181749D01*
X52045Y181416D01*
X52436Y181074D01*
X52818Y180723D01*
X53191Y180363D01*
X53556Y179993D01*
X53911Y179615D01*
X54258Y179229D01*
X54595Y178834D01*
X54922Y178431D01*
X55239Y178021D01*
X55547Y177602D01*
X55844Y177177D01*
X56131Y176744D01*
X56407Y176305D01*
X56672Y175859D01*
X56464Y175740D01*
X56202Y176181D01*
X55928Y176615D01*
X55645Y177043D01*
X55351Y177464D01*
X55047Y177877D01*
X54733Y178283D01*
X54409Y178681D01*
X54076Y179072D01*
X53734Y179454D01*
X53382Y179827D01*
X53022Y180193D01*
X52653Y180549D01*
X52275Y180896D01*
X51889Y181234D01*
X51495Y181563D01*
X51093Y181882D01*
X50683Y182191D01*
X50266Y182490D01*
X49842Y182779D01*
X49411Y183058D01*
X48974Y183326D01*
X48530Y183584D01*
X48080Y183830D01*
X47625Y184066D01*
X47163Y184291D01*
X46697Y184504D01*
X46225Y184707D01*
X45749Y184897D01*
X45268Y185076D01*
X44783Y185244D01*
X44294Y185399D01*
X43801Y185543D01*
X43305Y185675D01*
X42806Y185795D01*
X42305Y185903D01*
X41800Y185998D01*
X41294Y186081D01*
X40786Y186152D01*
X40276Y186211D01*
X39765Y186258D01*
X39253Y186292D01*
X38740Y186313D01*
X38227Y186323D01*
X38227Y186083D01*
X38735Y186073D01*
X39241Y186052D01*
X39748Y186018D01*
X40253Y185972D01*
X40757Y185914D01*
X41259Y185844D01*
X41760Y185762D01*
X42258Y185667D01*
X42754Y185561D01*
X43247Y185442D01*
X43737Y185312D01*
X44224Y185170D01*
X44708Y185016D01*
X45187Y184850D01*
X45663Y184673D01*
X46133Y184485D01*
X46600Y184285D01*
X47061Y184074D01*
X47517Y183852D01*
X47968Y183619D01*
X48412Y183375D01*
X48851Y183120D01*
X49284Y182855D01*
X49709Y182579D01*
X50129Y182294D01*
X50541Y181998D01*
X50946Y181692D01*
X51343Y181377D01*
X51732Y181052D01*
X52114Y180718D01*
X52488Y180375D01*
X52853Y180022D01*
X53209Y179661D01*
X53557Y179292D01*
X53895Y178914D01*
X54224Y178528D01*
X54544Y178135D01*
X54855Y177733D01*
X55155Y177325D01*
X55446Y176909D01*
X55726Y176486D01*
X55996Y176057D01*
X56256Y175621D01*
X56047Y175502D01*
X55791Y175933D01*
X55524Y176357D01*
X55247Y176775D01*
X54959Y177186D01*
X54662Y177590D01*
X54356Y177986D01*
X54039Y178376D01*
X53714Y178757D01*
X53379Y179130D01*
X53036Y179495D01*
X52683Y179852D01*
X52323Y180200D01*
X51953Y180540D01*
X51576Y180870D01*
X51191Y181191D01*
X50798Y181503D01*
X50398Y181805D01*
X49991Y182097D01*
X49577Y182380D01*
X49156Y182652D01*
X48728Y182914D01*
X48294Y183166D01*
X47855Y183407D01*
X47409Y183637D01*
X46959Y183857D01*
X46503Y184065D01*
X46042Y184263D01*
X45576Y184449D01*
X45107Y184624D01*
X44633Y184788D01*
X44155Y184940D01*
X43674Y185080D01*
X43189Y185209D01*
X42701Y185326D01*
X42211Y185432D01*
X41719Y185525D01*
X41224Y185607D01*
X40727Y185676D01*
X40229Y185734D01*
X39730Y185779D01*
X39230Y185812D01*
X38729Y185833D01*
X38227Y185843D01*
X38227Y185603D01*
X38723Y185594D01*
X39218Y185573D01*
X39712Y185540D01*
X40206Y185495D01*
X40698Y185438D01*
X41189Y185369D01*
X41678Y185289D01*
X42165Y185196D01*
X42649Y185092D01*
X43131Y184976D01*
X43610Y184849D01*
X44085Y184710D01*
X44558Y184560D01*
X45026Y184398D01*
X45490Y184225D01*
X45950Y184041D01*
X46406Y183846D01*
X46856Y183640D01*
X47302Y183423D01*
X47742Y183195D01*
X48176Y182957D01*
X48605Y182708D01*
X49028Y182449D01*
X49444Y182180D01*
X49853Y181901D01*
X50256Y181612D01*
X50651Y181313D01*
X51039Y181005D01*
X51420Y180688D01*
X51793Y180361D01*
X52157Y180026D01*
X52514Y179682D01*
X52862Y179329D01*
X53202Y178969D01*
X53533Y178600D01*
X53854Y178223D01*
X54167Y177838D01*
X54470Y177446D01*
X54764Y177047D01*
X55047Y176641D01*
X55321Y176228D01*
X55585Y175809D01*
X55839Y175383D01*
X55631Y175264D01*
X55380Y175684D01*
X55119Y176099D01*
X54848Y176507D01*
X54568Y176908D01*
X54278Y177303D01*
X53978Y177690D01*
X53669Y178070D01*
X53351Y178442D01*
X53025Y178807D01*
X52689Y179163D01*
X52345Y179512D01*
X51992Y179852D01*
X51632Y180183D01*
X51264Y180506D01*
X50887Y180819D01*
X50504Y181124D01*
X50113Y181419D01*
X49715Y181704D01*
X49311Y181980D01*
X48900Y182246D01*
X48482Y182502D01*
X48059Y182748D01*
X47629Y182983D01*
X47194Y183208D01*
X46754Y183422D01*
X46309Y183626D01*
X45859Y183819D01*
X45404Y184001D01*
X44945Y184172D01*
X44483Y184332D01*
X44016Y184480D01*
X43546Y184618D01*
X43073Y184744D01*
X42597Y184858D01*
X42118Y184961D01*
X41637Y185052D01*
X41154Y185132D01*
X40669Y185200D01*
X40182Y185256D01*
X39695Y185300D01*
X39206Y185333D01*
X38717Y185354D01*
X38227Y185363D01*
X38227Y185123D01*
X38711Y185114D01*
X39194Y185093D01*
X39677Y185061D01*
X40159Y185017D01*
X40640Y184961D01*
X41119Y184894D01*
X41596Y184816D01*
X42071Y184725D01*
X42544Y184624D01*
X43015Y184511D01*
X43482Y184386D01*
X43947Y184251D01*
X44408Y184104D01*
X44865Y183946D01*
X45318Y183777D01*
X45767Y183597D01*
X46212Y183407D01*
X46652Y183205D01*
X47087Y182993D01*
X47516Y182771D01*
X47941Y182539D01*
X48359Y182296D01*
X48772Y182043D01*
X49178Y181780D01*
X49578Y181508D01*
X49971Y181226D01*
X50357Y180934D01*
X50736Y180633D01*
X51107Y180324D01*
X51471Y180005D01*
X51827Y179678D01*
X52176Y179342D01*
X52516Y178997D01*
X52847Y178645D01*
X53170Y178285D01*
X53484Y177917D01*
X53789Y177542D01*
X54085Y177159D01*
X54372Y176769D01*
X54649Y176373D01*
X54917Y175970D01*
X55174Y175560D01*
X55422Y175145D01*
X55214Y175026D01*
X54969Y175436D01*
X54714Y175841D01*
X54450Y176239D01*
X54176Y176630D01*
X53893Y177015D01*
X53601Y177393D01*
X53299Y177764D01*
X52989Y178128D01*
X52670Y178483D01*
X52342Y178831D01*
X52006Y179171D01*
X51662Y179503D01*
X51311Y179827D01*
X50951Y180141D01*
X50584Y180447D01*
X50209Y180745D01*
X49828Y181032D01*
X49440Y181311D01*
X49045Y181580D01*
X48644Y181840D01*
X48236Y182090D01*
X47823Y182329D01*
X47404Y182559D01*
X46979Y182779D01*
X46550Y182988D01*
X46115Y183187D01*
X45676Y183375D01*
X45232Y183553D01*
X44784Y183720D01*
X44333Y183876D01*
X43877Y184021D01*
X43418Y184155D01*
X42957Y184278D01*
X42492Y184390D01*
X42025Y184490D01*
X41555Y184579D01*
X41084Y184657D01*
X40610Y184723D01*
X40136Y184778D01*
X39660Y184822D01*
X39183Y184853D01*
X38705Y184874D01*
X38227Y184883D01*
X38227Y184643D01*
X38699Y184634D01*
X39171Y184614D01*
X39642Y184582D01*
X40112Y184539D01*
X40581Y184485D01*
X41049Y184419D01*
X41514Y184343D01*
X41978Y184255D01*
X42440Y184155D01*
X42898Y184045D01*
X43355Y183924D01*
X43808Y183791D01*
X44258Y183648D01*
X44704Y183494D01*
X45146Y183329D01*
X45584Y183154D01*
X46018Y182968D01*
X46447Y182771D01*
X46872Y182564D01*
X47291Y182347D01*
X47705Y182120D01*
X48113Y181884D01*
X48516Y181637D01*
X48912Y181380D01*
X49302Y181115D01*
X49686Y180839D01*
X50062Y180555D01*
X50432Y180262D01*
X50795Y179959D01*
X51150Y179648D01*
X51497Y179329D01*
X51837Y179001D01*
X52169Y178665D01*
X52492Y178322D01*
X52808Y177970D01*
X53114Y177611D01*
X53412Y177245D01*
X53701Y176872D01*
X53981Y176492D01*
X54251Y176105D01*
X54512Y175711D01*
X54764Y175312D01*
X55005Y174907D01*
X54797Y174787D01*
X54558Y175188D01*
X54310Y175582D01*
X54052Y175971D01*
X53785Y176353D01*
X53509Y176728D01*
X53223Y177097D01*
X52929Y177459D01*
X52626Y177813D01*
X52315Y178160D01*
X51996Y178499D01*
X51668Y178831D01*
X51332Y179155D01*
X50989Y179470D01*
X50638Y179777D01*
X50280Y180076D01*
X49915Y180365D01*
X49543Y180646D01*
X49164Y180918D01*
X48779Y181181D01*
X48388Y181434D01*
X47990Y181677D01*
X47587Y181911D01*
X47178Y182136D01*
X46764Y182350D01*
X46345Y182554D01*
X45921Y182748D01*
X45493Y182932D01*
X45060Y183105D01*
X44623Y183268D01*
X44183Y183420D01*
X43738Y183561D01*
X43291Y183692D01*
X42840Y183812D01*
X42387Y183921D01*
X41931Y184019D01*
X41473Y184106D01*
X41013Y184182D01*
X40552Y184247D01*
X40089Y184300D01*
X39624Y184343D01*
X39159Y184374D01*
X38694Y184394D01*
X38227Y184403D01*
D11*
X56642Y147828D02*
X64008Y147828D01*
X60452Y144018D02*
X60452Y151892D01*
X-19533Y149225D02*
X-19533Y160655D01*
X-19533Y149225D02*
X-14453Y149225D01*
X-9627Y149225D02*
X-4547Y149225D01*
X-9627Y149225D02*
X-9627Y160655D01*
X-4547Y160655D01*
X-5817Y155575D02*
X-9627Y155575D01*
X254Y160655D02*
X254Y149225D01*
X254Y160655D02*
X3429Y160655D01*
X3540Y160653D01*
X3650Y160647D01*
X3761Y160638D01*
X3871Y160624D01*
X3980Y160607D01*
X4089Y160586D01*
X4197Y160561D01*
X4304Y160532D01*
X4410Y160500D01*
X4515Y160464D01*
X4618Y160424D01*
X4720Y160381D01*
X4821Y160334D01*
X4920Y160283D01*
X5016Y160230D01*
X5111Y160173D01*
X5204Y160112D01*
X5295Y160049D01*
X5384Y159982D01*
X5470Y159912D01*
X5553Y159839D01*
X5635Y159764D01*
X5713Y159686D01*
X5788Y159604D01*
X5861Y159521D01*
X5931Y159435D01*
X5998Y159346D01*
X6061Y159255D01*
X6122Y159162D01*
X6179Y159068D01*
X6232Y158971D01*
X6283Y158872D01*
X6330Y158771D01*
X6373Y158669D01*
X6413Y158566D01*
X6449Y158461D01*
X6481Y158355D01*
X6510Y158248D01*
X6535Y158140D01*
X6556Y158031D01*
X6573Y157922D01*
X6587Y157812D01*
X6596Y157701D01*
X6602Y157591D01*
X6604Y157480D01*
X6604Y152400D01*
X6602Y152289D01*
X6596Y152179D01*
X6587Y152068D01*
X6573Y151958D01*
X6556Y151849D01*
X6535Y151740D01*
X6510Y151632D01*
X6481Y151525D01*
X6449Y151419D01*
X6413Y151314D01*
X6373Y151211D01*
X6330Y151109D01*
X6283Y151008D01*
X6232Y150909D01*
X6179Y150812D01*
X6122Y150718D01*
X6061Y150625D01*
X5998Y150534D01*
X5931Y150445D01*
X5861Y150359D01*
X5788Y150276D01*
X5713Y150194D01*
X5635Y150116D01*
X5553Y150041D01*
X5470Y149968D01*
X5384Y149898D01*
X5295Y149831D01*
X5204Y149768D01*
X5111Y149707D01*
X5016Y149650D01*
X4920Y149597D01*
X4821Y149546D01*
X4720Y149499D01*
X4618Y149456D01*
X4515Y149416D01*
X4410Y149380D01*
X4304Y149348D01*
X4197Y149319D01*
X4089Y149294D01*
X3980Y149273D01*
X3871Y149256D01*
X3761Y149242D01*
X3650Y149233D01*
X3540Y149227D01*
X3429Y149225D01*
X254Y149225D01*
X15558Y160656D02*
X15662Y160654D01*
X15767Y160648D01*
X15871Y160639D01*
X15974Y160626D01*
X16077Y160608D01*
X16179Y160588D01*
X16281Y160563D01*
X16381Y160535D01*
X16481Y160503D01*
X16579Y160467D01*
X16676Y160428D01*
X16771Y160386D01*
X16865Y160340D01*
X16957Y160290D01*
X17047Y160238D01*
X17135Y160182D01*
X17221Y160122D01*
X17305Y160060D01*
X17386Y159995D01*
X17465Y159927D01*
X17542Y159855D01*
X17615Y159782D01*
X17687Y159705D01*
X17755Y159626D01*
X17820Y159545D01*
X17882Y159461D01*
X17942Y159375D01*
X17998Y159287D01*
X18050Y159197D01*
X18100Y159105D01*
X18146Y159011D01*
X18188Y158916D01*
X18227Y158819D01*
X18263Y158721D01*
X18295Y158621D01*
X18323Y158521D01*
X18348Y158419D01*
X18368Y158317D01*
X18386Y158214D01*
X18399Y158111D01*
X18408Y158007D01*
X18414Y157902D01*
X18416Y157798D01*
X15558Y160655D02*
X15440Y160653D01*
X15321Y160647D01*
X15203Y160638D01*
X15086Y160625D01*
X14969Y160607D01*
X14852Y160587D01*
X14736Y160562D01*
X14621Y160534D01*
X14508Y160501D01*
X14395Y160466D01*
X14283Y160426D01*
X14173Y160384D01*
X14064Y160337D01*
X13956Y160287D01*
X13851Y160234D01*
X13747Y160177D01*
X13645Y160117D01*
X13545Y160054D01*
X13447Y159987D01*
X13351Y159918D01*
X13258Y159845D01*
X13167Y159769D01*
X13078Y159691D01*
X12992Y159609D01*
X12909Y159525D01*
X12828Y159439D01*
X12751Y159349D01*
X12676Y159258D01*
X12604Y159164D01*
X12535Y159067D01*
X12470Y158969D01*
X12407Y158868D01*
X12348Y158765D01*
X12292Y158661D01*
X12240Y158555D01*
X12191Y158447D01*
X12146Y158338D01*
X12104Y158227D01*
X12066Y158115D01*
X17463Y155576D02*
X17539Y155651D01*
X17614Y155730D01*
X17685Y155811D01*
X17754Y155895D01*
X17819Y155981D01*
X17881Y156069D01*
X17941Y156159D01*
X17997Y156251D01*
X18050Y156346D01*
X18099Y156442D01*
X18145Y156540D01*
X18188Y156639D01*
X18227Y156740D01*
X18262Y156842D01*
X18294Y156945D01*
X18322Y157049D01*
X18347Y157154D01*
X18368Y157261D01*
X18385Y157367D01*
X18398Y157474D01*
X18407Y157582D01*
X18413Y157690D01*
X18415Y157798D01*
X17463Y155575D02*
X12065Y149225D01*
X18415Y149225D01*
D10*
X236220Y241300D02*
X236320Y241298D01*
X236419Y241292D01*
X236519Y241282D01*
X236617Y241269D01*
X236716Y241251D01*
X236813Y241230D01*
X236909Y241205D01*
X237005Y241176D01*
X237099Y241143D01*
X237192Y241107D01*
X237283Y241067D01*
X237373Y241023D01*
X237461Y240976D01*
X237547Y240926D01*
X237631Y240872D01*
X237713Y240815D01*
X237792Y240755D01*
X237870Y240691D01*
X237944Y240625D01*
X238016Y240556D01*
X238085Y240484D01*
X238151Y240410D01*
X238215Y240332D01*
X238275Y240253D01*
X238332Y240171D01*
X238386Y240087D01*
X238436Y240001D01*
X238483Y239913D01*
X238527Y239823D01*
X238567Y239732D01*
X238603Y239639D01*
X238636Y239545D01*
X238665Y239449D01*
X238690Y239353D01*
X238711Y239256D01*
X238729Y239157D01*
X238742Y239059D01*
X238752Y238959D01*
X238758Y238860D01*
X238760Y238760D01*
X220980Y241300D02*
X220880Y241298D01*
X220781Y241292D01*
X220681Y241282D01*
X220583Y241269D01*
X220484Y241251D01*
X220387Y241230D01*
X220291Y241205D01*
X220195Y241176D01*
X220101Y241143D01*
X220008Y241107D01*
X219917Y241067D01*
X219827Y241023D01*
X219739Y240976D01*
X219653Y240926D01*
X219569Y240872D01*
X219487Y240815D01*
X219408Y240755D01*
X219330Y240691D01*
X219256Y240625D01*
X219184Y240556D01*
X219115Y240484D01*
X219049Y240410D01*
X218985Y240332D01*
X218925Y240253D01*
X218868Y240171D01*
X218814Y240087D01*
X218764Y240001D01*
X218717Y239913D01*
X218673Y239823D01*
X218633Y239732D01*
X218597Y239639D01*
X218564Y239545D01*
X218535Y239449D01*
X218510Y239353D01*
X218489Y239256D01*
X218471Y239157D01*
X218458Y239059D01*
X218448Y238959D01*
X218442Y238860D01*
X218440Y238760D01*
X218440Y193040D02*
X218442Y192940D01*
X218448Y192841D01*
X218458Y192741D01*
X218471Y192643D01*
X218489Y192544D01*
X218510Y192447D01*
X218535Y192351D01*
X218564Y192255D01*
X218597Y192161D01*
X218633Y192068D01*
X218673Y191977D01*
X218717Y191887D01*
X218764Y191799D01*
X218814Y191713D01*
X218868Y191629D01*
X218925Y191547D01*
X218985Y191468D01*
X219049Y191390D01*
X219115Y191316D01*
X219184Y191244D01*
X219256Y191175D01*
X219330Y191109D01*
X219408Y191045D01*
X219487Y190985D01*
X219569Y190928D01*
X219653Y190874D01*
X219739Y190824D01*
X219827Y190777D01*
X219917Y190733D01*
X220008Y190693D01*
X220101Y190657D01*
X220195Y190624D01*
X220291Y190595D01*
X220387Y190570D01*
X220484Y190549D01*
X220583Y190531D01*
X220681Y190518D01*
X220781Y190508D01*
X220880Y190502D01*
X220980Y190500D01*
X236220Y190500D02*
X236320Y190502D01*
X236419Y190508D01*
X236519Y190518D01*
X236617Y190531D01*
X236716Y190549D01*
X236813Y190570D01*
X236909Y190595D01*
X237005Y190624D01*
X237099Y190657D01*
X237192Y190693D01*
X237283Y190733D01*
X237373Y190777D01*
X237461Y190824D01*
X237547Y190874D01*
X237631Y190928D01*
X237713Y190985D01*
X237792Y191045D01*
X237870Y191109D01*
X237944Y191175D01*
X238016Y191244D01*
X238085Y191316D01*
X238151Y191390D01*
X238215Y191468D01*
X238275Y191547D01*
X238332Y191629D01*
X238386Y191713D01*
X238436Y191799D01*
X238483Y191887D01*
X238527Y191977D01*
X238567Y192068D01*
X238603Y192161D01*
X238636Y192255D01*
X238665Y192351D01*
X238690Y192447D01*
X238711Y192544D01*
X238729Y192643D01*
X238742Y192741D01*
X238752Y192841D01*
X238758Y192940D01*
X238760Y193040D01*
X236220Y241300D02*
X220980Y241300D01*
X238760Y238760D02*
X238760Y234950D01*
X237490Y233680D01*
X218440Y234950D02*
X218440Y238760D01*
X218440Y234950D02*
X219710Y233680D01*
X237490Y198120D02*
X238760Y196850D01*
X237490Y198120D02*
X237490Y233680D01*
X219710Y198120D02*
X218440Y196850D01*
X219710Y198120D02*
X219710Y233680D01*
X238760Y196850D02*
X238760Y193040D01*
X218440Y193040D02*
X218440Y196850D01*
X220980Y190500D02*
X236220Y190500D01*
D14*
X228600Y188595D03*
X228600Y243205D03*
D15*
X242062Y227003D02*
X250952Y227003D01*
X242062Y227003D02*
X242062Y229473D01*
X242064Y229571D01*
X242070Y229669D01*
X242080Y229767D01*
X242093Y229864D01*
X242111Y229961D01*
X242132Y230057D01*
X242157Y230151D01*
X242186Y230245D01*
X242218Y230338D01*
X242255Y230429D01*
X242294Y230519D01*
X242338Y230607D01*
X242385Y230693D01*
X242435Y230778D01*
X242488Y230860D01*
X242545Y230940D01*
X242605Y231018D01*
X242668Y231093D01*
X242734Y231166D01*
X242803Y231236D01*
X242874Y231303D01*
X242948Y231368D01*
X243025Y231429D01*
X243104Y231488D01*
X243185Y231543D01*
X243268Y231595D01*
X243354Y231643D01*
X243441Y231688D01*
X243530Y231730D01*
X243620Y231768D01*
X243712Y231802D01*
X243805Y231833D01*
X243900Y231860D01*
X243995Y231883D01*
X244092Y231903D01*
X244188Y231918D01*
X244286Y231930D01*
X244384Y231938D01*
X244482Y231942D01*
X244580Y231942D01*
X244678Y231938D01*
X244776Y231930D01*
X244874Y231918D01*
X244970Y231903D01*
X245067Y231883D01*
X245162Y231860D01*
X245257Y231833D01*
X245350Y231802D01*
X245442Y231768D01*
X245532Y231730D01*
X245621Y231688D01*
X245708Y231643D01*
X245794Y231595D01*
X245877Y231543D01*
X245958Y231488D01*
X246037Y231429D01*
X246114Y231368D01*
X246188Y231303D01*
X246259Y231236D01*
X246328Y231166D01*
X246394Y231093D01*
X246457Y231018D01*
X246517Y230940D01*
X246574Y230860D01*
X246627Y230778D01*
X246677Y230693D01*
X246724Y230607D01*
X246768Y230519D01*
X246807Y230429D01*
X246844Y230338D01*
X246876Y230245D01*
X246905Y230151D01*
X246930Y230057D01*
X246951Y229961D01*
X246969Y229864D01*
X246982Y229767D01*
X246992Y229669D01*
X246998Y229571D01*
X247000Y229473D01*
X247001Y229473D02*
X247001Y227003D01*
X247001Y229967D02*
X250952Y231942D01*
X244038Y235853D02*
X242062Y238323D01*
X250952Y238323D01*
X250952Y240792D02*
X250952Y235853D01*
D10*
X261620Y241300D02*
X261720Y241298D01*
X261819Y241292D01*
X261919Y241282D01*
X262017Y241269D01*
X262116Y241251D01*
X262213Y241230D01*
X262309Y241205D01*
X262405Y241176D01*
X262499Y241143D01*
X262592Y241107D01*
X262683Y241067D01*
X262773Y241023D01*
X262861Y240976D01*
X262947Y240926D01*
X263031Y240872D01*
X263113Y240815D01*
X263192Y240755D01*
X263270Y240691D01*
X263344Y240625D01*
X263416Y240556D01*
X263485Y240484D01*
X263551Y240410D01*
X263615Y240332D01*
X263675Y240253D01*
X263732Y240171D01*
X263786Y240087D01*
X263836Y240001D01*
X263883Y239913D01*
X263927Y239823D01*
X263967Y239732D01*
X264003Y239639D01*
X264036Y239545D01*
X264065Y239449D01*
X264090Y239353D01*
X264111Y239256D01*
X264129Y239157D01*
X264142Y239059D01*
X264152Y238959D01*
X264158Y238860D01*
X264160Y238760D01*
X246380Y241300D02*
X246280Y241298D01*
X246181Y241292D01*
X246081Y241282D01*
X245983Y241269D01*
X245884Y241251D01*
X245787Y241230D01*
X245691Y241205D01*
X245595Y241176D01*
X245501Y241143D01*
X245408Y241107D01*
X245317Y241067D01*
X245227Y241023D01*
X245139Y240976D01*
X245053Y240926D01*
X244969Y240872D01*
X244887Y240815D01*
X244808Y240755D01*
X244730Y240691D01*
X244656Y240625D01*
X244584Y240556D01*
X244515Y240484D01*
X244449Y240410D01*
X244385Y240332D01*
X244325Y240253D01*
X244268Y240171D01*
X244214Y240087D01*
X244164Y240001D01*
X244117Y239913D01*
X244073Y239823D01*
X244033Y239732D01*
X243997Y239639D01*
X243964Y239545D01*
X243935Y239449D01*
X243910Y239353D01*
X243889Y239256D01*
X243871Y239157D01*
X243858Y239059D01*
X243848Y238959D01*
X243842Y238860D01*
X243840Y238760D01*
X243840Y193040D02*
X243842Y192940D01*
X243848Y192841D01*
X243858Y192741D01*
X243871Y192643D01*
X243889Y192544D01*
X243910Y192447D01*
X243935Y192351D01*
X243964Y192255D01*
X243997Y192161D01*
X244033Y192068D01*
X244073Y191977D01*
X244117Y191887D01*
X244164Y191799D01*
X244214Y191713D01*
X244268Y191629D01*
X244325Y191547D01*
X244385Y191468D01*
X244449Y191390D01*
X244515Y191316D01*
X244584Y191244D01*
X244656Y191175D01*
X244730Y191109D01*
X244808Y191045D01*
X244887Y190985D01*
X244969Y190928D01*
X245053Y190874D01*
X245139Y190824D01*
X245227Y190777D01*
X245317Y190733D01*
X245408Y190693D01*
X245501Y190657D01*
X245595Y190624D01*
X245691Y190595D01*
X245787Y190570D01*
X245884Y190549D01*
X245983Y190531D01*
X246081Y190518D01*
X246181Y190508D01*
X246280Y190502D01*
X246380Y190500D01*
X261620Y190500D02*
X261720Y190502D01*
X261819Y190508D01*
X261919Y190518D01*
X262017Y190531D01*
X262116Y190549D01*
X262213Y190570D01*
X262309Y190595D01*
X262405Y190624D01*
X262499Y190657D01*
X262592Y190693D01*
X262683Y190733D01*
X262773Y190777D01*
X262861Y190824D01*
X262947Y190874D01*
X263031Y190928D01*
X263113Y190985D01*
X263192Y191045D01*
X263270Y191109D01*
X263344Y191175D01*
X263416Y191244D01*
X263485Y191316D01*
X263551Y191390D01*
X263615Y191468D01*
X263675Y191547D01*
X263732Y191629D01*
X263786Y191713D01*
X263836Y191799D01*
X263883Y191887D01*
X263927Y191977D01*
X263967Y192068D01*
X264003Y192161D01*
X264036Y192255D01*
X264065Y192351D01*
X264090Y192447D01*
X264111Y192544D01*
X264129Y192643D01*
X264142Y192741D01*
X264152Y192841D01*
X264158Y192940D01*
X264160Y193040D01*
X261620Y241300D02*
X246380Y241300D01*
X264160Y238760D02*
X264160Y234950D01*
X262890Y233680D01*
X243840Y234950D02*
X243840Y238760D01*
X243840Y234950D02*
X245110Y233680D01*
X262890Y198120D02*
X264160Y196850D01*
X262890Y198120D02*
X262890Y233680D01*
X245110Y198120D02*
X243840Y196850D01*
X245110Y198120D02*
X245110Y233680D01*
X264160Y196850D02*
X264160Y193040D01*
X243840Y193040D02*
X243840Y196850D01*
X246380Y190500D02*
X261620Y190500D01*
D14*
X254000Y188595D03*
X254000Y243205D03*
D15*
X267462Y227003D02*
X276352Y227003D01*
X267462Y227003D02*
X267462Y229473D01*
X267464Y229571D01*
X267470Y229669D01*
X267480Y229767D01*
X267493Y229864D01*
X267511Y229961D01*
X267532Y230057D01*
X267557Y230151D01*
X267586Y230245D01*
X267618Y230338D01*
X267655Y230429D01*
X267694Y230519D01*
X267738Y230607D01*
X267785Y230693D01*
X267835Y230778D01*
X267888Y230860D01*
X267945Y230940D01*
X268005Y231018D01*
X268068Y231093D01*
X268134Y231166D01*
X268203Y231236D01*
X268274Y231303D01*
X268348Y231368D01*
X268425Y231429D01*
X268504Y231488D01*
X268585Y231543D01*
X268668Y231595D01*
X268754Y231643D01*
X268841Y231688D01*
X268930Y231730D01*
X269020Y231768D01*
X269112Y231802D01*
X269205Y231833D01*
X269300Y231860D01*
X269395Y231883D01*
X269492Y231903D01*
X269588Y231918D01*
X269686Y231930D01*
X269784Y231938D01*
X269882Y231942D01*
X269980Y231942D01*
X270078Y231938D01*
X270176Y231930D01*
X270274Y231918D01*
X270370Y231903D01*
X270467Y231883D01*
X270562Y231860D01*
X270657Y231833D01*
X270750Y231802D01*
X270842Y231768D01*
X270932Y231730D01*
X271021Y231688D01*
X271108Y231643D01*
X271194Y231595D01*
X271277Y231543D01*
X271358Y231488D01*
X271437Y231429D01*
X271514Y231368D01*
X271588Y231303D01*
X271659Y231236D01*
X271728Y231166D01*
X271794Y231093D01*
X271857Y231018D01*
X271917Y230940D01*
X271974Y230860D01*
X272027Y230778D01*
X272077Y230693D01*
X272124Y230607D01*
X272168Y230519D01*
X272207Y230429D01*
X272244Y230338D01*
X272276Y230245D01*
X272305Y230151D01*
X272330Y230057D01*
X272351Y229961D01*
X272369Y229864D01*
X272382Y229767D01*
X272392Y229669D01*
X272398Y229571D01*
X272400Y229473D01*
X272401Y229473D02*
X272401Y227003D01*
X272401Y229967D02*
X276352Y231942D01*
X269685Y240793D02*
X269593Y240791D01*
X269501Y240785D01*
X269410Y240776D01*
X269319Y240763D01*
X269229Y240746D01*
X269139Y240725D01*
X269051Y240701D01*
X268963Y240673D01*
X268877Y240641D01*
X268792Y240606D01*
X268709Y240567D01*
X268627Y240525D01*
X268547Y240480D01*
X268469Y240431D01*
X268393Y240379D01*
X268320Y240324D01*
X268248Y240266D01*
X268179Y240206D01*
X268113Y240142D01*
X268049Y240076D01*
X267989Y240007D01*
X267931Y239935D01*
X267876Y239862D01*
X267824Y239786D01*
X267775Y239708D01*
X267730Y239628D01*
X267688Y239546D01*
X267649Y239463D01*
X267614Y239378D01*
X267582Y239292D01*
X267554Y239204D01*
X267530Y239116D01*
X267509Y239026D01*
X267492Y238936D01*
X267479Y238845D01*
X267470Y238754D01*
X267464Y238662D01*
X267462Y238570D01*
X267464Y238464D01*
X267470Y238359D01*
X267480Y238254D01*
X267493Y238149D01*
X267511Y238045D01*
X267532Y237942D01*
X267557Y237839D01*
X267586Y237737D01*
X267619Y237637D01*
X267655Y237538D01*
X267695Y237440D01*
X267739Y237344D01*
X267786Y237249D01*
X267836Y237157D01*
X267890Y237066D01*
X267948Y236977D01*
X268008Y236891D01*
X268072Y236807D01*
X268138Y236725D01*
X268208Y236645D01*
X268281Y236569D01*
X268356Y236495D01*
X268434Y236424D01*
X268515Y236356D01*
X268598Y236290D01*
X268684Y236228D01*
X268771Y236170D01*
X268861Y236114D01*
X268953Y236062D01*
X269047Y236013D01*
X269142Y235968D01*
X269239Y235926D01*
X269338Y235888D01*
X269437Y235854D01*
X271414Y240051D02*
X271345Y240120D01*
X271275Y240186D01*
X271201Y240249D01*
X271125Y240308D01*
X271047Y240365D01*
X270967Y240419D01*
X270884Y240469D01*
X270800Y240516D01*
X270713Y240559D01*
X270625Y240599D01*
X270536Y240635D01*
X270445Y240668D01*
X270353Y240697D01*
X270259Y240722D01*
X270165Y240743D01*
X270070Y240761D01*
X269974Y240774D01*
X269878Y240784D01*
X269782Y240790D01*
X269685Y240792D01*
X271413Y240051D02*
X276352Y235853D01*
X276352Y240792D01*
D10*
X596900Y234950D02*
X596900Y222250D01*
X590550Y215900D01*
X577850Y215900D01*
X571500Y222250D01*
X577850Y241300D02*
X590550Y241300D01*
X596900Y234950D01*
X577850Y241300D02*
X571500Y234950D01*
X571500Y222250D01*
X590550Y215900D02*
X596900Y209550D01*
X596900Y196850D01*
X590550Y190500D01*
X577850Y190500D01*
X571500Y196850D01*
X571500Y209550D01*
X577850Y215900D01*
D11*
X603123Y218238D02*
X612013Y218238D01*
X612113Y218236D01*
X612212Y218230D01*
X612312Y218220D01*
X612410Y218207D01*
X612509Y218189D01*
X612606Y218168D01*
X612702Y218143D01*
X612798Y218114D01*
X612892Y218081D01*
X612985Y218045D01*
X613076Y218005D01*
X613166Y217961D01*
X613254Y217914D01*
X613340Y217864D01*
X613424Y217810D01*
X613506Y217753D01*
X613585Y217693D01*
X613663Y217629D01*
X613737Y217563D01*
X613809Y217494D01*
X613878Y217422D01*
X613944Y217348D01*
X614008Y217270D01*
X614068Y217191D01*
X614125Y217109D01*
X614179Y217025D01*
X614229Y216939D01*
X614276Y216851D01*
X614320Y216761D01*
X614360Y216670D01*
X614396Y216577D01*
X614429Y216483D01*
X614458Y216387D01*
X614483Y216291D01*
X614504Y216194D01*
X614522Y216095D01*
X614535Y215997D01*
X614545Y215897D01*
X614551Y215798D01*
X614553Y215698D01*
X614553Y214428D01*
X614553Y224219D02*
X603123Y224219D01*
X603123Y227394D01*
X603125Y227505D01*
X603131Y227615D01*
X603140Y227726D01*
X603154Y227836D01*
X603171Y227945D01*
X603192Y228054D01*
X603217Y228162D01*
X603246Y228269D01*
X603278Y228375D01*
X603314Y228480D01*
X603354Y228583D01*
X603397Y228685D01*
X603444Y228786D01*
X603495Y228885D01*
X603548Y228982D01*
X603605Y229076D01*
X603666Y229169D01*
X603729Y229260D01*
X603796Y229349D01*
X603866Y229435D01*
X603939Y229518D01*
X604014Y229600D01*
X604092Y229678D01*
X604174Y229753D01*
X604257Y229826D01*
X604343Y229896D01*
X604432Y229963D01*
X604523Y230026D01*
X604616Y230087D01*
X604711Y230144D01*
X604807Y230197D01*
X604906Y230248D01*
X605007Y230295D01*
X605109Y230338D01*
X605212Y230378D01*
X605317Y230414D01*
X605423Y230446D01*
X605530Y230475D01*
X605638Y230500D01*
X605747Y230521D01*
X605856Y230538D01*
X605966Y230552D01*
X606077Y230561D01*
X606187Y230567D01*
X606298Y230569D01*
X606409Y230567D01*
X606519Y230561D01*
X606630Y230552D01*
X606740Y230538D01*
X606849Y230521D01*
X606958Y230500D01*
X607066Y230475D01*
X607173Y230446D01*
X607279Y230414D01*
X607384Y230378D01*
X607487Y230338D01*
X607589Y230295D01*
X607690Y230248D01*
X607789Y230197D01*
X607886Y230144D01*
X607980Y230087D01*
X608073Y230026D01*
X608164Y229963D01*
X608253Y229896D01*
X608339Y229826D01*
X608422Y229753D01*
X608504Y229678D01*
X608582Y229600D01*
X608657Y229518D01*
X608730Y229435D01*
X608800Y229349D01*
X608867Y229260D01*
X608930Y229169D01*
X608991Y229076D01*
X609048Y228982D01*
X609101Y228885D01*
X609152Y228786D01*
X609199Y228685D01*
X609242Y228583D01*
X609282Y228480D01*
X609318Y228375D01*
X609350Y228269D01*
X609379Y228162D01*
X609404Y228054D01*
X609425Y227945D01*
X609442Y227836D01*
X609456Y227726D01*
X609465Y227615D01*
X609471Y227505D01*
X609473Y227394D01*
X609473Y224219D01*
X612013Y235077D02*
X603123Y237617D01*
X612013Y235077D02*
X612013Y241427D01*
X609473Y239522D02*
X614553Y239522D01*
D10*
X387350Y254000D02*
X374650Y254000D01*
X387350Y254000D02*
X393700Y247650D01*
X393700Y234950D01*
X387350Y228600D01*
X368300Y234950D02*
X368300Y247650D01*
X374650Y254000D01*
X368300Y234950D02*
X374650Y228600D01*
X387350Y228600D01*
D11*
X371983Y262763D02*
X371983Y271653D01*
X371983Y262763D02*
X371981Y262663D01*
X371975Y262564D01*
X371965Y262464D01*
X371952Y262366D01*
X371934Y262267D01*
X371913Y262170D01*
X371888Y262074D01*
X371859Y261978D01*
X371826Y261884D01*
X371790Y261791D01*
X371750Y261700D01*
X371706Y261610D01*
X371659Y261522D01*
X371609Y261436D01*
X371555Y261352D01*
X371498Y261270D01*
X371438Y261191D01*
X371374Y261113D01*
X371308Y261039D01*
X371239Y260967D01*
X371167Y260898D01*
X371093Y260832D01*
X371015Y260768D01*
X370936Y260708D01*
X370854Y260651D01*
X370770Y260597D01*
X370684Y260547D01*
X370596Y260500D01*
X370506Y260456D01*
X370415Y260416D01*
X370322Y260380D01*
X370228Y260347D01*
X370132Y260318D01*
X370036Y260293D01*
X369939Y260272D01*
X369840Y260254D01*
X369742Y260241D01*
X369642Y260231D01*
X369543Y260225D01*
X369443Y260223D01*
X368173Y260223D01*
X377963Y260223D02*
X377963Y271653D01*
X381138Y271653D01*
X381249Y271651D01*
X381359Y271645D01*
X381470Y271636D01*
X381580Y271622D01*
X381689Y271605D01*
X381798Y271584D01*
X381906Y271559D01*
X382013Y271530D01*
X382119Y271498D01*
X382224Y271462D01*
X382327Y271422D01*
X382429Y271379D01*
X382530Y271332D01*
X382629Y271281D01*
X382726Y271228D01*
X382820Y271171D01*
X382913Y271110D01*
X383004Y271047D01*
X383093Y270980D01*
X383179Y270910D01*
X383262Y270837D01*
X383344Y270762D01*
X383422Y270684D01*
X383497Y270602D01*
X383570Y270519D01*
X383640Y270433D01*
X383707Y270344D01*
X383770Y270253D01*
X383831Y270160D01*
X383888Y270065D01*
X383941Y269969D01*
X383992Y269870D01*
X384039Y269769D01*
X384082Y269667D01*
X384122Y269564D01*
X384158Y269459D01*
X384190Y269353D01*
X384219Y269246D01*
X384244Y269138D01*
X384265Y269029D01*
X384282Y268920D01*
X384296Y268810D01*
X384305Y268699D01*
X384311Y268589D01*
X384313Y268478D01*
X384311Y268367D01*
X384305Y268257D01*
X384296Y268146D01*
X384282Y268036D01*
X384265Y267927D01*
X384244Y267818D01*
X384219Y267710D01*
X384190Y267603D01*
X384158Y267497D01*
X384122Y267392D01*
X384082Y267289D01*
X384039Y267187D01*
X383992Y267086D01*
X383941Y266987D01*
X383888Y266890D01*
X383831Y266796D01*
X383770Y266703D01*
X383707Y266612D01*
X383640Y266523D01*
X383570Y266437D01*
X383497Y266354D01*
X383422Y266272D01*
X383344Y266194D01*
X383262Y266119D01*
X383179Y266046D01*
X383093Y265976D01*
X383004Y265909D01*
X382913Y265846D01*
X382820Y265785D01*
X382726Y265728D01*
X382629Y265675D01*
X382530Y265624D01*
X382429Y265577D01*
X382327Y265534D01*
X382224Y265494D01*
X382119Y265458D01*
X382013Y265426D01*
X381906Y265397D01*
X381798Y265372D01*
X381689Y265351D01*
X381580Y265334D01*
X381470Y265320D01*
X381359Y265311D01*
X381249Y265305D01*
X381138Y265303D01*
X377963Y265303D01*
X388822Y266573D02*
X392632Y266573D01*
X392732Y266571D01*
X392831Y266565D01*
X392931Y266555D01*
X393029Y266542D01*
X393128Y266524D01*
X393225Y266503D01*
X393321Y266478D01*
X393417Y266449D01*
X393511Y266416D01*
X393604Y266380D01*
X393695Y266340D01*
X393785Y266296D01*
X393873Y266249D01*
X393959Y266199D01*
X394043Y266145D01*
X394125Y266088D01*
X394204Y266028D01*
X394282Y265964D01*
X394356Y265898D01*
X394428Y265829D01*
X394497Y265757D01*
X394563Y265683D01*
X394627Y265605D01*
X394687Y265526D01*
X394744Y265444D01*
X394798Y265360D01*
X394848Y265274D01*
X394895Y265186D01*
X394939Y265096D01*
X394979Y265005D01*
X395015Y264912D01*
X395048Y264818D01*
X395077Y264722D01*
X395102Y264626D01*
X395123Y264529D01*
X395141Y264430D01*
X395154Y264332D01*
X395164Y264232D01*
X395170Y264133D01*
X395172Y264033D01*
X395172Y263398D01*
X395170Y263287D01*
X395164Y263177D01*
X395155Y263066D01*
X395141Y262956D01*
X395124Y262847D01*
X395103Y262738D01*
X395078Y262630D01*
X395049Y262523D01*
X395017Y262417D01*
X394981Y262312D01*
X394941Y262209D01*
X394898Y262107D01*
X394851Y262006D01*
X394800Y261907D01*
X394747Y261810D01*
X394690Y261716D01*
X394629Y261623D01*
X394566Y261532D01*
X394499Y261443D01*
X394429Y261357D01*
X394356Y261274D01*
X394281Y261192D01*
X394203Y261114D01*
X394121Y261039D01*
X394038Y260966D01*
X393952Y260896D01*
X393863Y260829D01*
X393772Y260766D01*
X393679Y260705D01*
X393584Y260648D01*
X393488Y260595D01*
X393389Y260544D01*
X393288Y260497D01*
X393186Y260454D01*
X393083Y260414D01*
X392978Y260378D01*
X392872Y260346D01*
X392765Y260317D01*
X392657Y260292D01*
X392548Y260271D01*
X392439Y260254D01*
X392329Y260240D01*
X392218Y260231D01*
X392108Y260225D01*
X391997Y260223D01*
X391886Y260225D01*
X391776Y260231D01*
X391665Y260240D01*
X391555Y260254D01*
X391446Y260271D01*
X391337Y260292D01*
X391229Y260317D01*
X391122Y260346D01*
X391016Y260378D01*
X390911Y260414D01*
X390808Y260454D01*
X390706Y260497D01*
X390605Y260544D01*
X390506Y260595D01*
X390410Y260648D01*
X390315Y260705D01*
X390222Y260766D01*
X390131Y260829D01*
X390042Y260896D01*
X389956Y260966D01*
X389873Y261039D01*
X389791Y261114D01*
X389713Y261192D01*
X389638Y261274D01*
X389565Y261357D01*
X389495Y261443D01*
X389428Y261532D01*
X389365Y261623D01*
X389304Y261716D01*
X389247Y261811D01*
X389194Y261907D01*
X389143Y262006D01*
X389096Y262107D01*
X389053Y262209D01*
X389013Y262312D01*
X388977Y262417D01*
X388945Y262523D01*
X388916Y262630D01*
X388891Y262738D01*
X388870Y262847D01*
X388853Y262956D01*
X388839Y263066D01*
X388830Y263177D01*
X388824Y263287D01*
X388822Y263398D01*
X388822Y266573D01*
X388824Y266713D01*
X388830Y266853D01*
X388839Y266993D01*
X388853Y267132D01*
X388870Y267271D01*
X388891Y267409D01*
X388916Y267547D01*
X388945Y267684D01*
X388977Y267820D01*
X389014Y267955D01*
X389054Y268089D01*
X389097Y268222D01*
X389145Y268354D01*
X389195Y268485D01*
X389250Y268614D01*
X389308Y268741D01*
X389369Y268867D01*
X389434Y268991D01*
X389503Y269113D01*
X389574Y269233D01*
X389649Y269351D01*
X389727Y269468D01*
X389809Y269582D01*
X389893Y269693D01*
X389981Y269802D01*
X390071Y269909D01*
X390165Y270014D01*
X390261Y270115D01*
X390360Y270214D01*
X390461Y270310D01*
X390566Y270404D01*
X390673Y270494D01*
X390782Y270582D01*
X390893Y270666D01*
X391007Y270748D01*
X391124Y270826D01*
X391242Y270901D01*
X391362Y270972D01*
X391484Y271041D01*
X391608Y271106D01*
X391734Y271167D01*
X391861Y271225D01*
X391990Y271280D01*
X392121Y271330D01*
X392253Y271378D01*
X392386Y271421D01*
X392520Y271461D01*
X392655Y271498D01*
X392791Y271530D01*
X392928Y271559D01*
X393066Y271584D01*
X393204Y271605D01*
X393343Y271622D01*
X393482Y271636D01*
X393622Y271645D01*
X393762Y271651D01*
X393902Y271653D01*
M02*
